if (_typeface_js && _typeface_js.loadFace) _typeface_js.loadFace({"glyphs":{"S":{"x_min":41.671875,"x_max":787.5,"ha":829,"o":"m 91 300 b 94 295 91 298 94 295 b 101 252 102 283 101 268 b 380 27 115 77 201 27 b 643 105 476 27 558 61 l 652 115 l 681 136 l 691 154 l 705 165 b 752 236 718 173 747 233 b 787 362 768 276 775 320 l 787 368 b 762 479 787 405 773 443 b 730 540 756 501 734 516 b 691 579 725 545 698 573 b 643 609 677 590 652 594 l 579 645 b 568 652 577 645 569 652 b 327 833 477 691 327 705 b 334 872 327 847 337 858 l 352 900 b 363 911 355 904 358 911 l 377 888 l 377 787 b 526 765 377 777 504 765 l 533 765 b 551 780 534 766 548 779 b 638 819 570 790 623 802 l 654 862 b 645 875 652 866 648 872 l 650 920 b 652 927 650 922 652 927 b 650 936 652 929 650 934 b 645 945 648 937 645 945 b 645 970 645 948 647 968 b 636 984 645 972 636 983 b 631 1005 634 987 631 1004 b 627 1016 631 1006 629 1015 b 515 1112 608 1065 565 1100 b 426 1119 486 1119 454 1106 b 268 1073 359 1111 330 1098 b 80 868 172 1036 116 962 b 41 706 59 813 41 766 b 190 543 41 600 100 573 b 281 522 219 533 251 533 b 480 394 365 490 423 470 b 508 313 498 370 508 344 l 508 306 b 504 270 508 301 505 276 b 431 245 501 265 440 245 b 373 275 419 245 373 254 l 384 291 b 373 302 383 297 376 302 b 334 401 376 331 377 395 l 250 412 l 244 412 b 151 362 212 412 172 376 b 116 348 140 355 126 355 b 91 300 102 340 91 313 m 122 300 b 150 325 122 316 131 325 b 247 313 181 325 215 322 b 362 154 262 240 261 154 b 504 211 418 154 468 168 b 529 256 518 226 519 240 b 533 320 531 284 533 297 b 494 419 533 361 516 387 b 236 563 433 505 330 534 b 69 705 145 591 69 587 b 197 1002 69 815 116 927 b 240 1030 215 1002 226 1022 b 334 1062 262 1045 308 1061 b 380 1059 340 1062 376 1059 l 391 1059 b 544 836 493 1012 544 955 b 529 797 544 822 538 809 b 497 793 519 800 508 793 b 480 797 491 793 484 793 l 441 797 b 409 804 433 798 411 802 l 405 808 l 405 879 b 380 938 404 904 390 918 b 361 943 375 937 368 943 b 190 766 270 943 190 855 b 302 648 190 700 248 670 b 377 620 327 640 352 627 b 444 602 398 615 423 611 b 497 568 465 595 479 579 b 522 556 500 566 520 558 b 551 529 525 554 547 531 b 638 326 615 470 638 415 b 631 275 638 308 633 291 l 631 238 b 597 154 629 211 611 176 b 372 55 540 69 469 55 l 327 55 b 243 73 300 63 270 65 b 122 300 147 101 122 209 m 281 245 b 337 281 297 255 322 281 b 298 234 337 273 311 234 b 294 234 297 234 297 236 l 281 245 m 684 295 b 688 284 687 291 688 288 b 677 268 687 279 680 269 b 684 261 679 266 684 262 l 659 231 b 684 295 658 250 658 288 m 254 819 l 263 833 l 302 872 b 304 866 302 870 304 866 b 256 815 304 850 275 815 b 254 819 256 815 254 818 m 720 490 b 730 477 722 490 730 483 b 727 472 730 475 727 472 l 684 454 b 675 451 683 454 676 451 b 720 490 679 461 705 487 m 261 790 b 295 829 269 798 284 820 b 300 815 297 827 300 818 b 275 783 300 804 286 786 b 261 790 270 781 261 784 m 243 850 b 286 893 248 856 279 887 b 304 901 291 898 297 901 b 240 833 304 898 250 841 l 240 840 b 243 850 240 841 243 848 m 679 547 l 688 540 b 648 518 688 529 652 518 b 679 547 648 530 668 547 m 754 388 b 748 366 754 386 755 369 b 716 355 745 365 723 356 b 754 388 725 363 737 388 m 334 680 b 365 705 345 688 347 705 b 375 698 369 705 375 704 b 348 684 375 687 355 688 b 338 677 345 681 338 677 l 334 680 m 313 198 b 336 222 313 208 326 222 b 327 197 336 212 327 206 b 338 186 327 191 330 180 b 331 181 337 181 334 181 b 313 198 323 181 313 190 m 619 869 b 586 834 619 854 601 834 l 586 840 b 606 865 586 840 601 856 b 619 869 611 869 611 869 m 423 638 b 462 656 430 644 451 656 l 462 648 b 437 634 462 647 444 637 b 423 638 429 634 425 633 m 586 536 l 588 543 b 604 529 591 540 601 530 b 623 533 612 529 616 533 l 627 531 b 605 515 625 529 613 518 l 586 536 m 315 755 b 325 744 320 755 323 747 b 287 733 308 744 300 733 b 315 755 290 741 305 755 m 426 219 b 437 218 429 219 436 218 b 404 198 434 212 412 198 b 426 219 404 212 415 219 m 631 484 b 652 469 637 484 644 470 b 652 465 652 468 654 468 l 643 454 b 631 484 633 454 631 480 m 723 238 b 687 206 723 226 698 206 b 723 238 687 213 719 237 m 395 1080 b 423 1090 400 1093 422 1090 b 413 1076 422 1079 420 1076 b 395 1080 406 1077 397 1079 m 223 798 b 233 790 227 798 233 795 b 216 776 233 784 222 776 b 223 798 215 776 218 798 m 740 451 b 744 447 741 451 744 448 b 720 433 745 440 723 433 b 740 451 720 441 734 451 m 750 416 b 720 398 750 405 726 402 b 750 416 720 409 741 416 m 345 256 l 352 250 b 334 238 352 243 337 238 b 345 256 331 240 336 256 m 334 730 b 341 723 336 729 341 725 b 316 712 343 718 320 712 b 334 730 316 720 330 723 m 561 625 b 529 602 561 611 537 605 b 561 625 534 612 558 623 m 663 355 b 690 363 683 350 673 363 b 666 341 684 354 676 347 l 663 355 m 343 350 b 326 334 343 340 337 334 l 320 334 b 343 350 322 344 334 350 m 604 891 b 623 904 612 891 613 904 b 604 883 623 894 613 883 l 604 891 m 377 229 b 384 225 381 227 384 226 b 365 215 381 216 372 215 b 377 229 365 223 370 225 m 469 1044 b 493 1055 473 1054 484 1055 l 490 1051 b 476 1041 487 1050 477 1041 b 469 1044 472 1041 469 1044 m 681 433 b 656 412 676 423 668 415 b 681 433 656 422 677 431 m 400 673 b 383 655 400 663 390 655 b 400 673 383 663 391 673 m 270 330 b 294 345 276 336 287 345 b 286 334 294 343 287 336 b 275 327 283 331 275 327 l 270 330 m 508 618 b 491 604 506 608 501 604 b 508 618 491 615 500 618 m 748 338 b 752 337 750 338 751 337 b 727 323 747 330 734 326 b 748 338 731 330 738 338 m 600 1005 l 604 1002 b 587 995 600 997 594 995 l 581 995 b 586 998 583 995 584 998 b 600 1005 590 1001 600 1006 m 575 897 b 575 893 575 895 576 895 b 563 880 573 887 569 880 b 575 897 563 890 566 893 m 279 288 l 302 302 l 281 281 l 279 288 m 341 309 b 343 304 341 309 343 305 b 333 294 343 298 340 294 b 341 309 333 301 336 306 m 345 183 l 359 190 b 345 177 356 181 354 177 l 345 183 m 568 875 b 572 875 570 876 572 875 b 575 868 572 875 575 869 b 568 861 575 862 572 861 l 568 875 m 554 927 b 575 938 561 933 569 934 b 558 925 570 933 563 927 b 554 927 556 925 554 927 m 451 201 b 455 200 452 201 455 200 b 441 193 450 194 447 193 b 451 201 440 197 445 201 m 627 586 b 619 577 629 579 625 577 b 613 579 619 577 615 579 b 627 586 619 583 622 586 m 261 694 b 272 700 262 700 269 700 b 268 691 272 698 270 691 b 261 694 266 691 261 694 m 658 211 b 650 200 658 206 654 202 b 648 204 650 201 648 202 b 658 211 648 209 652 211 m 243 355 b 230 345 243 351 237 345 b 243 355 233 351 236 355 m 191 356 b 181 348 191 351 186 348 b 191 356 183 354 186 356 m 306 684 l 306 677 l 298 677 b 306 684 298 681 304 684 m 243 723 b 234 715 243 716 238 715 b 243 723 234 720 238 722 m 458 1073 b 458 1069 459 1070 459 1069 b 448 1066 458 1069 450 1066 b 458 1073 448 1072 455 1072 m 691 447 b 691 440 695 447 695 440 b 691 447 688 440 688 447 m 705 337 b 705 330 709 337 709 330 b 705 337 702 330 702 337 m 533 586 b 533 579 536 586 536 579 b 533 586 529 579 529 586 m 279 733 b 279 726 281 733 281 726 b 279 733 275 726 275 733 m 727 250 b 727 243 730 250 730 243 b 727 250 723 243 723 250 m 702 394 b 702 387 705 394 705 387 b 702 394 698 387 698 394 m 604 575 b 604 568 606 575 606 568 b 604 575 600 568 600 575 m 636 515 l 636 508 l 627 508 l 636 515 m 398 197 b 391 190 398 193 393 190 b 398 197 393 194 397 197 m 572 826 b 572 822 573 825 573 823 b 572 826 569 822 569 826 m 618 943 b 618 938 619 941 619 940 b 618 943 615 938 615 943 m 679 201 b 677 197 683 200 680 197 l 679 201 "},"/":{"x_min":41.671875,"x_max":434.71875,"ha":476,"o":"m 41 -5 b 137 -19 68 -23 109 -16 b 166 -40 162 -20 151 -40 b 195 2 183 -40 190 -8 b 243 65 208 23 225 48 b 256 76 244 65 256 75 b 287 131 272 95 268 113 b 277 155 287 143 277 145 b 290 179 277 156 290 170 b 287 187 290 180 288 186 b 286 193 287 188 286 191 b 298 218 286 204 298 209 b 293 234 298 219 294 229 b 312 325 293 266 305 297 b 340 476 315 347 336 452 b 363 591 347 486 363 575 b 387 700 363 629 386 663 b 388 720 387 702 387 718 b 406 833 394 758 398 795 l 434 1077 l 434 1086 b 433 1093 434 1087 433 1093 b 286 1123 431 1093 300 1123 b 276 1116 281 1123 277 1116 b 256 1102 275 1115 261 1104 b 205 1075 240 1093 222 1086 b 191 1054 202 1072 191 1061 l 148 779 b 145 758 148 777 147 762 b 143 738 147 756 143 740 b 108 443 129 640 120 541 b 105 437 108 441 105 438 l 86 293 l 87 288 b 73 212 87 288 77 233 b 58 102 68 176 65 138 b 41 13 52 75 41 45 l 41 -5 m 68 12 b 65 20 63 13 65 18 l 65 29 b 79 102 65 55 75 79 b 94 191 80 112 90 173 b 105 258 95 213 104 236 l 126 433 l 126 438 b 136 493 126 456 143 476 l 147 615 b 165 741 162 655 161 700 l 173 787 b 186 847 173 793 184 840 l 208 1019 b 212 1043 206 1022 211 1040 b 276 1025 233 1029 254 1027 b 281 1022 276 1025 279 1022 b 293 1008 281 1020 291 1009 b 322 979 305 993 319 1008 b 313 912 325 955 318 936 b 293 748 304 859 297 802 b 263 619 288 704 272 662 b 231 426 251 555 244 488 b 200 251 204 376 212 306 b 195 233 200 250 195 234 b 184 176 195 225 186 181 l 169 26 b 162 5 169 23 168 5 l 68 12 m 294 619 l 309 615 b 287 581 308 600 287 600 b 306 562 287 572 295 562 b 280 526 297 552 280 541 b 290 512 281 518 290 518 l 269 493 b 286 605 273 531 280 570 b 294 619 287 608 287 619 m 383 841 b 377 808 384 830 380 816 b 340 797 365 805 354 797 l 333 797 b 350 815 336 800 347 813 b 383 841 354 818 383 841 m 394 980 b 400 976 397 980 400 977 l 401 972 b 398 955 401 969 398 958 b 350 947 381 958 366 947 b 362 962 350 951 358 959 b 394 980 370 968 386 980 m 355 1045 b 408 1072 372 1051 390 1072 b 402 1050 408 1063 408 1055 b 356 1038 394 1047 370 1038 l 355 1045 m 205 106 b 212 95 209 104 212 100 b 206 79 212 90 206 84 b 212 68 206 79 211 69 b 198 50 212 58 206 50 b 205 106 197 65 190 97 m 370 773 b 329 737 370 748 348 737 l 327 741 b 370 773 327 743 368 772 m 347 900 b 393 929 350 902 391 929 b 391 906 393 925 393 908 b 377 906 390 905 379 906 b 350 895 369 905 359 895 b 347 900 350 895 347 898 m 404 1025 b 405 1020 404 1025 405 1022 b 362 1001 405 1006 370 1001 l 356 1001 b 366 1011 355 1008 359 1009 b 404 1025 370 1013 397 1022 m 306 461 b 315 458 308 461 313 461 b 269 429 315 443 279 429 b 306 461 269 431 306 461 m 294 377 b 262 348 294 356 279 348 b 294 377 262 361 284 377 m 226 145 b 204 113 226 131 215 118 b 226 145 202 138 204 144 m 363 713 b 331 691 363 697 344 691 b 363 713 331 705 351 713 m 225 254 b 240 230 226 245 234 236 l 236 226 b 220 212 227 225 227 216 b 225 254 219 230 220 243 m 320 594 l 340 619 l 345 619 b 322 588 345 602 336 588 l 320 594 m 352 861 b 383 877 361 868 373 873 l 386 852 b 352 861 376 859 363 862 m 293 1093 b 308 1088 297 1093 302 1093 b 276 1080 301 1081 280 1081 b 293 1093 277 1088 283 1093 m 286 329 b 263 306 286 316 275 306 b 286 329 262 312 280 329 m 331 650 b 350 663 334 656 345 661 b 334 645 351 650 345 645 b 331 650 333 645 331 648 m 325 512 b 312 497 326 504 322 497 b 325 512 312 508 313 512 m 331 554 b 318 540 331 545 326 540 b 331 554 318 551 325 554 m 265 463 l 270 463 b 262 451 270 458 268 454 l 265 463 m 238 272 b 227 261 238 266 233 263 b 238 272 230 269 234 272 m 323 693 b 325 684 327 693 329 684 b 323 693 320 684 319 693 m 337 833 b 329 822 336 827 330 822 b 337 833 329 829 334 831 m 312 1093 b 313 1084 316 1093 318 1084 b 312 1093 312 1084 311 1093 m 226 233 b 227 226 223 233 225 226 b 226 233 231 226 230 233 m 273 275 b 269 268 276 269 275 268 b 273 275 266 269 272 275 m 347 1084 b 347 1077 350 1084 350 1077 b 347 1084 343 1077 343 1084 m 311 1050 b 311 1043 313 1050 313 1043 b 311 1050 306 1043 306 1050 m 213 184 b 213 176 218 181 216 177 l 213 184 m 318 762 b 313 758 319 759 316 758 b 318 762 312 759 316 763 m 302 654 b 300 654 302 651 300 651 b 302 654 298 655 304 655 m 340 923 b 341 920 343 923 344 920 b 340 923 340 920 338 925 "},"y":{"x_min":41.671875,"x_max":744.453125,"ha":786,"o":"m 83 -275 b 108 -297 84 -277 101 -295 b 240 -311 148 -308 198 -311 b 297 -304 254 -311 284 -313 b 337 -301 302 -304 331 -301 l 394 -291 l 404 -291 b 734 209 648 -195 722 -47 l 734 240 b 741 300 734 247 740 294 l 741 325 b 737 405 741 352 737 379 b 741 473 738 413 740 466 b 737 497 741 484 737 488 b 744 520 737 506 744 512 b 737 530 744 526 743 527 l 734 555 l 734 681 b 725 788 734 715 734 756 b 684 833 720 808 704 830 b 630 838 676 834 638 838 b 595 848 623 845 605 848 b 555 829 583 848 565 837 l 511 798 l 486 786 b 479 773 484 784 479 775 b 461 461 481 669 479 562 b 429 388 454 436 444 411 b 348 356 409 377 376 356 b 272 436 287 356 276 381 b 265 491 270 451 265 475 b 272 508 265 500 269 505 l 272 513 b 268 520 272 515 272 520 l 268 556 b 277 681 268 598 277 641 b 275 700 277 688 275 693 l 275 706 b 290 722 276 709 287 720 l 290 729 b 275 737 288 729 275 730 b 284 756 275 744 284 748 b 275 769 283 761 275 768 b 272 786 275 770 272 784 b 237 801 269 794 243 798 b 225 811 231 804 231 809 b 176 813 212 811 190 813 l 170 813 l 138 798 b 113 786 129 798 122 788 l 88 769 b 66 763 87 769 69 763 b 44 597 40 751 45 625 b 41 498 44 577 41 509 b 48 433 41 476 45 454 b 66 256 54 373 51 313 b 305 152 91 165 229 152 b 406 175 338 152 376 159 b 416 180 408 175 415 180 b 470 202 436 187 454 190 l 513 240 b 515 226 513 238 515 229 b 466 -65 515 137 511 15 b 448 -100 462 -72 454 -93 b 347 -130 426 -123 377 -123 l 200 -130 b 88 -177 155 -130 131 -173 b 81 -237 77 -191 81 -225 b 83 -275 81 -243 83 -269 m 202 -197 b 258 -202 219 -201 243 -202 b 334 -200 273 -202 323 -201 b 413 -165 362 -187 386 -186 b 538 262 545 -68 529 118 b 548 413 545 272 548 394 b 541 436 548 416 550 436 b 483 300 520 436 494 323 b 287 175 437 216 386 175 b 173 194 251 175 209 186 b 73 404 75 215 75 320 b 70 413 72 405 70 412 b 66 537 65 454 66 497 l 66 612 l 73 722 b 76 741 73 725 76 738 b 165 726 95 741 161 733 b 168 647 163 698 166 677 l 168 565 b 170 470 168 555 170 480 l 170 413 b 177 341 170 405 176 354 b 312 269 186 258 247 273 b 366 291 329 279 350 280 b 508 756 527 405 493 584 l 513 756 b 568 754 530 756 568 754 l 577 747 b 605 754 581 748 601 754 l 612 754 b 618 719 612 748 616 725 l 618 713 l 630 565 b 637 530 638 558 634 540 b 640 508 637 526 640 511 l 640 394 b 637 376 640 393 637 380 b 623 318 634 365 623 329 b 633 305 623 312 627 305 b 640 245 633 286 640 266 l 640 234 l 633 143 b 625 93 631 126 626 108 b 612 16 622 70 626 36 b 436 -256 586 -90 545 -208 b 426 -259 433 -256 427 -259 b 233 -288 363 -273 297 -288 b 123 -275 197 -288 159 -286 b 105 -262 118 -275 105 -270 l 105 -206 b 118 -197 105 -200 112 -197 l 202 -197 m 681 798 b 673 804 681 802 677 804 b 647 794 666 802 654 794 b 675 808 650 805 662 808 l 687 808 b 700 780 695 802 700 790 b 668 766 700 768 675 769 b 662 761 668 766 663 761 b 655 758 661 759 656 758 b 681 798 655 775 681 781 m 709 627 b 709 609 713 625 711 613 b 659 570 702 594 675 576 l 659 584 l 687 612 b 697 618 688 612 695 618 l 709 627 m 665 518 b 668 527 665 520 665 523 l 697 555 b 702 556 698 555 702 556 b 712 543 712 556 712 554 b 668 511 712 540 676 513 b 665 518 665 512 665 515 m 715 436 l 715 401 b 659 366 695 397 675 377 b 700 413 665 384 688 401 l 706 426 l 715 436 m 715 386 b 716 379 716 384 716 380 b 662 334 716 373 668 338 l 662 341 b 697 376 662 343 686 368 l 715 386 m 675 670 b 706 704 679 681 700 695 b 709 693 709 700 709 697 b 690 666 709 680 698 673 b 675 670 683 666 675 665 m 719 329 l 719 309 l 706 309 b 668 281 698 302 681 286 b 719 329 668 293 709 325 m 202 681 b 195 668 202 676 195 673 b 202 659 197 663 201 659 l 225 659 l 215 650 b 193 634 209 645 193 634 l 190 679 b 202 681 190 679 197 680 m 712 522 l 712 515 b 687 490 712 513 694 497 b 668 473 681 484 669 473 b 712 522 668 490 701 522 m 713 659 b 675 622 713 643 687 629 b 713 659 680 636 695 659 m 702 747 b 706 741 706 747 706 744 b 672 712 706 729 683 712 b 668 713 670 712 669 713 b 702 747 679 727 691 734 m 205 505 b 243 530 212 511 231 530 l 243 518 b 220 505 243 516 227 508 b 208 502 220 505 212 502 b 205 505 208 502 206 501 m 715 448 b 662 401 715 440 665 404 b 715 448 672 418 695 445 m 712 490 l 712 470 l 680 448 b 684 461 680 455 681 458 l 712 490 m 186 713 b 202 726 186 722 197 723 l 230 738 b 191 709 229 731 201 709 b 186 713 188 711 186 712 m 712 266 l 712 259 b 680 233 712 248 693 233 b 702 259 680 238 697 254 l 712 266 m 244 615 b 213 590 244 598 230 590 b 244 615 211 593 240 615 m 183 751 b 206 761 183 758 201 761 l 212 761 b 187 744 206 752 198 744 b 183 751 186 745 183 750 m 716 355 b 687 326 716 340 695 333 b 716 355 687 336 708 355 m 637 725 b 661 738 637 734 651 738 l 640 713 b 637 725 634 713 637 723 m 715 294 l 715 281 b 677 259 701 281 686 266 b 715 294 677 265 708 291 m 302 344 l 302 338 b 281 329 302 336 284 329 l 277 331 b 302 344 277 340 298 344 m 709 587 b 670 552 709 576 673 552 l 677 562 b 709 587 683 565 704 583 m 702 98 b 680 80 712 86 684 83 b 702 98 680 88 697 97 m 712 215 b 709 193 712 205 712 195 b 694 190 706 191 695 188 b 712 215 698 200 709 205 m 240 568 b 218 551 240 555 225 551 b 240 568 218 556 234 568 m 645 634 b 663 644 645 638 659 644 l 650 625 b 645 634 647 629 645 630 m 250 379 b 255 376 254 379 255 376 b 233 363 250 370 241 366 b 250 379 233 370 244 377 m 259 297 b 270 304 261 301 266 304 b 279 293 275 301 279 298 b 259 297 272 293 265 295 m 244 415 b 226 401 244 406 234 401 b 244 415 226 408 237 415 m 672 -16 b 665 -27 679 -26 670 -27 b 659 -26 663 -27 659 -27 b 672 -16 662 -20 665 -16 m 368 -152 b 350 -165 365 -158 358 -165 b 368 -152 351 -155 356 -152 m 215 379 l 200 361 b 198 366 198 361 198 365 b 215 379 198 376 206 377 m 216 783 b 197 775 216 775 202 775 b 216 783 197 783 212 783 m 659 436 b 670 440 659 440 669 440 b 662 426 670 434 668 429 b 659 436 661 427 659 434 m 202 609 b 188 595 201 604 195 595 b 202 609 188 605 193 608 m 694 123 b 706 129 694 129 705 129 b 700 120 706 123 704 120 b 694 123 697 120 694 120 m 545 786 l 545 779 l 530 779 b 545 786 533 784 540 786 m 706 165 b 691 152 705 155 700 152 b 706 165 693 163 701 154 m 518 319 b 511 304 518 309 516 306 b 518 319 511 312 512 315 m 288 -158 b 297 -159 290 -158 295 -159 b 283 -162 291 -162 288 -162 l 277 -162 b 288 -158 279 -156 287 -158 m 376 329 b 362 316 375 322 368 318 b 376 329 362 322 375 327 m 311 300 b 300 291 311 293 305 291 b 311 300 300 297 306 300 m 243 451 b 230 438 251 448 233 438 l 243 451 m 294 -177 b 302 -175 297 -175 300 -175 b 300 -180 305 -176 301 -180 b 294 -177 295 -180 294 -179 m 201 334 l 208 334 l 208 327 b 201 334 205 327 201 331 m 659 158 l 666 158 b 659 151 666 155 662 151 l 659 158 m 706 227 b 712 231 708 230 709 231 l 712 222 l 706 227 m 690 55 b 690 48 694 55 694 48 b 690 55 687 48 687 55 m 302 -155 b 302 -162 306 -155 306 -162 b 302 -155 300 -162 300 -155 m 680 329 b 680 322 684 329 684 322 b 680 329 677 322 677 329 m 341 -165 b 341 -172 344 -165 344 -172 b 341 -165 337 -172 337 -165 m 593 816 b 583 808 591 812 586 808 b 593 816 583 811 587 815 m 334 -168 b 334 -175 337 -168 337 -175 b 334 -168 331 -175 331 -168 m 356 316 b 356 309 359 316 359 309 b 356 316 354 309 354 316 m 240 483 l 230 473 b 240 483 231 479 234 483 m 694 61 b 694 55 697 61 697 55 b 694 61 690 55 690 61 m 668 225 b 668 219 672 225 672 219 b 668 225 665 219 665 225 m 675 227 b 675 222 677 227 677 222 b 675 227 672 222 672 227 m 250 656 b 250 650 251 655 251 651 b 250 656 247 648 247 656 m 630 788 b 625 781 631 786 627 783 b 630 788 625 783 629 787 m 731 227 b 727 225 731 226 730 223 b 731 227 726 226 730 230 m 483 247 b 479 244 483 245 481 243 b 483 247 477 244 481 248 m 647 672 b 643 669 647 670 645 668 b 647 672 641 669 645 673 m 561 798 b 555 794 559 794 558 794 l 561 798 m 655 681 b 655 679 658 681 658 679 b 655 681 654 677 654 681 m 272 356 b 268 351 270 354 269 351 l 272 356 "},"Á":{"x_min":41.671875,"x_max":755.5625,"ha":797,"o":"m 611 1 b 620 -6 615 1 620 -1 b 630 0 620 -8 626 0 b 652 -2 633 1 650 -2 b 672 29 669 -2 670 22 l 687 29 b 755 134 693 30 751 120 l 755 162 b 751 236 755 187 751 211 b 755 252 751 243 755 248 b 748 263 755 258 755 259 l 748 275 b 736 381 748 311 731 347 b 741 395 736 383 740 394 b 731 423 741 401 731 411 b 736 443 731 430 736 434 l 729 443 b 731 473 729 455 731 462 l 725 473 b 716 519 720 487 716 504 b 718 530 716 520 718 529 b 726 541 720 531 726 536 l 713 541 b 711 588 713 548 711 580 b 713 598 711 593 713 598 l 711 604 l 690 784 l 690 794 l 672 929 l 672 936 b 679 947 673 937 679 945 l 676 952 b 679 959 676 954 679 959 b 668 962 679 966 668 962 b 651 1041 668 994 666 1013 b 537 1119 618 1104 606 1109 b 476 1125 531 1120 488 1125 l 469 1125 b 462 1129 468 1126 462 1129 b 445 1125 459 1129 447 1126 l 436 1125 b 400 1133 423 1125 412 1133 b 376 1125 393 1133 381 1127 l 334 1125 b 283 1077 312 1113 301 1091 b 227 1041 263 1066 241 1058 b 176 747 212 943 194 845 b 173 733 176 745 173 736 l 102 365 l 102 354 b 93 304 102 350 94 308 b 86 256 93 300 87 261 b 83 247 86 254 83 248 b 52 98 77 225 56 120 b 41 23 51 90 43 38 l 41 16 b 55 2 41 6 44 2 b 116 9 73 2 98 9 b 222 -2 151 9 187 -2 b 272 33 230 5 261 27 b 297 40 275 34 295 38 b 306 51 298 40 304 48 b 313 61 306 52 312 59 b 366 87 325 68 361 73 b 369 137 370 100 369 126 l 369 155 l 366 162 b 365 186 366 162 365 180 b 376 325 365 229 362 281 b 388 327 379 329 384 327 b 455 306 398 327 454 318 b 506 2 476 206 481 102 b 525 -2 508 -1 522 -2 l 597 -2 b 611 1 601 1 605 1 m 518 68 l 483 276 l 483 287 b 479 325 481 298 480 325 l 469 334 b 277 361 395 350 354 361 b 255 344 268 361 258 354 b 241 200 243 297 248 247 b 211 33 233 144 220 88 b 186 23 208 22 195 23 b 68 37 177 23 76 30 l 68 50 b 102 229 68 108 93 172 l 116 318 b 120 341 119 329 122 329 b 162 556 131 416 148 483 b 169 608 162 562 168 602 b 197 744 173 627 191 723 b 200 763 200 748 201 756 l 245 1004 b 265 1023 248 1019 250 1022 l 305 1023 b 412 1020 340 1023 377 1020 l 441 1020 b 456 1023 445 1025 451 1023 b 487 1020 465 1023 479 1023 b 497 1011 488 1020 495 1012 b 520 1000 505 1002 512 1011 b 537 926 536 981 534 947 b 544 902 537 923 544 904 b 576 643 563 818 566 727 b 593 470 581 586 598 526 b 623 252 598 437 619 286 b 627 236 625 251 627 237 l 638 141 b 641 122 638 134 636 126 b 650 51 647 91 650 76 b 645 23 650 45 650 27 b 561 19 641 20 577 19 b 518 68 515 19 529 30 m 366 452 l 434 438 b 452 447 436 438 450 440 l 452 486 b 445 530 452 491 445 526 b 434 669 444 536 437 633 l 434 675 b 430 761 434 684 430 751 b 434 797 430 763 434 794 b 362 855 434 852 405 850 l 352 855 b 331 851 347 855 334 855 b 320 773 323 843 319 784 l 302 604 b 286 525 298 579 301 545 l 286 500 b 318 452 286 466 283 463 b 337 455 323 448 331 455 b 348 450 338 455 347 450 b 366 452 354 450 363 451 m 373 777 l 376 773 b 390 787 379 775 387 784 l 379 784 b 354 770 372 784 359 770 l 362 784 b 397 818 372 794 395 818 b 397 797 400 813 397 798 b 406 797 401 795 406 797 b 408 793 406 797 408 794 b 341 723 408 780 358 733 b 340 733 341 723 340 731 b 373 777 340 755 354 761 m 566 976 l 606 1018 b 611 1027 611 1020 611 1023 b 593 1037 611 1037 605 1043 b 615 1058 594 1038 611 1059 l 620 1047 b 630 1023 622 1045 629 1027 b 558 951 623 1012 561 951 b 566 976 558 959 565 969 m 537 1025 b 591 1079 537 1045 572 1079 b 608 1069 598 1079 608 1076 b 541 1020 608 1062 551 1030 b 537 1025 540 1020 537 1023 m 338 219 l 338 201 l 313 176 b 248 91 295 155 251 111 b 252 80 248 90 252 81 b 245 75 251 79 245 76 b 241 63 243 69 248 66 l 241 69 b 255 122 241 88 243 105 b 325 205 261 129 318 198 b 338 219 326 208 336 218 m 665 777 l 665 756 b 627 709 665 756 638 723 b 597 673 616 698 609 681 b 595 683 597 673 595 680 b 620 723 595 698 613 711 b 665 777 636 745 645 761 m 400 615 b 348 548 400 577 373 569 b 313 506 336 536 326 520 l 313 512 b 400 615 313 527 388 613 m 411 768 b 338 686 406 752 355 700 b 386 756 338 711 372 744 b 411 768 395 766 401 759 m 338 134 b 341 119 341 130 341 125 b 265 56 341 105 280 62 b 286 84 265 61 280 77 b 338 134 302 102 322 116 m 713 362 l 713 351 b 644 269 695 331 656 269 b 713 362 644 291 704 362 m 566 919 b 631 1000 583 933 616 1000 b 641 988 640 1000 641 997 b 581 929 633 977 591 938 b 566 912 580 927 573 912 l 566 919 m 634 347 b 702 431 634 352 695 425 b 706 425 704 431 706 426 b 700 419 706 425 700 420 b 638 337 677 394 663 355 b 634 347 633 338 634 344 m 652 223 l 652 229 b 665 223 656 225 659 223 b 720 294 672 223 708 283 b 725 287 722 293 725 288 b 662 200 725 284 670 215 l 658 195 b 652 223 652 208 652 212 m 294 1054 b 334 1095 300 1069 318 1093 b 344 1093 337 1095 343 1094 b 302 1050 337 1080 319 1050 b 294 1054 300 1050 294 1050 m 676 690 l 676 669 l 627 619 b 676 690 627 636 661 690 m 586 773 b 597 777 587 773 595 776 b 600 787 598 777 600 787 b 611 791 601 788 609 790 b 658 850 625 798 637 850 l 658 834 b 604 773 638 816 620 797 b 590 756 600 769 590 756 l 586 773 m 648 450 l 679 486 l 694 497 l 694 483 b 623 408 668 461 645 434 b 648 450 623 419 641 450 m 341 266 l 341 247 b 302 209 337 234 312 220 l 283 186 b 275 181 280 181 279 181 b 341 266 275 186 331 258 m 362 636 b 411 690 373 645 405 672 l 411 673 b 386 645 411 673 393 652 l 373 631 b 348 604 369 627 351 608 l 343 604 b 362 636 343 612 355 636 m 348 588 b 373 612 347 590 370 605 b 393 631 379 626 390 625 b 412 655 395 641 397 655 b 351 580 412 631 368 595 l 348 588 m 650 965 b 615 916 650 941 633 927 l 615 933 b 634 959 615 933 627 951 b 650 965 638 965 640 965 m 400 537 b 415 588 400 550 408 575 b 418 529 419 572 418 541 b 400 537 411 529 400 527 m 623 400 b 627 405 623 400 626 404 b 638 395 629 402 636 397 b 672 436 650 405 665 427 l 695 459 l 695 452 b 652 401 695 451 663 416 b 630 381 650 400 634 384 b 623 400 625 383 623 397 m 423 1101 l 441 1098 b 386 1058 422 1088 402 1072 b 373 1044 381 1054 379 1044 l 373 1054 b 404 1084 373 1055 394 1076 b 423 1101 409 1090 423 1101 m 390 1098 b 340 1054 380 1084 359 1054 l 341 1058 b 344 1065 341 1059 344 1065 b 379 1098 354 1075 379 1098 l 390 1098 m 595 861 b 611 879 602 861 608 875 b 645 919 620 891 645 919 l 648 905 b 600 855 633 893 616 869 b 595 861 597 859 595 859 m 338 172 l 338 165 b 325 145 338 151 334 152 l 290 115 b 338 172 297 131 322 165 m 615 479 b 623 494 615 480 620 490 b 662 541 637 508 647 525 b 683 556 666 545 681 556 l 687 550 b 616 473 663 530 627 502 l 615 479 m 669 730 b 673 719 673 729 673 722 b 641 691 673 708 654 691 l 641 697 b 662 723 641 697 656 716 l 669 730 m 404 713 l 411 713 b 373 669 411 693 384 683 b 386 690 375 687 376 679 b 404 713 394 698 387 713 m 327 327 l 334 325 b 297 280 329 318 301 287 b 272 252 288 270 283 261 b 300 290 272 269 293 280 l 327 327 m 668 80 b 669 84 668 80 669 83 b 700 94 679 84 693 86 b 679 63 700 86 687 63 b 668 80 670 63 668 75 m 606 909 b 576 869 615 900 583 873 l 576 875 b 606 909 576 886 597 906 m 727 229 b 731 219 729 227 731 222 b 718 201 731 213 719 204 b 694 176 713 198 695 179 b 727 229 694 198 719 212 m 666 811 l 658 797 b 616 756 654 791 623 762 l 630 780 b 666 811 638 790 661 811 m 400 502 l 418 506 b 420 502 418 506 420 504 b 402 479 420 493 415 479 l 397 479 b 400 502 400 487 401 495 m 372 712 b 373 716 372 713 373 716 l 404 747 b 395 736 408 734 405 736 b 376 702 395 719 393 718 b 372 712 372 704 372 709 m 683 601 b 679 608 683 601 680 606 b 690 591 690 612 690 598 l 634 537 b 683 601 640 556 683 580 m 656 883 b 648 869 656 877 652 872 b 620 845 641 862 622 845 b 638 869 620 848 634 865 b 656 883 640 870 650 883 m 702 395 l 711 395 b 679 358 711 386 686 363 l 702 395 m 679 645 b 680 638 679 644 680 640 b 655 619 680 625 666 622 b 679 645 659 627 672 638 m 372 550 b 362 541 372 541 368 547 l 327 506 l 338 525 b 366 550 345 531 365 550 l 372 550 m 690 530 l 690 525 l 655 486 b 679 520 655 491 672 512 l 690 530 m 662 140 b 679 162 662 144 676 159 b 680 156 679 161 680 156 b 665 131 680 150 668 137 b 662 140 665 131 662 137 m 713 148 b 733 151 722 148 726 151 b 713 134 733 144 723 134 l 713 148 m 606 572 l 616 572 b 615 554 616 569 615 556 b 611 550 615 552 612 550 b 606 572 605 555 606 566 m 361 518 l 366 518 l 338 490 b 361 518 338 498 355 518 m 527 1095 b 537 1093 530 1095 537 1093 b 523 1081 537 1083 527 1081 l 518 1081 b 527 1095 518 1083 523 1091 m 597 655 b 608 648 606 655 608 652 b 601 634 608 644 606 634 b 597 655 601 634 600 634 m 718 327 l 718 318 l 700 301 b 718 327 700 311 711 323 m 345 304 b 327 283 345 294 336 288 b 345 304 327 293 338 304 m 355 483 b 375 498 358 486 366 498 b 358 479 375 490 362 481 l 355 483 m 581 818 b 590 815 584 815 587 815 b 597 818 593 815 594 815 l 581 794 l 581 818 m 648 248 b 658 247 648 252 658 250 b 652 236 658 244 655 237 b 648 248 648 240 648 244 m 638 327 l 652 325 l 641 313 l 638 327 m 665 125 b 669 125 668 126 669 125 l 672 120 b 665 109 672 116 670 109 l 665 125 m 620 612 b 606 591 616 604 613 597 b 620 612 606 602 615 606 m 718 115 b 705 101 718 106 712 101 b 718 115 705 105 713 112 m 369 697 l 355 683 b 369 697 355 693 361 697 m 287 334 b 279 326 287 329 284 326 b 287 334 279 331 281 334 m 658 186 b 662 179 662 184 662 181 b 658 172 662 176 662 173 l 658 186 m 725 252 l 711 233 b 725 252 711 241 720 250 m 358 662 l 362 659 l 355 651 b 358 662 355 658 355 661 m 415 1051 l 415 1045 l 405 1045 b 415 1051 405 1048 411 1050 m 683 283 b 683 276 687 283 687 276 b 683 283 679 276 679 283 m 597 733 b 593 723 597 726 597 723 b 597 733 593 729 593 731 m 648 483 b 648 476 652 483 652 476 b 648 483 645 476 645 483 m 581 1034 b 581 1027 586 1034 586 1027 b 581 1034 579 1027 579 1034 m 648 615 b 648 608 652 615 652 608 b 648 615 645 608 645 615 m 551 994 b 551 987 555 994 555 987 b 551 994 548 987 548 994 m 334 1054 b 334 1047 338 1054 338 1047 b 334 1054 331 1047 331 1054 m 320 276 b 309 263 319 272 315 266 b 320 276 312 269 316 273 m 376 541 b 376 533 379 541 379 533 b 376 541 373 533 373 541 m 573 1018 b 573 1011 576 1018 576 1011 b 573 1018 569 1011 569 1018 m 338 638 b 338 631 341 638 341 631 b 338 638 334 631 334 638 m 597 666 b 597 659 600 666 600 659 b 597 666 593 659 593 666 m 373 822 b 373 815 376 822 376 815 b 373 822 369 815 369 822 m 687 290 b 687 283 690 290 690 283 b 687 290 683 283 683 290 m 511 1075 b 502 1069 511 1072 505 1068 b 511 1075 501 1069 509 1077 m 694 297 b 694 290 695 297 695 290 b 694 297 690 290 690 297 m 286 233 b 277 223 286 229 281 223 l 286 233 m 338 601 b 338 595 341 601 341 595 b 338 601 334 595 334 601 m 400 625 b 400 619 404 625 404 619 b 400 625 397 619 397 625 m 393 476 b 393 470 397 476 397 470 b 393 476 390 470 390 476 m 711 405 b 711 400 713 405 713 400 b 711 405 706 400 706 405 m 690 573 b 690 568 694 573 694 568 b 690 573 687 568 687 573 m 376 561 l 379 556 b 376 548 379 555 377 550 l 376 561 m 331 625 b 327 622 333 623 330 620 b 331 625 326 623 330 626 m 334 591 b 331 588 336 590 333 587 b 334 591 329 588 334 594 m 331 659 b 331 655 333 658 333 655 b 331 659 329 655 329 659 m 445 1081 b 445 1077 447 1081 447 1079 b 445 1081 443 1077 443 1081 m 366 811 b 362 811 365 809 362 809 b 366 811 362 813 366 813 m 427 1069 b 427 1065 429 1068 429 1066 b 427 1069 425 1065 425 1069 m 579 838 l 583 837 b 579 838 581 833 579 836 m 423 479 b 423 476 426 479 426 476 b 423 479 422 475 422 480 m 294 240 b 300 250 295 244 297 247 l 294 240 m 616 518 l 615 509 b 615 513 615 511 613 511 b 616 518 615 515 616 516 m 727 186 b 725 179 727 184 729 184 l 727 186 m 497 1065 l 494 1058 b 497 1065 494 1062 497 1065 m 630 675 b 630 673 633 675 633 673 l 630 675 m 258 1230 b 268 1220 258 1222 265 1226 l 266 1215 b 340 1195 276 1206 323 1195 b 379 1212 356 1195 365 1204 b 425 1234 394 1220 413 1220 l 519 1330 b 537 1362 525 1333 536 1352 b 454 1409 538 1375 463 1409 b 386 1373 448 1409 394 1380 b 369 1361 380 1370 370 1362 b 320 1308 354 1348 333 1323 b 259 1234 311 1297 266 1245 l 258 1230 m 284 1238 b 300 1259 284 1247 295 1251 l 327 1294 l 355 1323 b 405 1362 368 1336 380 1362 b 437 1352 418 1362 426 1350 l 454 1343 b 334 1209 452 1323 347 1209 b 284 1238 315 1209 284 1218 m 445 1295 b 408 1252 444 1279 419 1266 b 380 1226 401 1244 394 1229 l 387 1237 b 445 1295 402 1254 441 1295 m 475 1341 b 468 1355 476 1347 476 1351 b 473 1356 469 1356 472 1356 l 488 1347 b 484 1338 488 1345 486 1340 l 468 1323 b 475 1341 469 1330 475 1334 m 420 1377 l 436 1381 b 429 1373 434 1377 429 1373 b 420 1377 429 1373 425 1375 m 486 1373 l 488 1377 l 494 1373 b 486 1373 493 1373 490 1372 m 436 1372 b 434 1368 437 1372 436 1368 b 436 1372 430 1368 431 1372 m 459 1316 b 459 1312 461 1316 461 1312 b 459 1316 456 1312 456 1316 "},"g":{"x_min":42.953125,"x_max":754.171875,"ha":796,"o":"m 161 -179 b 183 -230 170 -194 173 -215 b 401 -313 229 -304 320 -326 b 527 -270 450 -306 483 -288 b 570 -241 534 -255 558 -252 b 698 -106 593 -226 698 -130 b 695 -102 698 -106 698 -105 b 740 4 718 -97 737 -18 b 745 62 743 22 740 44 l 754 377 l 752 387 b 748 527 751 393 748 490 b 750 561 748 530 750 558 b 740 762 750 627 750 695 b 736 795 740 768 736 791 b 605 838 705 863 668 841 b 579 840 597 837 587 841 b 529 783 554 837 538 800 b 525 780 529 781 525 780 b 512 793 515 779 520 784 b 436 830 493 812 461 823 b 422 830 431 827 426 829 b 365 831 413 831 373 833 b 354 830 365 831 356 831 b 176 755 298 823 223 784 b 131 700 156 743 144 716 b 45 431 69 625 31 529 b 95 293 50 404 75 316 b 348 223 158 223 261 211 b 470 276 393 230 434 248 b 519 334 480 284 513 333 b 520 313 520 322 522 327 l 515 73 b 502 -62 508 29 509 -16 b 490 -86 502 -68 497 -83 b 479 -88 488 -87 479 -88 b 430 -112 461 -94 450 -109 b 366 -72 404 -116 370 -100 b 365 -65 366 -70 366 -66 l 369 18 b 368 25 369 18 368 23 b 322 48 365 47 340 48 b 272 58 305 51 290 61 b 175 -16 238 30 211 8 b 145 -98 137 -41 138 -52 b 147 -111 145 -101 147 -109 b 161 -179 148 -120 156 -168 m 166 -88 b 176 -44 165 -75 162 -52 b 195 -41 179 -44 193 -43 b 268 -55 215 -38 263 -31 b 270 -95 269 -68 268 -81 b 397 -200 281 -175 316 -211 b 448 -175 408 -195 441 -179 b 477 -155 451 -175 472 -161 b 519 -86 505 -136 506 -116 b 529 -70 519 -83 529 -72 b 526 -51 530 -69 526 -54 b 534 9 527 -37 526 -4 l 537 100 l 536 104 l 538 222 b 543 329 540 258 540 294 b 547 393 544 350 550 372 b 543 398 547 394 543 398 l 534 398 b 501 351 512 394 513 369 b 461 297 497 343 468 305 b 347 245 427 270 390 252 b 115 308 279 236 155 245 b 70 438 91 347 77 394 b 68 473 69 450 68 461 b 262 759 68 591 143 743 b 347 759 291 763 318 758 b 365 745 350 750 355 744 b 373 751 366 745 372 751 l 380 751 b 437 725 404 751 419 731 b 458 720 440 723 456 720 b 529 693 475 716 512 693 b 533 694 530 693 531 693 b 544 743 541 698 543 734 b 552 754 545 747 547 752 b 637 730 569 754 634 745 b 634 704 638 722 637 711 b 636 537 634 655 634 586 b 645 394 636 490 645 441 b 643 326 647 372 643 348 b 647 183 644 286 652 226 b 645 172 647 181 645 173 l 647 163 b 648 158 647 162 647 159 b 651 83 651 137 652 108 b 650 73 651 83 651 76 b 651 26 647 59 651 43 b 638 -68 650 -13 650 -30 b 637 -80 633 -70 637 -79 b 459 -273 623 -191 554 -236 b 400 -291 440 -281 420 -288 b 297 -284 366 -297 329 -295 b 166 -88 198 -247 181 -194 m 186 427 b 304 336 191 384 258 336 l 311 336 b 441 384 356 343 402 361 b 470 408 451 390 459 402 b 495 481 477 431 493 456 b 490 648 502 537 484 593 b 461 663 488 665 468 662 b 344 676 420 673 384 681 b 277 656 325 673 295 669 b 186 427 209 605 173 512 m 304 494 b 372 654 297 541 312 645 b 459 644 402 658 430 647 b 465 627 465 640 465 633 b 468 615 466 625 466 616 b 473 523 468 601 473 537 b 470 495 475 518 475 502 b 372 444 456 470 395 448 b 304 494 333 438 308 458 m 725 625 b 712 580 726 615 731 583 l 662 529 b 658 526 662 529 659 526 l 658 531 b 693 587 658 554 680 573 b 706 600 702 600 693 591 b 725 625 715 605 713 619 m 719 287 b 681 259 702 284 693 268 b 726 312 681 272 715 309 b 723 255 729 294 731 272 l 718 256 b 676 222 705 245 691 230 b 719 287 677 255 719 256 m 665 487 b 676 480 669 483 675 486 b 675 451 677 469 673 463 b 718 498 691 454 706 486 b 726 512 718 502 719 511 b 727 506 726 511 726 508 l 727 501 b 677 441 727 473 695 458 b 666 431 676 438 670 433 b 665 487 663 450 661 469 m 712 115 b 693 101 706 113 702 102 b 702 118 691 108 694 118 b 726 138 709 118 718 137 l 726 130 b 677 40 726 84 704 77 b 694 80 675 59 681 61 b 712 115 706 100 716 88 m 715 743 b 704 751 715 747 709 751 b 673 737 693 748 684 738 b 681 750 672 744 677 747 l 705 769 b 713 773 709 769 712 773 b 718 768 716 773 716 770 b 722 716 719 756 720 723 b 680 695 702 716 694 700 b 693 716 680 700 688 712 b 712 734 695 718 711 733 b 715 743 716 738 716 738 m 722 701 b 723 691 722 700 722 693 b 673 638 723 670 691 640 b 722 701 673 662 704 693 m 725 656 b 723 634 725 654 727 638 b 673 588 718 625 686 598 l 672 600 b 687 622 670 601 681 616 b 725 656 694 630 713 655 m 352 409 b 343 419 351 416 343 412 b 383 418 356 422 369 418 l 369 400 b 312 365 352 384 336 368 b 352 409 311 377 352 391 m 726 570 b 663 501 723 538 681 519 b 726 570 666 523 705 568 m 727 208 b 675 148 727 180 694 158 b 727 208 677 169 708 205 m 729 351 b 730 345 729 351 730 350 b 729 333 730 343 729 334 b 681 287 729 331 683 290 b 677 286 680 287 677 286 b 729 351 677 312 712 336 m 731 390 b 684 329 731 359 704 343 l 684 336 b 702 365 684 336 697 356 b 725 387 708 372 718 379 l 729 394 b 731 390 729 393 730 391 m 676 494 l 693 518 b 718 538 701 518 718 531 b 726 533 725 541 726 536 b 686 487 727 523 693 487 b 676 494 683 487 677 491 m 698 451 b 723 473 716 455 715 473 b 729 468 725 473 727 469 b 676 408 726 441 693 423 l 676 415 b 694 440 676 415 688 433 b 698 451 697 444 705 443 m 720 50 l 720 43 b 681 -13 720 16 700 5 b 720 50 681 2 702 47 m 461 454 b 459 441 466 458 459 444 b 406 409 459 441 409 411 b 401 406 405 408 402 406 l 401 420 b 461 454 402 423 454 454 m 722 248 b 680 191 730 220 700 206 b 676 187 681 190 677 187 b 722 248 675 197 716 238 m 706 422 b 730 443 715 431 725 441 b 673 379 731 430 686 380 b 687 404 677 390 684 387 b 704 420 687 402 695 411 b 708 415 702 418 705 415 b 706 422 711 416 711 422 m 320 -45 b 338 -37 327 -48 331 -37 b 301 -79 338 -61 319 -75 b 302 -72 300 -77 302 -73 b 320 -45 304 -68 318 -50 m 283 461 b 288 455 287 461 287 458 b 255 427 288 447 261 431 b 234 416 252 426 238 418 b 283 461 233 426 273 452 m 401 -137 b 413 -140 402 -137 413 -134 b 369 -165 409 -150 381 -163 b 401 -137 369 -150 388 -138 m 715 166 b 725 161 718 168 723 162 b 680 119 720 154 687 120 b 715 166 688 134 704 152 m 237 468 b 275 495 251 476 261 487 b 238 461 275 476 252 462 l 237 468 m 361 801 b 320 780 362 790 327 781 b 309 779 318 780 311 779 b 361 801 313 791 351 800 m 340 -127 b 354 -116 343 -125 350 -116 b 366 -119 358 -115 366 -119 b 341 -143 366 -131 350 -140 l 340 -127 m 243 512 b 252 522 243 516 251 518 b 258 531 254 522 256 530 l 259 536 b 265 531 259 534 262 533 b 275 540 268 531 275 537 l 276 536 b 245 509 276 515 255 516 b 243 512 244 509 244 509 m 344 0 b 343 -20 344 -8 345 -13 b 338 -18 343 -19 340 -18 b 330 -22 337 -19 331 -22 b 318 -27 329 -23 319 -26 b 344 0 318 -16 334 -1 m 304 434 b 313 430 305 434 311 433 b 286 416 311 420 294 418 l 280 416 b 304 434 284 426 291 433 m 675 -102 b 650 -131 670 -109 662 -130 b 651 -127 650 -131 650 -127 b 656 -105 651 -120 656 -105 l 675 -102 m 702 801 b 708 798 704 801 706 798 b 672 776 708 786 679 777 b 688 791 670 779 684 790 b 702 801 691 795 700 800 m 715 -4 b 694 -29 715 -18 705 -27 b 715 -4 694 -13 702 -5 m 618 768 b 645 783 618 780 638 781 b 623 763 643 777 630 765 b 618 768 620 763 618 766 m 501 730 b 518 750 518 737 508 740 b 522 745 518 750 522 747 b 519 726 522 740 518 727 b 515 725 518 726 516 725 b 501 730 511 725 505 726 m 223 530 b 236 529 226 530 233 533 b 213 512 231 523 220 512 b 223 530 212 520 216 529 m 283 -26 b 316 2 288 -12 306 -6 l 320 1 b 283 -26 318 0 291 -26 m 566 797 b 570 806 566 798 569 805 b 579 818 572 811 579 818 b 586 816 580 818 584 818 b 566 797 583 809 575 798 m 268 616 b 291 637 272 625 281 636 l 297 637 l 273 618 l 268 616 m 426 805 b 430 806 427 806 429 806 b 451 800 437 808 445 805 l 427 797 l 426 805 m 331 -168 b 348 -158 331 -166 345 -158 b 343 -175 352 -158 345 -175 l 331 -168 m 320 -130 b 308 -152 320 -137 313 -151 b 320 -130 306 -143 311 -134 m 338 -88 b 343 -91 341 -88 343 -91 b 326 -104 337 -94 333 -104 b 338 -88 326 -98 331 -90 m 311 -86 b 297 -104 311 -95 302 -98 b 311 -86 297 -100 304 -86 m 238 504 l 240 500 b 222 493 233 500 229 494 b 238 504 222 501 233 504 m 437 -147 l 438 -151 b 427 -159 438 -152 430 -158 l 422 -161 b 437 -147 425 -156 431 -148 m 723 70 b 711 56 725 62 719 58 b 723 70 715 65 716 69 m 334 418 b 320 402 333 411 327 406 b 334 418 323 409 327 418 m 561 788 b 555 775 562 783 562 776 b 561 788 554 779 555 788 m 275 412 b 277 408 275 412 277 409 b 263 401 275 405 268 402 b 275 412 265 402 270 412 m 481 744 l 488 745 l 490 738 l 481 737 l 481 744 m 452 -137 l 465 -131 b 454 -141 465 -138 456 -138 l 452 -137 m 584 773 b 591 779 586 777 588 779 l 593 770 b 584 773 590 770 586 772 m 283 583 b 275 572 283 579 277 575 b 283 583 273 577 279 583 m 695 383 b 690 373 697 379 694 375 b 695 383 688 379 691 383 m 297 794 b 298 787 301 794 301 788 b 297 794 294 787 293 794 m 475 790 b 475 783 477 791 477 784 b 475 790 470 783 470 790 m 241 577 b 236 569 243 575 238 572 b 241 577 234 575 237 577 m 647 -134 b 648 -141 652 -134 651 -140 b 647 -134 645 -141 645 -134 m 280 12 b 281 5 283 12 284 5 b 280 12 279 5 277 12 m 483 766 b 484 759 486 766 487 759 b 483 766 481 759 480 766 m 706 701 b 708 697 711 702 712 697 b 706 701 705 695 704 701 m 726 550 b 727 544 729 551 730 545 b 726 550 725 544 723 550 m 316 -108 b 318 -113 319 -108 320 -113 b 316 -108 315 -115 313 -109 m 676 -18 b 672 -27 677 -20 675 -27 b 676 -18 673 -25 673 -20 m 737 158 b 738 151 740 158 741 151 b 737 158 737 151 736 156 m 666 586 b 668 581 670 587 670 581 b 666 586 665 580 663 586 m 668 629 b 665 622 668 625 665 623 b 661 620 665 622 663 620 l 668 629 m 291 784 b 301 783 297 784 300 784 b 291 784 297 781 293 783 m 405 395 b 409 395 406 397 408 395 b 405 391 408 395 406 391 b 405 395 402 393 405 394 m 681 94 l 688 95 b 681 94 688 93 686 91 m 226 437 b 226 433 227 437 227 436 b 226 437 223 433 223 437 m 727 320 b 727 316 730 319 730 318 b 727 320 726 316 726 320 m 266 379 b 262 379 266 376 265 376 b 266 379 262 380 266 380 "},"ë":{"x_min":41.671875,"x_max":752.296875,"ha":794,"o":"m 347 -2 b 415 -4 369 0 391 -4 b 625 55 493 -1 559 15 b 723 177 640 77 725 151 b 636 266 719 213 665 256 b 612 270 627 266 619 272 b 541 234 587 270 561 245 b 440 205 509 213 479 205 b 334 293 401 205 338 251 b 337 304 334 298 334 300 b 355 308 340 305 352 308 l 362 308 b 436 313 370 308 427 312 b 511 312 443 313 504 312 b 538 313 512 312 531 313 b 680 355 597 315 627 331 b 706 369 683 355 701 366 b 751 495 745 394 755 452 b 594 763 741 594 691 716 b 512 786 568 776 540 780 b 465 790 497 788 480 791 b 306 755 415 788 350 784 b 294 748 304 754 295 748 b 201 701 262 734 229 723 b 50 472 129 644 80 559 b 41 379 47 458 41 394 b 44 352 41 379 44 359 b 66 219 47 326 54 243 b 113 147 76 194 97 170 b 286 15 166 80 209 44 b 347 -2 305 9 333 13 m 66 351 b 65 384 65 362 65 373 b 215 677 65 502 126 608 b 366 723 236 697 331 722 b 497 691 422 725 451 720 b 611 556 550 659 587 619 b 630 463 618 523 629 495 b 630 387 633 437 631 415 b 533 336 627 338 572 336 l 522 336 b 480 337 511 334 483 337 b 440 338 477 337 444 338 b 426 334 438 338 427 336 b 340 327 402 331 366 336 l 206 323 b 198 327 205 325 200 327 b 179 313 190 327 179 322 b 184 294 179 312 183 300 b 197 250 184 288 197 254 b 320 127 211 204 275 147 b 394 109 341 118 373 109 b 526 136 437 111 488 118 l 556 154 b 593 172 565 158 581 172 b 636 119 609 172 636 134 b 637 113 637 118 637 113 b 412 18 601 33 491 20 l 406 18 b 181 104 331 18 238 47 b 66 351 100 183 77 241 m 190 450 l 194 409 b 215 404 194 402 212 404 l 227 404 b 325 411 236 405 313 411 b 358 408 327 411 354 409 b 402 413 375 408 388 413 l 412 413 b 444 411 416 412 440 411 b 454 415 445 411 452 415 b 513 418 462 415 504 416 b 530 488 538 427 531 468 b 529 501 530 490 529 500 b 484 593 504 526 506 565 b 377 627 465 618 402 627 b 216 508 295 625 250 575 b 190 450 208 491 204 462 m 344 498 b 341 516 344 501 341 513 b 383 604 337 552 341 604 b 498 512 443 604 493 569 l 498 500 b 450 494 481 495 469 495 b 344 498 416 494 377 491 m 491 179 l 490 186 b 616 244 523 194 593 243 b 661 218 629 244 659 233 b 644 208 661 211 648 208 l 643 227 l 626 227 l 626 222 b 608 198 626 206 619 215 l 606 202 b 626 233 606 212 618 227 b 620 237 625 234 622 237 b 593 229 619 237 597 237 l 552 180 l 538 175 b 552 190 543 179 552 183 b 541 201 552 191 547 201 b 462 155 523 200 488 162 b 465 165 461 161 462 163 b 491 179 469 168 487 177 m 481 444 b 477 456 481 450 479 455 l 456 455 b 481 472 456 466 473 472 b 506 463 493 472 505 477 b 504 440 506 462 509 441 l 479 440 b 481 444 481 443 481 444 m 250 254 b 277 286 258 262 275 273 l 304 304 l 309 304 b 250 254 308 280 272 254 m 229 234 l 241 248 b 258 229 250 245 244 229 b 305 256 277 229 284 255 b 251 211 306 256 255 212 b 229 234 251 211 248 211 m 312 527 b 269 479 312 504 287 480 b 272 493 261 479 268 488 b 312 527 276 511 298 511 m 326 593 b 269 543 312 573 287 556 l 268 548 b 287 572 268 551 281 566 b 326 593 295 577 319 593 m 406 469 b 418 470 409 469 416 469 b 437 468 425 470 431 473 l 402 450 l 397 450 b 406 469 401 455 405 463 m 687 616 b 700 595 694 616 697 602 b 684 588 700 588 691 588 l 681 613 b 687 616 681 613 684 616 m 209 301 l 237 301 b 211 281 233 295 222 281 l 209 301 m 359 144 b 381 152 359 152 376 152 b 375 137 381 145 384 137 b 359 144 370 137 362 137 m 543 740 l 548 740 b 563 731 552 740 562 740 b 545 725 563 729 551 725 l 543 740 m 693 562 b 702 568 694 568 698 568 b 712 552 709 568 711 558 l 712 545 l 693 562 m 401 188 b 381 172 401 177 388 172 l 376 172 b 401 188 383 180 390 187 m 322 213 b 343 227 326 219 334 227 b 334 218 351 223 337 219 b 329 211 334 216 330 211 b 322 213 327 211 322 213 m 448 181 b 425 163 447 172 436 163 b 448 181 429 166 438 181 m 316 563 b 306 544 316 558 316 545 l 305 548 b 316 563 305 558 311 562 m 323 155 b 330 161 326 156 327 161 l 343 170 b 331 151 340 162 336 155 b 327 151 329 150 327 150 b 323 155 326 151 325 152 m 648 179 b 675 205 652 179 672 202 l 676 201 b 661 183 676 201 665 188 b 651 177 659 181 652 177 b 648 179 651 176 648 176 m 706 487 b 723 490 713 488 719 490 l 723 476 b 706 487 719 476 711 486 m 277 302 l 284 302 b 261 295 281 295 269 295 b 277 302 261 302 273 302 m 354 468 b 362 473 355 473 359 473 b 370 468 365 473 370 473 b 361 465 366 465 363 465 b 354 468 358 465 355 465 m 365 754 b 352 747 365 747 358 747 b 347 745 351 747 348 745 b 365 754 348 752 359 754 m 669 662 b 652 655 669 655 659 655 b 669 662 652 662 663 662 m 713 541 b 700 533 713 533 704 533 b 713 541 700 541 708 541 m 265 540 b 254 526 265 531 259 527 b 265 540 254 533 259 540 m 698 400 b 683 384 695 393 691 384 b 698 400 680 384 691 395 m 616 694 b 622 690 618 694 620 691 b 612 687 619 690 613 688 l 606 687 b 616 694 606 693 613 694 m 715 463 b 723 468 716 466 719 468 b 719 459 723 465 722 459 b 715 463 718 459 715 462 m 504 751 l 515 751 l 516 744 b 504 751 513 745 508 747 m 661 379 b 655 370 663 372 659 370 b 661 379 654 376 656 379 m 491 156 b 480 148 491 152 486 148 b 491 156 479 148 486 155 m 323 201 b 323 194 327 201 327 194 b 323 201 319 194 319 201 m 297 470 b 297 463 301 470 301 463 b 297 470 293 463 293 470 m 309 475 b 309 466 313 475 313 466 b 309 475 306 466 306 475 m 295 538 b 287 530 295 531 291 530 b 295 538 287 530 284 530 m 626 190 b 626 183 630 190 630 183 b 626 190 623 183 623 190 m 340 190 b 341 184 344 190 345 184 b 340 190 337 184 336 190 m 434 156 b 434 150 437 156 437 150 b 434 156 430 150 430 156 m 656 395 b 658 388 659 395 661 388 b 656 395 654 388 652 395 m 666 137 b 666 130 669 137 669 130 b 666 137 662 130 662 137 m 704 516 l 715 516 b 704 516 712 512 706 512 m 604 733 b 605 727 608 733 609 727 b 604 733 602 727 601 733 m 420 748 b 420 741 423 748 423 741 b 420 748 418 741 418 748 m 525 169 b 525 162 527 169 527 162 b 525 169 522 162 522 169 m 263 509 b 265 502 266 509 268 502 b 263 509 262 502 261 509 m 487 763 b 487 758 491 763 491 758 b 487 763 484 758 484 763 m 495 763 b 495 758 498 763 498 758 b 495 763 491 758 491 763 m 411 748 b 411 744 413 748 413 745 b 411 748 408 744 406 750 m 337 741 b 330 738 337 738 334 738 b 337 741 327 738 334 741 m 312 491 b 308 487 312 488 311 487 b 312 491 306 488 311 493 m 236 455 b 230 455 236 452 234 452 b 236 455 229 456 234 456 m 277 454 b 276 450 279 451 277 450 b 277 454 272 450 275 452 m 272 193 b 269 193 272 190 270 190 b 272 193 269 195 275 195 m 677 152 b 675 144 679 152 679 152 b 677 152 675 145 676 150 m 359 202 b 361 198 363 201 361 200 b 359 202 356 200 358 201 m 236 481 l 229 472 b 236 481 230 476 233 481 m 347 436 b 343 436 347 433 345 433 b 347 436 343 437 347 437 m 384 756 b 381 754 384 754 383 754 b 384 756 380 754 381 756 m 641 173 b 641 170 644 173 644 172 b 641 173 640 170 640 175 m 601 647 b 598 643 601 645 600 643 b 601 647 598 643 597 644 m 256 473 b 254 469 256 472 254 470 b 256 473 252 469 251 469 m 722 440 l 713 437 b 722 440 716 438 718 440 m 423 956 b 501 890 423 923 466 890 b 555 904 520 890 537 898 b 643 991 600 916 643 943 b 605 1070 643 1033 627 1040 b 579 1079 601 1080 584 1069 b 562 1080 576 1079 565 1080 b 448 1026 512 1080 481 1059 b 429 998 440 1019 433 1008 b 423 956 425 986 423 970 m 150 965 b 234 895 166 927 187 895 b 369 998 300 895 369 927 b 344 1056 369 1033 354 1033 b 341 1059 344 1058 343 1059 b 283 1068 323 1062 302 1068 b 222 1061 263 1068 241 1069 b 150 975 188 1047 150 1013 l 150 965 m 440 961 b 445 998 440 973 440 987 b 498 1047 451 1011 481 1047 l 541 1047 b 584 995 566 1047 584 1018 b 526 911 584 958 565 922 b 498 906 518 909 504 911 b 440 961 470 911 440 929 m 166 979 b 238 1043 166 1011 205 1043 b 305 983 280 1043 305 1023 l 305 966 b 302 959 304 965 302 961 b 236 911 295 933 266 911 b 166 979 198 911 166 943 m 600 995 b 613 988 608 995 613 994 b 600 977 613 981 606 977 l 600 995 m 613 1036 b 619 1026 616 1036 619 1029 l 602 1026 b 613 1036 604 1030 609 1036 m 280 1051 b 287 1052 281 1051 286 1052 b 302 1050 294 1052 297 1051 b 295 1047 300 1047 300 1047 b 280 1051 291 1047 283 1047 m 315 934 b 301 923 313 929 308 923 b 315 934 301 929 309 934 m 586 940 b 581 929 593 937 584 930 b 586 940 581 936 583 937 m 323 994 b 329 990 326 993 329 991 l 323 980 l 323 994 m 323 970 b 327 966 327 970 327 969 b 323 961 327 963 326 961 l 323 970 m 623 1012 l 626 1005 l 618 1005 b 623 1012 618 1008 622 1011 m 572 1051 b 581 1056 573 1055 579 1056 b 572 1051 581 1052 576 1050 m 338 1026 l 344 1026 l 344 1020 b 338 1026 341 1020 338 1023 m 318 945 b 315 937 318 941 318 938 b 318 945 315 943 315 944 m 337 956 b 337 951 338 956 338 951 b 337 956 334 951 334 956 m 550 1061 l 559 1063 b 550 1061 556 1059 552 1059 m 611 954 b 611 951 613 954 613 951 b 611 954 608 951 608 954 m 350 990 l 350 984 b 350 990 347 987 347 988 m 600 966 l 597 959 b 600 966 597 963 597 965 m 318 1023 b 318 1019 319 1023 319 1019 b 318 1023 316 1019 316 1025 "},"Î":{"x_min":-8.5625,"x_max":398.609375,"ha":388,"o":"m 43 13 b 116 2 61 -1 94 2 l 138 2 l 144 8 l 208 8 b 243 44 213 8 240 38 l 279 119 b 311 179 288 138 304 156 b 318 206 311 181 316 204 b 327 231 322 222 327 212 b 319 233 327 237 320 233 b 318 262 319 238 316 258 b 323 276 318 265 323 276 b 318 287 323 281 318 280 b 320 305 318 293 319 304 b 318 334 320 316 318 323 b 320 509 318 393 322 450 b 327 587 330 525 326 569 l 327 627 b 334 675 327 636 333 668 l 334 801 b 338 804 334 802 337 804 b 345 808 338 804 345 806 b 343 830 345 815 343 829 b 338 833 341 830 338 833 l 338 1011 b 320 1072 338 1033 331 1054 b 230 1095 290 1083 261 1093 b 208 1100 225 1097 209 1100 b 198 1111 206 1100 200 1109 b 151 1079 193 1111 156 1081 b 79 1033 126 1062 102 1051 b 63 1011 72 1029 63 1020 b 70 895 63 975 70 934 b 56 691 70 827 62 759 b 54 354 48 581 56 461 b 47 252 54 344 47 262 b 47 83 45 226 45 108 b 43 40 41 70 43 54 l 43 13 m 63 55 b 75 390 63 166 73 277 b 81 706 76 495 73 600 b 91 830 83 718 91 816 b 91 983 93 852 93 961 b 125 998 91 1002 115 998 l 144 998 b 226 980 144 994 218 986 b 227 955 226 977 227 959 b 218 911 227 934 218 926 b 223 893 218 904 223 900 b 206 856 223 879 206 872 b 219 836 206 847 208 843 l 219 758 l 211 709 l 204 558 b 201 498 202 533 206 520 l 201 298 b 190 276 200 295 193 279 b 198 256 190 266 198 265 b 194 161 198 225 194 193 b 202 56 194 127 202 91 b 201 44 202 54 201 44 b 198 38 201 43 198 38 l 166 30 l 70 30 b 68 34 70 30 68 33 b 63 55 66 38 63 52 m 113 1022 b 159 1054 115 1037 148 1045 b 198 1075 175 1066 176 1075 l 198 1068 b 166 1043 198 1066 175 1050 l 138 1026 b 123 1019 134 1023 125 1019 b 113 1022 122 1018 115 1020 m 311 830 b 263 755 311 804 261 759 l 240 730 b 263 766 240 769 255 748 b 311 830 270 779 291 830 m 306 738 b 311 734 308 737 309 734 b 261 677 311 708 276 695 b 306 738 261 702 291 726 m 313 938 l 313 911 b 254 881 290 906 275 881 b 313 938 265 898 301 920 m 302 566 b 261 515 301 534 286 536 b 258 519 256 516 258 519 l 268 534 b 302 566 276 543 298 566 m 311 886 l 311 876 b 302 861 311 866 311 866 b 279 843 295 855 279 843 l 270 843 b 311 886 280 861 294 875 m 302 615 b 304 606 302 613 304 608 b 266 565 304 591 281 565 b 302 615 266 583 298 597 m 295 450 l 295 440 b 291 427 295 431 297 431 b 263 406 284 422 263 406 l 258 406 b 295 450 269 422 283 437 m 300 977 b 311 973 305 977 309 977 b 270 941 300 962 287 947 b 300 977 277 956 290 969 m 268 191 b 263 181 268 188 265 183 b 240 158 258 175 240 158 l 234 158 b 268 191 234 163 261 190 m 286 223 b 290 218 290 222 290 219 b 279 200 287 209 280 200 l 272 200 b 286 223 272 209 276 219 m 286 675 l 306 691 b 308 686 306 690 308 686 b 286 669 308 673 295 669 l 286 675 m 243 101 b 226 66 234 94 237 72 l 226 75 b 243 101 226 84 230 101 m 302 643 b 304 638 302 643 304 640 b 286 618 304 630 294 618 b 302 643 288 627 294 636 m 279 294 l 290 294 b 268 273 284 286 277 276 l 279 294 m 251 1065 b 231 1047 251 1052 240 1050 b 251 1065 233 1058 240 1061 m 162 1022 b 180 1030 165 1029 175 1026 l 180 1018 b 162 1022 173 1018 168 1018 m 259 808 b 245 788 258 804 252 788 b 259 808 245 798 247 808 m 268 319 b 291 336 283 330 270 327 l 275 315 b 268 319 270 316 268 318 m 251 668 b 234 650 248 661 244 650 b 251 668 234 656 241 666 m 291 363 l 291 358 l 275 347 b 291 363 275 355 287 363 m 295 401 b 283 386 295 394 290 388 b 295 401 283 394 287 401 m 234 443 b 222 423 230 437 229 429 b 234 443 222 433 225 443 m 231 697 b 240 708 231 701 234 708 l 240 702 b 236 691 238 701 237 693 b 231 697 234 691 233 694 m 311 775 b 300 762 311 768 305 762 b 311 775 298 766 304 775 m 286 505 l 295 519 l 295 513 b 290 502 295 509 295 505 b 286 505 288 502 286 505 m 255 858 b 245 850 255 852 251 850 b 255 858 245 855 250 858 m 306 1015 b 309 1011 308 1015 309 1012 b 311 1005 313 1011 313 1005 b 308 1008 308 1005 308 1006 b 306 1015 302 1008 302 1015 m 226 404 b 226 395 230 404 230 395 b 226 404 222 395 222 404 m 286 262 b 286 255 290 262 290 255 b 286 262 281 255 281 262 m 247 509 b 247 502 251 509 251 502 b 247 509 243 502 243 509 m 251 587 b 251 579 254 587 254 579 b 251 587 247 579 247 587 m 281 466 b 281 459 286 466 286 459 b 281 466 279 459 279 466 m 240 498 b 240 491 243 498 243 491 b 240 498 236 491 236 498 m 279 663 b 279 656 281 663 281 656 b 279 663 275 656 275 663 m 275 163 b 275 158 279 163 279 158 b 275 163 270 158 270 163 m 231 234 b 231 227 236 234 236 227 b 231 234 230 227 230 234 m 258 266 l 261 270 l 263 266 l 261 262 l 258 266 m 263 600 b 263 594 268 600 268 594 b 263 600 261 594 261 600 m 270 379 b 263 368 273 377 266 369 l 270 379 m 230 569 b 230 558 233 566 233 559 l 230 569 m 231 487 b 231 481 236 487 236 481 b 231 487 230 481 230 487 m 263 477 l 254 466 b 263 477 255 472 262 477 m 247 351 b 247 347 250 351 250 348 b 247 351 244 347 244 351 m 236 530 b 231 526 237 527 234 526 b 236 530 231 527 234 533 m 268 638 b 263 636 269 637 266 634 b 268 638 262 636 266 641 m 263 870 b 261 868 265 869 262 866 b 263 870 259 869 262 873 m 236 1015 b 231 1008 236 1011 233 1008 l 236 1015 m 4 1158 b 56 1127 8 1158 52 1130 b 63 1130 59 1127 63 1129 b 86 1143 69 1131 83 1141 b 156 1158 95 1143 144 1151 b 206 1219 168 1166 193 1219 l 230 1198 b 258 1175 238 1193 258 1175 l 263 1172 l 301 1141 l 305 1138 b 313 1141 309 1138 312 1140 l 337 1158 b 356 1168 356 1155 347 1168 b 362 1165 359 1168 361 1165 l 362 1176 b 398 1216 376 1186 398 1198 b 397 1222 398 1218 397 1220 b 365 1262 387 1237 377 1248 b 343 1284 359 1263 347 1280 l 333 1302 l 301 1330 b 233 1402 297 1333 243 1402 b 176 1387 215 1402 190 1393 b 101 1312 141 1384 118 1334 l 86 1291 b 47 1250 77 1280 54 1262 l -5 1201 b -8 1187 -9 1197 -8 1193 l -8 1181 b 4 1158 -6 1177 1 1162 m 11 1186 b 33 1218 11 1195 25 1209 l 73 1251 b 130 1325 95 1273 109 1302 b 163 1362 141 1337 154 1348 b 333 1183 194 1362 333 1205 b 306 1163 326 1173 318 1163 b 227 1226 293 1163 237 1216 b 206 1247 233 1237 215 1244 l 180 1279 b 54 1150 148 1279 90 1166 b 11 1186 47 1154 11 1177 m 194 1233 b 173 1211 194 1225 181 1215 b 170 1218 173 1212 170 1216 b 154 1208 162 1218 154 1213 b 122 1195 148 1206 130 1195 b 194 1233 122 1215 177 1233 m 227 1366 b 236 1376 227 1370 231 1376 b 258 1348 240 1370 258 1354 b 255 1345 258 1347 256 1345 b 243 1356 248 1345 252 1355 b 227 1366 236 1358 227 1358 m 159 1241 b 170 1254 159 1243 166 1254 b 183 1244 173 1254 181 1247 b 173 1240 181 1243 175 1240 b 159 1241 165 1238 162 1240 m 320 1236 b 343 1241 330 1233 336 1238 b 337 1225 343 1234 337 1230 b 340 1213 337 1219 340 1218 b 320 1236 333 1218 325 1233 m 369 1205 b 350 1193 369 1195 356 1193 b 369 1205 350 1201 359 1205 m 201 1369 b 216 1381 201 1373 215 1381 b 205 1365 216 1376 211 1365 b 201 1369 202 1365 201 1368 m 280 1284 b 294 1294 284 1291 288 1294 b 284 1281 294 1290 290 1281 l 280 1284 m 311 1247 b 326 1255 313 1250 319 1255 b 315 1244 326 1251 319 1244 b 311 1247 312 1244 311 1247 m 368 1227 b 375 1220 370 1227 375 1223 b 365 1218 375 1218 368 1218 b 368 1227 361 1218 365 1227 m 298 1268 b 305 1273 298 1269 304 1272 b 308 1270 306 1273 308 1272 b 302 1259 308 1270 305 1262 b 298 1268 301 1261 298 1265 m 272 1334 b 277 1330 273 1333 277 1331 b 268 1323 276 1325 273 1323 b 272 1334 268 1326 269 1330 m 312 1297 b 305 1287 312 1293 311 1290 b 312 1297 305 1293 306 1297 m 112 1180 b 104 1175 112 1175 108 1175 b 112 1180 104 1179 106 1180 m 327 1276 b 327 1270 330 1276 330 1270 b 327 1276 325 1270 325 1276 m 263 1345 b 263 1341 266 1345 266 1341 b 263 1345 261 1341 261 1345 m 186 1244 b 186 1240 188 1244 188 1240 b 186 1244 183 1240 183 1244 m 126 1186 b 126 1181 129 1186 129 1181 b 126 1186 123 1181 123 1186 m 266 1305 b 266 1301 269 1305 269 1301 b 266 1305 263 1301 263 1305 m 94 1163 b 94 1158 95 1163 95 1158 b 94 1163 91 1158 91 1163 m 293 1312 b 290 1306 294 1308 293 1306 b 293 1312 290 1309 290 1311 m 133 1168 b 125 1163 131 1163 129 1163 l 133 1168 m 251 1327 l 251 1322 b 251 1327 248 1323 250 1327 m 233 1341 b 233 1336 236 1340 234 1337 l 233 1341 "},"e":{"x_min":41.671875,"x_max":752.296875,"ha":794,"o":"m 347 -2 b 415 -4 369 0 391 -4 b 625 55 493 -1 559 15 b 723 177 640 77 725 151 b 636 266 719 213 665 256 b 612 270 627 266 619 272 b 541 234 587 270 561 245 b 440 205 509 213 479 205 b 334 293 401 205 338 251 b 337 304 334 298 334 300 b 355 308 340 305 352 308 l 362 308 b 436 313 370 308 427 312 b 511 312 443 313 504 312 b 538 313 512 312 531 313 b 680 355 597 315 627 331 b 706 369 683 355 701 366 b 751 495 745 394 755 452 b 594 763 741 594 691 716 b 512 786 568 776 540 780 b 465 790 497 788 480 791 b 306 755 415 788 350 784 b 294 748 304 754 295 748 b 201 701 262 734 229 723 b 50 472 129 644 80 559 b 41 379 47 458 41 394 b 44 352 41 379 44 359 b 66 219 47 326 54 243 b 113 147 76 194 97 170 b 286 15 166 80 209 44 b 347 -2 305 9 333 13 m 66 351 b 65 384 65 362 65 373 b 215 677 65 502 126 608 b 366 723 236 697 331 722 b 497 691 422 725 451 720 b 611 556 550 659 587 619 b 630 463 618 523 629 495 b 630 387 633 437 631 415 b 533 336 627 338 572 336 l 522 336 b 480 337 511 334 483 337 b 440 338 477 337 444 338 b 426 334 438 338 427 336 b 340 327 402 331 366 336 l 206 323 b 198 327 205 325 200 327 b 179 313 190 327 179 322 b 184 294 179 312 183 300 b 197 250 184 288 197 254 b 320 127 211 204 275 147 b 394 109 341 118 373 109 b 526 136 437 111 488 118 l 556 154 b 593 172 565 158 581 172 b 636 119 609 172 636 134 b 637 113 637 118 637 113 b 412 18 601 33 491 20 l 406 18 b 181 104 331 18 238 47 b 66 351 100 183 77 241 m 190 450 l 194 409 b 215 404 194 402 212 404 l 227 404 b 325 411 236 405 313 411 b 358 408 327 411 354 409 b 402 413 375 408 388 413 l 412 413 b 444 411 416 412 440 411 b 454 415 445 411 452 415 b 513 418 462 415 504 416 b 530 488 538 427 531 468 b 529 501 530 490 529 500 b 484 593 504 526 506 565 b 377 627 465 618 402 627 b 216 508 295 625 250 575 b 190 450 208 491 204 462 m 344 498 b 341 516 344 501 341 513 b 383 604 337 552 341 604 b 498 512 443 604 493 569 l 498 500 b 450 494 481 495 469 495 b 344 498 416 494 377 491 m 491 179 l 490 186 b 616 244 523 194 593 243 b 661 218 629 244 659 233 b 644 208 661 211 648 208 l 643 227 l 626 227 l 626 222 b 608 198 626 206 619 215 l 606 202 b 626 233 606 212 618 227 b 620 237 625 234 622 237 b 593 229 619 237 597 237 l 552 180 l 538 175 b 552 190 543 179 552 183 b 541 201 552 191 547 201 b 462 155 523 200 488 162 b 465 165 461 161 462 163 b 491 179 469 168 487 177 m 481 444 b 477 456 481 450 479 455 l 456 455 b 481 472 456 466 473 472 b 506 463 493 472 505 477 b 504 440 506 462 509 441 l 479 440 b 481 444 481 443 481 444 m 250 254 b 277 286 258 262 275 273 l 304 304 l 309 304 b 250 254 308 280 272 254 m 229 234 l 241 248 b 258 229 250 245 244 229 b 305 256 277 229 284 255 b 251 211 306 256 255 212 b 229 234 251 211 248 211 m 312 527 b 269 479 312 504 287 480 b 272 493 261 479 268 488 b 312 527 276 511 298 511 m 326 593 b 269 543 312 573 287 556 l 268 548 b 287 572 268 551 281 566 b 326 593 295 577 319 593 m 406 469 b 418 470 409 469 416 469 b 437 468 425 470 431 473 l 402 450 l 397 450 b 406 469 401 455 405 463 m 687 616 b 700 595 694 616 697 602 b 684 588 700 588 691 588 l 681 613 b 687 616 681 613 684 616 m 209 301 l 237 301 b 211 281 233 295 222 281 l 209 301 m 359 144 b 381 152 359 152 376 152 b 375 137 381 145 384 137 b 359 144 370 137 362 137 m 543 740 l 548 740 b 563 731 552 740 562 740 b 545 725 563 729 551 725 l 543 740 m 693 562 b 702 568 694 568 698 568 b 712 552 709 568 711 558 l 712 545 l 693 562 m 401 188 b 381 172 401 177 388 172 l 376 172 b 401 188 383 180 390 187 m 322 213 b 343 227 326 219 334 227 b 334 218 351 223 337 219 b 329 211 334 216 330 211 b 322 213 327 211 322 213 m 448 181 b 425 163 447 172 436 163 b 448 181 429 166 438 181 m 316 563 b 306 544 316 558 316 545 l 305 548 b 316 563 305 558 311 562 m 323 155 b 330 161 326 156 327 161 l 343 170 b 331 151 340 162 336 155 b 327 151 329 150 327 150 b 323 155 326 151 325 152 m 648 179 b 675 205 652 179 672 202 l 676 201 b 661 183 676 201 665 188 b 651 177 659 181 652 177 b 648 179 651 176 648 176 m 706 487 b 723 490 713 488 719 490 l 723 476 b 706 487 719 476 711 486 m 277 302 l 284 302 b 261 295 281 295 269 295 b 277 302 261 302 273 302 m 354 468 b 362 473 355 473 359 473 b 370 468 365 473 370 473 b 361 465 366 465 363 465 b 354 468 358 465 355 465 m 365 754 b 352 747 365 747 358 747 b 347 745 351 747 348 745 b 365 754 348 752 359 754 m 669 662 b 652 655 669 655 659 655 b 669 662 652 662 663 662 m 713 541 b 700 533 713 533 704 533 b 713 541 700 541 708 541 m 265 540 b 254 526 265 531 259 527 b 265 540 254 533 259 540 m 698 400 b 683 384 695 393 691 384 b 698 400 680 384 691 395 m 616 694 b 622 690 618 694 620 691 b 612 687 619 690 613 688 l 606 687 b 616 694 606 693 613 694 m 715 463 b 723 468 716 466 719 468 b 719 459 723 465 722 459 b 715 463 718 459 715 462 m 504 751 l 515 751 l 516 744 b 504 751 513 745 508 747 m 661 379 b 655 370 663 372 659 370 b 661 379 654 376 656 379 m 491 156 b 480 148 491 152 486 148 b 491 156 479 148 486 155 m 323 201 b 323 194 327 201 327 194 b 323 201 319 194 319 201 m 297 470 b 297 463 301 470 301 463 b 297 470 293 463 293 470 m 309 475 b 309 466 313 475 313 466 b 309 475 306 466 306 475 m 295 538 b 287 530 295 531 291 530 b 295 538 287 530 284 530 m 626 190 b 626 183 630 190 630 183 b 626 190 623 183 623 190 m 340 190 b 341 184 344 190 345 184 b 340 190 337 184 336 190 m 434 156 b 434 150 437 156 437 150 b 434 156 430 150 430 156 m 656 395 b 658 388 659 395 661 388 b 656 395 654 388 652 395 m 666 137 b 666 130 669 137 669 130 b 666 137 662 130 662 137 m 704 516 l 715 516 b 704 516 712 512 706 512 m 604 733 b 605 727 608 733 609 727 b 604 733 602 727 601 733 m 420 748 b 420 741 423 748 423 741 b 420 748 418 741 418 748 m 525 169 b 525 162 527 169 527 162 b 525 169 522 162 522 169 m 263 509 b 265 502 266 509 268 502 b 263 509 262 502 261 509 m 487 763 b 487 758 491 763 491 758 b 487 763 484 758 484 763 m 495 763 b 495 758 498 763 498 758 b 495 763 491 758 491 763 m 411 748 b 411 744 413 748 413 745 b 411 748 408 744 406 750 m 337 741 b 330 738 337 738 334 738 b 337 741 327 738 334 741 m 312 491 b 308 487 312 488 311 487 b 312 491 306 488 311 493 m 236 455 b 230 455 236 452 234 452 b 236 455 229 456 234 456 m 277 454 b 276 450 279 451 277 450 b 277 454 272 450 275 452 m 272 193 b 269 193 272 190 270 190 b 272 193 269 195 275 195 m 677 152 b 675 144 679 152 679 152 b 677 152 675 145 676 150 m 359 202 b 361 198 363 201 361 200 b 359 202 356 200 358 201 m 236 481 l 229 472 b 236 481 230 476 233 481 m 347 436 b 343 436 347 433 345 433 b 347 436 343 437 347 437 m 384 756 b 381 754 384 754 383 754 b 384 756 380 754 381 756 m 641 173 b 641 170 644 173 644 172 b 641 173 640 170 640 175 m 601 647 b 598 643 601 645 600 643 b 601 647 598 643 597 644 m 256 473 b 254 469 256 472 254 470 b 256 473 252 469 251 469 m 722 440 l 713 437 b 722 440 716 438 718 440 "},"Ã":{"x_min":41.671875,"x_max":755.5625,"ha":797,"o":"m 611 1 b 620 -6 615 1 620 -1 b 630 0 620 -8 626 0 b 652 -2 633 1 650 -2 b 672 29 669 -2 670 22 l 687 29 b 755 134 693 30 751 120 l 755 162 b 751 236 755 187 751 211 b 755 252 751 243 755 248 b 748 263 755 258 755 259 l 748 275 b 736 381 748 311 731 347 b 741 395 736 383 740 394 b 731 423 741 401 731 411 b 736 443 731 430 736 434 l 729 443 b 731 473 729 455 731 462 l 725 473 b 716 519 720 487 716 504 b 718 530 716 520 718 529 b 726 541 720 531 726 536 l 713 541 b 711 588 713 548 711 580 b 713 598 711 593 713 598 l 711 604 l 690 784 l 690 794 l 672 929 l 672 936 b 679 947 673 937 679 945 l 676 952 b 679 959 676 954 679 959 b 668 962 679 966 668 962 b 651 1041 668 994 666 1013 b 537 1119 618 1104 606 1109 b 476 1125 531 1120 488 1125 l 469 1125 b 462 1129 468 1126 462 1129 b 445 1125 459 1129 447 1126 l 436 1125 b 400 1133 423 1125 412 1133 b 376 1125 393 1133 381 1127 l 334 1125 b 283 1077 312 1113 301 1091 b 227 1041 263 1066 241 1058 b 176 747 212 943 194 845 b 173 733 176 745 173 736 l 102 365 l 102 354 b 93 304 102 350 94 308 b 86 256 93 300 87 261 b 83 247 86 254 83 248 b 52 98 77 225 56 120 b 41 23 51 90 43 38 l 41 16 b 55 2 41 6 44 2 b 116 9 73 2 98 9 b 222 -2 151 9 187 -2 b 272 33 230 5 261 27 b 297 40 275 34 295 38 b 306 51 298 40 304 48 b 313 61 306 52 312 59 b 366 87 325 68 361 73 b 369 137 370 100 369 126 l 369 155 l 366 162 b 365 186 366 162 365 180 b 376 325 365 229 362 281 b 388 327 379 329 384 327 b 455 306 398 327 454 318 b 506 2 476 206 481 102 b 525 -2 508 -1 522 -2 l 597 -2 b 611 1 601 1 605 1 m 518 68 l 483 276 l 483 287 b 479 325 481 298 480 325 l 469 334 b 277 361 395 350 354 361 b 255 344 268 361 258 354 b 241 200 243 297 248 247 b 211 33 233 144 220 88 b 186 23 208 22 195 23 b 68 37 177 23 76 30 l 68 50 b 102 229 68 108 93 172 l 116 318 b 120 341 119 329 122 329 b 162 556 131 416 148 483 b 169 608 162 562 168 602 b 197 744 173 627 191 723 b 200 763 200 748 201 756 l 245 1004 b 265 1023 248 1019 250 1022 l 305 1023 b 412 1020 340 1023 377 1020 l 441 1020 b 456 1023 445 1025 451 1023 b 487 1020 465 1023 479 1023 b 497 1011 488 1020 495 1012 b 520 1000 505 1002 512 1011 b 537 926 536 981 534 947 b 544 902 537 923 544 904 b 576 643 563 818 566 727 b 593 470 581 586 598 526 b 623 252 598 437 619 286 b 627 236 625 251 627 237 l 638 141 b 641 122 638 134 636 126 b 650 51 647 91 650 76 b 645 23 650 45 650 27 b 561 19 641 20 577 19 b 518 68 515 19 529 30 m 366 452 l 434 438 b 452 447 436 438 450 440 l 452 486 b 445 530 452 491 445 526 b 434 669 444 536 437 633 l 434 675 b 430 761 434 684 430 751 b 434 797 430 763 434 794 b 362 855 434 852 405 850 l 352 855 b 331 851 347 855 334 855 b 320 773 323 843 319 784 l 302 604 b 286 525 298 579 301 545 l 286 500 b 318 452 286 466 283 463 b 337 455 323 448 331 455 b 348 450 338 455 347 450 b 366 452 354 450 363 451 m 373 777 l 376 773 b 390 787 379 775 387 784 l 379 784 b 354 770 372 784 359 770 l 362 784 b 397 818 372 794 395 818 b 397 797 400 813 397 798 b 406 797 401 795 406 797 b 408 793 406 797 408 794 b 341 723 408 780 358 733 b 340 733 341 723 340 731 b 373 777 340 755 354 761 m 566 976 l 606 1018 b 611 1027 611 1020 611 1023 b 593 1037 611 1037 605 1043 b 615 1058 594 1038 611 1059 l 620 1047 b 630 1023 622 1045 629 1027 b 558 951 623 1012 561 951 b 566 976 558 959 565 969 m 537 1025 b 591 1079 537 1045 572 1079 b 608 1069 598 1079 608 1076 b 541 1020 608 1062 551 1030 b 537 1025 540 1020 537 1023 m 338 219 l 338 201 l 313 176 b 248 91 295 155 251 111 b 252 80 248 90 252 81 b 245 75 251 79 245 76 b 241 63 243 69 248 66 l 241 69 b 255 122 241 88 243 105 b 325 205 261 129 318 198 b 338 219 326 208 336 218 m 665 777 l 665 756 b 627 709 665 756 638 723 b 597 673 616 698 609 681 b 595 683 597 673 595 680 b 620 723 595 698 613 711 b 665 777 636 745 645 761 m 400 615 b 348 548 400 577 373 569 b 313 506 336 536 326 520 l 313 512 b 400 615 313 527 388 613 m 411 768 b 338 686 406 752 355 700 b 386 756 338 711 372 744 b 411 768 395 766 401 759 m 338 134 b 341 119 341 130 341 125 b 265 56 341 105 280 62 b 286 84 265 61 280 77 b 338 134 302 102 322 116 m 713 362 l 713 351 b 644 269 695 331 656 269 b 713 362 644 291 704 362 m 566 919 b 631 1000 583 933 616 1000 b 641 988 640 1000 641 997 b 581 929 633 977 591 938 b 566 912 580 927 573 912 l 566 919 m 634 347 b 702 431 634 352 695 425 b 706 425 704 431 706 426 b 700 419 706 425 700 420 b 638 337 677 394 663 355 b 634 347 633 338 634 344 m 652 223 l 652 229 b 665 223 656 225 659 223 b 720 294 672 223 708 283 b 725 287 722 293 725 288 b 662 200 725 284 670 215 l 658 195 b 652 223 652 208 652 212 m 294 1054 b 334 1095 300 1069 318 1093 b 344 1093 337 1095 343 1094 b 302 1050 337 1080 319 1050 b 294 1054 300 1050 294 1050 m 676 690 l 676 669 l 627 619 b 676 690 627 636 661 690 m 586 773 b 597 777 587 773 595 776 b 600 787 598 777 600 787 b 611 791 601 788 609 790 b 658 850 625 798 637 850 l 658 834 b 604 773 638 816 620 797 b 590 756 600 769 590 756 l 586 773 m 648 450 l 679 486 l 694 497 l 694 483 b 623 408 668 461 645 434 b 648 450 623 419 641 450 m 341 266 l 341 247 b 302 209 337 234 312 220 l 283 186 b 275 181 280 181 279 181 b 341 266 275 186 331 258 m 362 636 b 411 690 373 645 405 672 l 411 673 b 386 645 411 673 393 652 l 373 631 b 348 604 369 627 351 608 l 343 604 b 362 636 343 612 355 636 m 348 588 b 373 612 347 590 370 605 b 393 631 379 626 390 625 b 412 655 395 641 397 655 b 351 580 412 631 368 595 l 348 588 m 650 965 b 615 916 650 941 633 927 l 615 933 b 634 959 615 933 627 951 b 650 965 638 965 640 965 m 400 537 b 415 588 400 550 408 575 b 418 529 419 572 418 541 b 400 537 411 529 400 527 m 623 400 b 627 405 623 400 626 404 b 638 395 629 402 636 397 b 672 436 650 405 665 427 l 695 459 l 695 452 b 652 401 695 451 663 416 b 630 381 650 400 634 384 b 623 400 625 383 623 397 m 423 1101 l 441 1098 b 386 1058 422 1088 402 1072 b 373 1044 381 1054 379 1044 l 373 1054 b 404 1084 373 1055 394 1076 b 423 1101 409 1090 423 1101 m 390 1098 b 340 1054 380 1084 359 1054 l 341 1058 b 344 1065 341 1059 344 1065 b 379 1098 354 1075 379 1098 l 390 1098 m 595 861 b 611 879 602 861 608 875 b 645 919 620 891 645 919 l 648 905 b 600 855 633 893 616 869 b 595 861 597 859 595 859 m 338 172 l 338 165 b 325 145 338 151 334 152 l 290 115 b 338 172 297 131 322 165 m 615 479 b 623 494 615 480 620 490 b 662 541 637 508 647 525 b 683 556 666 545 681 556 l 687 550 b 616 473 663 530 627 502 l 615 479 m 669 730 b 673 719 673 729 673 722 b 641 691 673 708 654 691 l 641 697 b 662 723 641 697 656 716 l 669 730 m 404 713 l 411 713 b 373 669 411 693 384 683 b 386 690 375 687 376 679 b 404 713 394 698 387 713 m 327 327 l 334 325 b 297 280 329 318 301 287 b 272 252 288 270 283 261 b 300 290 272 269 293 280 l 327 327 m 668 80 b 669 84 668 80 669 83 b 700 94 679 84 693 86 b 679 63 700 86 687 63 b 668 80 670 63 668 75 m 606 909 b 576 869 615 900 583 873 l 576 875 b 606 909 576 886 597 906 m 727 229 b 731 219 729 227 731 222 b 718 201 731 213 719 204 b 694 176 713 198 695 179 b 727 229 694 198 719 212 m 666 811 l 658 797 b 616 756 654 791 623 762 l 630 780 b 666 811 638 790 661 811 m 400 502 l 418 506 b 420 502 418 506 420 504 b 402 479 420 493 415 479 l 397 479 b 400 502 400 487 401 495 m 372 712 b 373 716 372 713 373 716 l 404 747 b 395 736 408 734 405 736 b 376 702 395 719 393 718 b 372 712 372 704 372 709 m 683 601 b 679 608 683 601 680 606 b 690 591 690 612 690 598 l 634 537 b 683 601 640 556 683 580 m 656 883 b 648 869 656 877 652 872 b 620 845 641 862 622 845 b 638 869 620 848 634 865 b 656 883 640 870 650 883 m 702 395 l 711 395 b 679 358 711 386 686 363 l 702 395 m 679 645 b 680 638 679 644 680 640 b 655 619 680 625 666 622 b 679 645 659 627 672 638 m 372 550 b 362 541 372 541 368 547 l 327 506 l 338 525 b 366 550 345 531 365 550 l 372 550 m 690 530 l 690 525 l 655 486 b 679 520 655 491 672 512 l 690 530 m 662 140 b 679 162 662 144 676 159 b 680 156 679 161 680 156 b 665 131 680 150 668 137 b 662 140 665 131 662 137 m 713 148 b 733 151 722 148 726 151 b 713 134 733 144 723 134 l 713 148 m 606 572 l 616 572 b 615 554 616 569 615 556 b 611 550 615 552 612 550 b 606 572 605 555 606 566 m 361 518 l 366 518 l 338 490 b 361 518 338 498 355 518 m 527 1095 b 537 1093 530 1095 537 1093 b 523 1081 537 1083 527 1081 l 518 1081 b 527 1095 518 1083 523 1091 m 597 655 b 608 648 606 655 608 652 b 601 634 608 644 606 634 b 597 655 601 634 600 634 m 718 327 l 718 318 l 700 301 b 718 327 700 311 711 323 m 345 304 b 327 283 345 294 336 288 b 345 304 327 293 338 304 m 355 483 b 375 498 358 486 366 498 b 358 479 375 490 362 481 l 355 483 m 581 818 b 590 815 584 815 587 815 b 597 818 593 815 594 815 l 581 794 l 581 818 m 648 248 b 658 247 648 252 658 250 b 652 236 658 244 655 237 b 648 248 648 240 648 244 m 638 327 l 652 325 l 641 313 l 638 327 m 665 125 b 669 125 668 126 669 125 l 672 120 b 665 109 672 116 670 109 l 665 125 m 620 612 b 606 591 616 604 613 597 b 620 612 606 602 615 606 m 718 115 b 705 101 718 106 712 101 b 718 115 705 105 713 112 m 369 697 l 355 683 b 369 697 355 693 361 697 m 287 334 b 279 326 287 329 284 326 b 287 334 279 331 281 334 m 658 186 b 662 179 662 184 662 181 b 658 172 662 176 662 173 l 658 186 m 725 252 l 711 233 b 725 252 711 241 720 250 m 358 662 l 362 659 l 355 651 b 358 662 355 658 355 661 m 415 1051 l 415 1045 l 405 1045 b 415 1051 405 1048 411 1050 m 683 283 b 683 276 687 283 687 276 b 683 283 679 276 679 283 m 597 733 b 593 723 597 726 597 723 b 597 733 593 729 593 731 m 648 483 b 648 476 652 483 652 476 b 648 483 645 476 645 483 m 581 1034 b 581 1027 586 1034 586 1027 b 581 1034 579 1027 579 1034 m 648 615 b 648 608 652 615 652 608 b 648 615 645 608 645 615 m 551 994 b 551 987 555 994 555 987 b 551 994 548 987 548 994 m 334 1054 b 334 1047 338 1054 338 1047 b 334 1054 331 1047 331 1054 m 320 276 b 309 263 319 272 315 266 b 320 276 312 269 316 273 m 376 541 b 376 533 379 541 379 533 b 376 541 373 533 373 541 m 573 1018 b 573 1011 576 1018 576 1011 b 573 1018 569 1011 569 1018 m 338 638 b 338 631 341 638 341 631 b 338 638 334 631 334 638 m 597 666 b 597 659 600 666 600 659 b 597 666 593 659 593 666 m 373 822 b 373 815 376 822 376 815 b 373 822 369 815 369 822 m 687 290 b 687 283 690 290 690 283 b 687 290 683 283 683 290 m 511 1075 b 502 1069 511 1072 505 1068 b 511 1075 501 1069 509 1077 m 694 297 b 694 290 695 297 695 290 b 694 297 690 290 690 297 m 286 233 b 277 223 286 229 281 223 l 286 233 m 338 601 b 338 595 341 601 341 595 b 338 601 334 595 334 601 m 400 625 b 400 619 404 625 404 619 b 400 625 397 619 397 625 m 393 476 b 393 470 397 476 397 470 b 393 476 390 470 390 476 m 711 405 b 711 400 713 405 713 400 b 711 405 706 400 706 405 m 690 573 b 690 568 694 573 694 568 b 690 573 687 568 687 573 m 376 561 l 379 556 b 376 548 379 555 377 550 l 376 561 m 331 625 b 327 622 333 623 330 620 b 331 625 326 623 330 626 m 334 591 b 331 588 336 590 333 587 b 334 591 329 588 334 594 m 331 659 b 331 655 333 658 333 655 b 331 659 329 655 329 659 m 445 1081 b 445 1077 447 1081 447 1079 b 445 1081 443 1077 443 1081 m 366 811 b 362 811 365 809 362 809 b 366 811 362 813 366 813 m 427 1069 b 427 1065 429 1068 429 1066 b 427 1069 425 1065 425 1069 m 579 838 l 583 837 b 579 838 581 833 579 836 m 423 479 b 423 476 426 479 426 476 b 423 479 422 475 422 480 m 294 240 b 300 250 295 244 297 247 l 294 240 m 616 518 l 615 509 b 615 513 615 511 613 511 b 616 518 615 515 616 516 m 727 186 b 725 179 727 184 729 184 l 727 186 m 497 1065 l 494 1058 b 497 1065 494 1062 497 1065 m 630 675 b 630 673 633 675 633 673 l 630 675 m 345 1261 b 388 1209 358 1261 381 1219 b 494 1184 409 1184 470 1184 b 669 1380 601 1184 669 1280 b 619 1420 669 1412 645 1420 b 588 1426 616 1423 595 1426 l 576 1426 b 555 1419 565 1426 561 1427 b 525 1377 547 1405 529 1393 b 525 1359 523 1376 525 1362 b 513 1322 523 1350 518 1331 b 437 1388 451 1322 468 1362 b 355 1416 416 1406 383 1416 b 238 1365 311 1416 268 1398 b 193 1247 218 1327 193 1291 b 195 1236 193 1244 195 1237 b 198 1227 195 1234 198 1229 b 226 1191 201 1204 198 1194 b 266 1188 229 1191 258 1190 l 275 1188 b 290 1197 276 1190 286 1195 b 327 1209 301 1204 319 1201 b 345 1261 337 1219 331 1256 m 498 1202 b 400 1227 466 1201 422 1200 l 361 1279 b 323 1286 351 1286 334 1286 b 266 1209 281 1286 269 1244 l 255 1206 b 216 1215 247 1206 220 1205 l 216 1237 b 211 1245 215 1238 211 1244 l 211 1255 b 231 1319 211 1279 220 1300 b 338 1377 256 1366 281 1377 b 425 1288 372 1377 408 1311 b 486 1268 444 1270 461 1268 b 544 1365 534 1268 527 1337 b 577 1368 558 1368 565 1368 l 593 1368 b 604 1344 601 1362 604 1352 b 590 1281 604 1320 597 1304 b 519 1205 576 1236 563 1218 b 509 1202 518 1204 509 1202 b 504 1200 508 1201 504 1200 b 498 1202 502 1200 500 1201 m 605 1266 b 611 1255 606 1262 611 1259 b 590 1233 611 1244 597 1240 b 605 1266 590 1234 604 1262 m 590 1406 b 575 1388 591 1406 593 1405 l 562 1388 b 590 1406 566 1393 586 1406 m 490 1302 b 501 1301 493 1302 500 1301 b 504 1298 502 1301 504 1300 l 495 1291 b 490 1302 493 1294 490 1298 m 315 1251 b 293 1230 313 1241 300 1234 l 302 1240 b 315 1251 306 1244 315 1251 m 626 1362 b 620 1352 626 1356 625 1354 b 626 1362 620 1359 620 1363 m 636 1313 l 641 1325 l 641 1319 b 636 1313 641 1318 640 1312 m 626 1281 b 616 1266 623 1276 620 1269 b 626 1281 618 1270 622 1277 m 404 1386 b 411 1383 408 1386 409 1383 b 406 1380 409 1381 408 1380 l 404 1386 m 452 1325 l 455 1319 l 450 1319 b 452 1325 450 1322 451 1323 m 647 1334 b 647 1329 650 1334 650 1329 b 647 1334 644 1329 644 1334 m 613 1291 b 613 1286 616 1291 616 1286 b 613 1291 611 1286 611 1291 m 351 1401 b 351 1395 354 1401 354 1395 b 351 1401 348 1395 348 1401 m 613 1383 b 613 1377 616 1383 616 1377 b 613 1383 611 1377 611 1383 m 644 1390 b 644 1386 647 1390 647 1386 b 644 1390 641 1386 641 1390 m 312 1227 b 312 1222 315 1227 315 1222 b 312 1227 311 1222 311 1227 m 336 1398 b 333 1395 337 1395 336 1395 b 336 1398 331 1398 333 1398 m 326 1395 b 320 1395 325 1394 320 1394 b 326 1395 319 1397 326 1397 "},"J":{"x_min":42.78125,"x_max":562.5,"ha":604,"o":"m 50 125 b 75 59 59 101 59 83 b 247 -6 118 -12 177 -2 b 318 2 256 2 301 -1 b 383 29 340 8 361 23 b 405 33 386 29 404 31 b 422 51 416 36 413 45 b 447 70 423 54 445 70 b 555 412 555 168 552 276 b 552 681 556 502 555 591 l 550 829 b 552 884 554 847 554 869 b 558 901 558 890 558 894 b 554 925 558 911 554 915 b 559 945 554 934 559 938 b 554 970 559 954 555 959 b 562 1008 554 983 562 994 b 552 1020 559 1012 552 1018 b 556 1034 552 1026 556 1029 b 551 1079 556 1045 552 1070 b 513 1094 550 1094 519 1094 b 422 1111 480 1101 452 1111 b 300 1059 412 1111 300 1059 b 301 1045 300 1056 301 1048 b 305 1005 301 1030 301 1023 l 311 809 b 316 777 316 798 316 790 b 316 438 320 665 316 551 b 311 315 316 397 312 355 b 305 245 312 295 312 261 b 288 238 300 238 294 238 b 272 241 281 238 277 238 b 270 281 272 248 270 275 b 270 361 269 308 272 333 b 230 397 269 387 255 388 l 226 402 l 175 402 b 133 376 165 388 144 386 b 72 327 111 362 93 341 b 43 306 61 320 51 318 b 43 190 45 265 41 231 b 50 125 44 177 47 133 m 66 194 b 65 226 66 197 65 220 b 69 236 65 227 68 234 b 63 265 68 241 63 262 b 68 295 63 273 66 291 b 98 301 75 301 88 301 b 158 295 111 301 148 297 b 180 283 173 288 166 283 b 183 200 180 270 181 212 b 241 137 186 168 208 137 b 275 150 255 137 263 144 b 327 222 305 168 320 186 b 331 265 329 226 330 255 l 331 272 b 337 755 337 430 341 594 b 333 806 336 763 334 798 l 327 836 b 326 1019 325 898 331 959 b 390 1023 345 1025 375 1023 l 431 1023 b 443 1005 440 1023 443 1011 b 448 959 444 1000 448 968 l 451 954 l 451 852 b 452 841 451 851 451 844 b 465 566 455 750 462 659 l 473 352 b 472 337 473 351 470 340 b 379 55 463 266 448 105 b 227 19 338 25 277 19 b 223 23 225 19 223 22 b 206 19 216 23 211 19 b 66 194 98 19 69 98 m 472 908 b 473 930 472 913 472 926 b 484 930 475 931 483 930 b 525 983 491 934 516 976 b 526 976 525 980 526 979 b 477 888 526 945 477 920 b 480 881 477 887 480 881 b 483 875 480 880 483 876 b 476 855 483 872 477 858 b 472 908 475 876 472 890 m 487 754 b 523 806 487 769 508 801 b 526 797 523 804 526 798 b 491 747 526 790 495 747 b 487 754 488 747 487 750 m 261 213 b 265 212 262 213 263 212 b 225 165 259 206 230 165 b 261 213 225 181 243 213 m 522 858 b 529 852 527 858 529 852 b 501 806 529 830 512 819 b 522 858 501 825 518 844 m 245 338 b 206 301 245 318 219 311 b 205 305 206 301 205 304 b 245 338 205 309 237 338 m 531 576 l 531 566 b 509 536 531 554 525 536 b 531 576 509 554 520 568 m 295 213 b 265 183 295 202 277 183 b 295 213 265 194 284 213 m 530 616 b 501 569 530 604 508 569 b 506 583 500 572 505 581 b 508 593 506 584 506 593 b 530 616 511 597 527 612 m 494 983 b 470 948 493 972 480 954 b 494 983 470 955 484 983 m 519 636 b 516 643 519 640 516 643 b 523 655 516 645 522 654 b 527 658 523 655 526 658 b 529 644 529 654 529 651 b 520 629 529 638 529 629 b 519 636 518 630 519 634 m 479 1069 b 455 1051 479 1058 463 1051 b 479 1069 456 1061 468 1069 m 456 115 b 436 91 456 105 445 93 b 456 115 441 104 444 106 m 186 370 b 156 351 180 365 166 351 b 186 370 162 359 175 370 m 529 344 b 531 337 529 343 530 338 b 516 325 531 329 526 325 b 529 344 518 331 523 338 m 477 836 b 488 833 479 836 487 834 l 477 809 l 477 836 m 529 491 b 533 484 533 490 533 486 l 515 465 l 525 487 b 529 491 525 488 527 491 m 527 698 b 529 688 527 697 529 690 b 518 675 529 683 529 675 l 527 698 m 479 1040 b 468 1019 479 1033 472 1025 l 468 1026 b 479 1040 468 1033 470 1040 m 526 727 b 512 704 526 713 519 709 b 526 727 512 712 523 723 m 527 1038 b 515 1023 527 1027 523 1023 b 527 1038 515 1029 522 1036 m 522 272 b 511 256 523 261 519 256 b 522 272 511 263 516 268 m 444 1084 b 450 1081 445 1084 450 1083 b 433 1077 445 1077 437 1077 b 444 1084 433 1083 438 1084 m 511 737 b 525 758 511 745 522 755 b 511 737 525 751 513 740 m 479 790 b 483 787 480 790 481 787 b 479 777 481 781 480 777 l 479 790 m 512 872 l 502 855 b 512 872 502 863 508 869 m 518 400 b 518 393 522 400 522 393 b 518 400 515 393 515 400 m 530 448 b 523 436 529 443 523 437 b 530 448 522 441 525 445 m 122 327 b 122 320 123 327 123 320 b 122 327 118 320 118 327 m 366 1062 b 356 1055 370 1061 359 1055 b 366 1062 356 1056 363 1061 m 495 681 b 495 675 498 681 498 675 b 495 681 493 675 493 681 m 504 734 b 504 727 506 734 506 727 b 504 734 501 727 501 734 m 513 1072 b 519 1069 516 1072 519 1069 l 515 1065 l 513 1072 m 522 1016 l 516 1005 b 516 1009 516 1006 515 1006 b 522 1016 516 1011 519 1015 m 525 301 l 530 306 l 527 297 l 525 301 m 533 501 b 533 495 534 501 534 495 b 533 501 529 495 529 501 m 526 284 b 526 277 527 284 527 279 b 526 284 523 277 523 286 m 347 1051 b 347 1045 350 1051 350 1045 b 347 1051 344 1045 344 1051 m 529 376 b 526 366 529 372 526 368 b 529 376 525 370 526 373 m 493 287 b 493 281 495 287 495 283 b 493 287 491 280 491 288 m 502 688 b 498 684 504 686 501 684 b 502 688 497 686 501 690 m 483 648 b 483 643 486 647 486 644 b 483 648 481 641 481 650 m 473 190 b 473 186 475 190 475 187 b 473 190 470 186 470 190 m 401 1059 b 398 1055 401 1056 400 1054 b 401 1059 395 1056 401 1061 m 512 390 b 512 386 513 388 513 387 b 512 390 509 386 509 390 m 505 616 b 505 612 506 615 506 613 b 505 616 502 612 502 616 m 513 226 b 513 222 516 226 516 223 b 513 226 512 222 512 227 m 530 944 b 526 940 530 943 527 941 b 530 944 527 944 529 945 m 520 238 b 518 231 519 234 518 233 b 520 238 518 237 519 238 m 525 406 b 525 402 526 406 526 404 b 525 406 523 402 523 406 m 244 227 l 241 222 b 244 227 241 226 243 227 "},"»":{"x_min":41.671875,"x_max":883.328125,"ha":925,"o":"m 95 87 b 201 2 95 76 186 9 b 213 15 209 4 208 9 l 234 33 b 322 94 245 43 320 86 l 322 105 b 345 136 326 120 337 122 b 352 154 351 141 348 148 b 433 272 379 194 406 233 b 458 323 445 287 450 305 b 473 341 461 329 469 334 b 522 459 494 376 522 418 b 494 501 522 479 501 483 b 450 561 484 522 463 541 b 425 597 440 573 434 586 b 213 833 391 634 231 833 b 113 790 188 833 137 802 b 102 772 109 787 105 776 l 54 723 b 41 701 43 719 41 712 l 41 693 b 136 576 69 670 115 612 b 144 558 136 573 143 559 b 177 525 147 554 175 529 b 223 466 194 506 206 486 l 273 416 b 298 377 284 405 298 393 b 237 277 298 359 251 293 b 175 205 230 270 180 212 b 147 169 169 198 151 173 l 136 144 l 108 112 b 95 87 105 108 95 91 m 151 63 l 123 94 b 180 181 123 94 162 155 b 231 241 195 202 215 220 l 283 304 l 325 370 b 327 381 327 376 327 376 b 268 452 327 402 284 437 b 231 488 259 459 234 484 b 201 530 227 493 205 526 b 165 566 191 543 175 555 b 156 581 165 566 158 577 b 66 704 147 597 66 702 b 125 758 66 713 115 758 l 129 756 b 283 591 184 705 227 643 b 388 455 322 540 351 500 b 401 433 393 451 401 438 l 394 419 b 406 406 395 418 404 408 b 422 411 412 406 418 411 b 434 387 433 411 434 395 b 355 262 434 362 373 286 b 258 129 322 218 290 175 b 193 38 237 101 220 61 b 151 63 173 38 166 61 m 433 337 b 437 330 437 337 437 333 b 388 272 437 309 404 279 b 433 337 404 291 416 313 m 480 476 b 491 470 484 476 490 470 b 445 443 491 459 455 448 l 445 448 b 480 476 445 455 475 476 m 356 643 b 368 630 359 643 368 633 b 327 613 365 618 338 613 b 343 633 327 619 338 629 l 356 643 m 313 688 b 319 680 318 688 319 684 b 281 661 319 672 287 661 b 313 688 286 666 304 688 m 162 759 b 188 765 177 756 175 765 b 176 744 188 761 179 744 l 172 747 l 162 759 m 395 591 b 404 581 402 591 404 588 b 377 576 395 581 387 576 b 395 591 377 580 390 591 m 331 181 b 334 175 331 180 334 175 b 316 169 334 170 318 169 b 327 188 316 176 325 186 b 331 181 327 187 330 181 m 397 555 l 415 573 b 419 565 419 572 419 568 l 418 561 l 397 555 m 226 784 l 231 787 b 241 772 238 781 241 779 b 226 784 231 772 226 773 m 388 494 b 404 504 388 494 390 497 b 397 483 404 497 398 486 l 388 494 m 295 709 b 273 693 295 701 279 693 b 295 709 275 698 288 708 m 291 613 b 301 618 293 615 300 618 l 304 600 b 291 613 302 601 293 609 m 338 663 b 343 661 341 663 343 661 b 343 656 343 661 344 659 b 327 651 341 656 330 652 b 338 663 327 656 331 663 m 433 545 b 436 538 434 545 436 540 b 425 533 436 533 429 533 b 433 545 422 538 429 543 m 188 730 b 204 741 195 733 200 737 b 193 726 204 734 198 726 b 188 730 191 726 188 729 m 201 809 b 213 795 212 809 213 802 b 201 809 211 795 201 806 m 252 762 b 258 754 255 761 258 758 b 250 751 255 751 252 751 b 252 762 250 755 251 761 m 279 112 b 283 105 281 112 283 106 b 273 100 283 105 276 101 b 279 112 270 97 277 111 m 365 208 b 358 195 365 201 362 198 b 365 208 358 201 361 205 m 452 522 b 455 515 454 520 455 518 l 445 515 l 452 522 m 488 420 b 484 412 488 418 487 412 b 488 420 479 412 484 420 m 427 461 b 420 455 429 455 423 455 b 427 461 420 459 423 461 m 352 543 b 352 536 355 543 355 536 b 352 543 348 536 348 543 m 463 501 b 461 494 466 500 462 494 b 463 501 456 500 459 501 m 198 775 b 198 768 201 775 201 768 b 198 775 195 768 195 775 m 220 795 b 220 790 223 795 223 790 b 220 795 216 790 216 795 m 311 597 b 311 591 313 597 313 591 b 311 597 306 591 306 597 m 376 262 b 376 256 380 262 380 256 b 376 262 373 256 373 262 m 159 765 b 159 759 162 765 162 759 b 159 765 156 759 156 765 m 409 581 b 409 576 412 581 412 576 b 409 581 406 576 406 581 m 368 518 b 373 522 369 522 372 522 b 368 518 373 519 373 518 m 313 591 l 319 591 l 316 587 l 313 591 m 456 93 b 562 8 456 81 547 15 b 575 20 570 9 569 15 l 595 38 b 683 100 606 48 681 91 l 683 111 b 706 141 687 126 698 127 b 713 159 712 147 709 154 b 794 277 740 200 768 238 b 819 329 806 293 811 311 b 834 347 822 334 830 340 b 883 465 855 381 883 423 b 855 506 883 484 862 488 b 811 566 845 527 825 547 b 786 602 801 579 795 591 b 575 838 752 640 593 838 b 475 795 550 838 498 808 b 463 777 470 793 466 781 l 415 729 b 402 706 404 725 402 718 l 402 698 b 497 581 430 676 476 618 b 505 563 497 579 504 565 b 538 530 508 559 536 534 b 584 472 555 512 568 491 l 634 422 b 659 383 645 411 659 398 b 598 283 659 365 612 298 b 536 211 591 276 541 218 b 508 175 530 204 512 179 l 497 150 l 469 118 b 456 93 466 113 456 97 m 512 69 l 484 100 b 541 187 484 100 523 161 b 593 247 556 208 576 226 l 644 309 l 686 376 b 688 387 688 381 688 381 b 629 458 688 408 645 443 b 593 494 620 465 595 490 b 562 536 588 498 566 531 b 526 572 552 548 536 561 b 518 587 526 572 519 583 b 427 709 508 602 427 708 b 486 763 427 719 476 763 l 490 762 b 644 597 545 711 588 648 b 750 461 683 545 712 505 b 762 438 754 456 762 444 l 755 425 b 768 412 756 423 765 413 b 783 416 773 412 779 416 b 795 393 794 416 795 401 b 716 268 795 368 734 291 b 619 134 683 223 651 180 b 554 44 598 106 581 66 b 512 69 534 44 527 66 m 794 343 b 798 336 798 343 798 338 b 750 277 798 315 765 284 b 794 343 765 297 777 319 m 841 481 b 852 476 845 481 851 476 b 806 448 852 465 816 454 l 806 454 b 841 481 806 461 836 481 m 718 648 b 729 636 720 648 729 638 b 688 619 726 623 700 619 b 704 638 688 625 700 634 l 718 648 m 675 694 b 680 686 679 694 680 690 b 643 666 680 677 648 666 b 675 694 647 672 665 694 m 523 765 b 550 770 538 762 536 770 b 537 750 550 766 540 750 l 533 752 l 523 765 m 756 597 b 765 587 763 597 765 594 b 738 581 756 587 748 581 b 756 597 738 586 751 597 m 693 187 b 695 180 693 186 695 180 b 677 175 695 176 679 175 b 688 194 677 181 686 191 b 693 187 688 193 691 187 m 758 561 l 776 579 b 780 570 780 577 780 573 l 779 566 l 758 561 m 587 790 l 593 793 b 602 777 600 787 602 784 b 587 790 593 777 587 779 m 750 500 b 765 509 750 500 751 502 b 758 488 765 502 759 491 l 750 500 m 656 715 b 634 698 656 706 640 698 b 656 715 636 704 650 713 m 652 619 b 662 623 654 620 661 623 l 665 605 b 652 619 663 606 654 615 m 700 669 b 704 666 702 669 704 666 b 704 662 704 666 705 665 b 688 656 702 662 691 658 b 700 669 688 662 693 669 m 794 551 b 797 544 795 551 797 545 b 786 538 797 538 790 538 b 794 551 783 544 790 548 m 550 736 b 565 747 556 738 561 743 b 554 731 565 740 559 731 b 550 736 552 731 550 734 m 562 815 b 575 801 573 815 575 808 b 562 815 572 801 562 812 m 613 768 b 619 759 616 766 619 763 b 611 756 616 756 613 756 b 613 768 611 761 612 766 m 640 118 b 644 111 643 118 644 112 b 634 105 644 111 637 106 b 640 118 631 102 638 116 m 726 213 b 719 201 726 206 723 204 b 726 213 719 206 722 211 m 813 527 b 816 520 815 526 816 523 l 806 520 l 813 527 m 850 426 b 845 418 850 423 848 418 b 850 426 840 418 845 426 m 788 466 b 781 461 790 461 784 461 b 788 466 781 465 784 466 m 713 548 b 713 541 716 548 716 541 b 713 548 709 541 709 548 m 825 506 b 822 500 827 505 823 500 b 825 506 818 505 820 506 m 559 780 b 559 773 562 780 562 773 b 559 780 556 773 556 780 m 581 801 b 581 795 584 801 584 795 b 581 801 577 795 577 801 m 672 602 b 672 597 675 602 675 597 b 672 602 668 597 668 602 m 737 268 b 737 262 741 268 741 262 b 737 268 734 262 734 268 m 520 770 b 520 765 523 770 523 765 b 520 770 518 765 518 770 m 770 587 b 770 581 773 587 773 581 b 770 587 768 581 768 587 m 729 523 b 734 527 730 527 733 527 b 729 523 734 525 734 523 m 675 597 l 680 597 l 677 593 l 675 597 "},"ò":{"x_min":41.671875,"x_max":826.390625,"ha":868,"o":"m 41 390 b 138 108 41 288 56 177 b 236 52 166 84 205 69 b 327 22 265 38 295 27 b 419 11 348 19 412 11 b 430 9 419 11 427 9 b 670 70 487 9 627 34 l 719 113 b 744 144 726 125 737 134 b 808 269 773 180 798 222 l 823 356 b 826 402 822 372 826 387 b 808 523 826 445 818 480 b 790 587 804 540 798 570 b 652 748 762 641 708 720 b 454 779 600 775 512 779 b 240 730 379 779 308 756 b 206 709 230 719 218 716 b 97 594 161 681 120 641 b 79 558 93 580 84 570 b 41 390 55 505 41 447 m 273 59 b 200 95 262 63 211 90 b 66 305 108 147 90 208 b 62 390 68 333 62 361 b 255 712 62 519 131 659 b 276 715 265 716 266 715 b 318 719 280 716 313 719 l 443 719 b 673 584 537 702 609 652 b 713 520 693 565 693 537 l 734 469 b 744 408 734 450 734 420 l 741 369 b 737 359 738 365 737 363 b 741 345 737 355 741 351 b 719 269 733 320 722 294 l 693 198 b 686 187 688 197 687 190 l 644 123 l 640 119 b 434 31 576 65 523 31 b 386 37 418 31 401 36 b 358 37 383 38 361 37 b 273 59 327 40 302 55 m 386 116 b 440 113 394 116 431 113 b 458 108 447 113 452 108 b 468 111 459 108 465 109 b 537 138 481 116 530 131 b 573 165 548 147 559 161 b 631 325 605 215 631 263 b 495 604 631 438 588 537 b 393 645 459 629 438 645 b 202 497 294 645 233 586 b 187 456 200 486 188 469 l 187 426 b 184 393 187 422 186 398 b 172 377 183 393 172 383 b 176 372 172 377 175 373 b 181 362 176 370 181 363 l 181 338 l 191 313 b 197 287 191 312 195 290 b 352 123 220 215 277 145 b 386 116 368 118 373 123 m 380 220 b 366 216 377 219 368 216 b 300 323 336 220 306 297 b 294 390 295 344 294 368 b 297 438 294 405 294 425 b 304 456 297 441 302 455 b 300 463 304 458 301 462 b 388 627 312 525 326 597 b 476 591 425 625 444 602 b 608 334 565 520 608 452 b 516 187 608 263 595 205 b 491 186 512 187 495 186 b 401 205 459 186 430 193 b 380 220 398 206 383 220 m 613 725 b 604 733 612 726 606 731 b 558 725 595 740 566 726 b 598 740 566 736 586 740 b 647 722 608 740 647 731 b 605 709 647 712 611 709 b 613 725 605 711 613 722 m 711 663 b 719 651 712 663 719 654 b 701 643 719 648 704 643 b 680 640 700 643 686 640 l 676 638 b 711 663 676 648 702 663 m 275 397 b 269 381 275 394 272 383 b 236 372 266 377 243 375 l 230 366 b 220 362 229 365 223 363 b 275 397 223 376 265 397 m 726 170 b 680 131 726 159 690 136 b 726 170 680 148 715 170 m 766 576 b 772 563 772 576 772 568 b 768 558 772 561 772 558 b 741 554 763 556 745 555 l 734 554 b 766 576 734 562 758 576 m 236 441 b 269 475 252 452 259 462 l 276 479 b 281 483 276 479 280 481 b 236 441 281 454 259 447 m 750 609 b 759 594 754 606 758 595 b 725 587 756 587 730 587 b 731 597 725 591 729 595 b 750 609 734 600 747 608 m 775 434 b 791 455 775 443 781 455 b 795 454 793 455 795 454 l 798 436 b 786 430 797 431 790 430 b 775 434 781 430 775 433 m 547 175 b 491 144 533 158 512 150 b 547 175 504 159 527 170 m 312 172 b 320 181 312 176 316 181 b 333 162 320 172 322 162 b 340 165 334 162 338 165 l 352 177 l 355 173 b 333 155 355 165 341 155 b 312 172 326 155 312 163 m 455 743 b 488 750 468 743 476 750 b 501 748 490 750 498 748 b 477 736 495 741 486 736 b 455 743 473 736 455 737 m 775 543 b 780 531 780 543 780 536 l 750 520 b 775 543 752 534 759 543 m 273 433 b 248 413 273 419 262 413 b 243 415 247 413 243 415 b 273 433 248 427 261 433 m 669 104 b 630 77 669 95 636 77 b 634 86 629 79 633 84 b 659 104 640 91 658 104 l 669 104 m 775 245 b 740 223 775 225 758 223 b 775 245 740 225 770 245 m 269 333 b 276 329 273 331 276 330 b 243 308 276 316 251 312 b 269 333 243 313 266 330 m 704 620 b 729 633 711 623 722 633 b 738 627 733 633 738 633 b 704 620 738 619 711 616 m 758 202 b 730 180 751 186 750 180 b 758 202 730 190 750 202 m 802 388 b 772 369 802 366 791 372 b 793 381 772 376 788 379 l 798 387 b 802 388 800 387 802 388 m 770 305 b 780 311 770 312 773 306 l 795 323 b 776 300 794 312 791 300 b 770 305 772 300 770 302 m 248 479 l 248 472 l 225 448 l 215 441 b 248 479 215 454 243 472 m 790 481 b 795 475 794 481 795 480 b 775 469 793 472 777 469 b 790 481 770 477 783 481 m 290 515 b 276 502 290 506 284 502 l 269 502 b 290 515 272 512 280 515 m 787 506 b 765 494 787 497 773 494 b 787 506 765 504 781 506 m 329 208 b 337 205 331 208 336 208 b 315 197 330 200 323 197 b 329 208 315 205 323 208 m 783 341 b 793 348 786 347 788 348 b 798 338 798 348 798 343 b 795 333 798 336 798 333 b 783 341 793 334 786 338 m 423 169 l 427 168 b 406 156 426 158 415 156 b 423 169 408 162 415 169 m 555 706 l 573 712 b 565 700 573 704 569 700 b 555 706 561 700 558 701 m 698 595 b 712 604 698 602 706 604 b 702 590 712 600 709 590 b 698 595 701 591 698 593 m 768 265 b 786 275 772 272 779 275 b 773 262 786 269 779 262 b 768 265 770 263 769 265 m 416 750 b 425 744 419 750 425 750 b 401 743 425 744 425 743 b 416 750 404 748 411 750 m 756 279 l 756 272 l 744 265 b 743 269 744 266 743 268 b 756 279 743 275 751 279 m 258 277 b 280 293 262 283 272 293 b 284 290 283 293 284 290 l 258 277 m 712 141 l 698 126 l 691 126 b 712 141 691 131 706 141 m 666 706 l 677 700 b 661 697 673 697 666 697 b 666 706 661 700 662 706 m 245 533 b 233 518 245 527 240 519 b 245 533 233 525 240 533 m 293 266 b 297 262 294 265 297 263 b 277 254 295 258 281 254 l 293 266 m 719 202 b 722 195 720 201 722 197 b 712 188 722 190 715 188 b 719 202 712 194 715 200 m 591 684 b 611 691 597 688 605 690 b 598 681 608 688 602 681 b 591 684 597 681 593 684 m 269 362 b 251 348 268 356 258 351 b 269 362 251 355 266 362 m 309 237 b 297 226 309 230 304 226 b 309 237 297 231 302 237 m 647 679 b 634 666 647 670 640 668 b 647 679 634 669 645 677 m 623 701 b 629 700 625 701 627 700 b 616 694 626 697 619 694 b 623 701 616 700 620 701 m 730 573 b 719 563 730 568 723 565 b 730 573 722 570 725 573 m 472 163 b 461 156 472 158 463 156 b 472 163 461 161 466 163 m 288 202 l 288 195 l 280 195 b 288 202 280 200 286 201 m 756 300 b 756 293 759 300 759 293 b 756 300 752 293 752 300 m 731 236 b 731 229 734 236 734 229 b 731 236 729 229 729 236 m 318 612 b 318 606 322 612 322 606 b 318 612 315 606 315 612 m 419 213 b 419 208 415 213 415 208 b 419 213 422 208 422 213 m 370 150 b 370 144 373 150 373 144 b 370 150 366 144 366 150 m 719 150 b 719 144 722 150 722 144 b 719 150 716 144 716 150 m 622 356 b 622 351 625 356 625 351 b 622 356 619 351 619 356 m 731 538 b 731 533 734 538 734 533 b 731 538 729 533 729 538 m 443 150 b 443 144 445 150 445 144 b 443 150 440 144 440 150 m 261 500 b 261 494 263 500 263 494 b 261 500 258 494 258 500 m 552 752 b 550 748 554 748 552 748 b 552 752 547 752 550 752 m 762 445 l 765 451 l 765 441 b 762 445 765 443 762 444 m 391 180 b 386 175 393 177 388 176 b 391 180 386 176 390 180 m 236 284 b 233 280 237 281 236 280 b 236 284 231 281 236 286 m 543 740 l 543 733 b 543 740 540 736 541 738 m 215 381 b 212 381 215 379 212 379 b 215 381 212 383 216 383 m 629 663 b 625 663 627 662 626 662 b 629 663 625 665 629 665 m 309 1072 b 429 909 348 1016 393 965 b 434 900 430 906 434 900 b 452 895 434 900 448 897 b 516 933 479 908 494 920 b 533 938 520 937 529 934 b 559 984 537 944 559 975 b 554 997 559 984 559 986 b 515 1038 547 1002 520 1031 b 451 1116 494 1052 462 1094 b 436 1125 448 1119 440 1123 b 420 1126 433 1125 423 1126 b 312 1080 386 1126 347 1091 b 309 1072 308 1080 309 1077 m 333 1066 b 381 1084 334 1070 377 1084 b 419 1052 405 1084 404 1058 b 501 948 441 1013 466 980 b 497 943 501 944 501 944 l 462 919 b 451 911 459 916 455 912 b 333 1066 420 968 362 1012 m 477 998 l 487 998 l 488 991 b 506 980 488 987 502 980 b 527 966 506 969 516 966 b 520 956 527 963 522 958 b 477 998 515 956 484 986 m 462 1023 b 470 1016 468 1023 470 1019 b 469 1009 470 1013 475 1009 b 462 1023 465 1013 462 1018 m 473 1026 b 475 1020 476 1026 477 1020 b 473 1026 470 1020 469 1026 m 476 1002 b 476 998 479 1002 479 998 b 476 1002 473 998 473 1002 m 448 1084 l 450 1080 l 443 1080 l 448 1084 m 462 1066 b 463 1063 465 1066 466 1063 b 462 1066 461 1063 459 1066 m 479 1045 b 484 1043 483 1045 484 1044 l 479 1045 "},"«":{"x_min":41.671875,"x_max":830.5625,"ha":872,"o":"m 41 425 b 94 325 41 415 87 333 b 97 318 94 325 97 320 b 115 275 102 305 108 288 b 161 209 127 252 145 229 b 193 151 173 190 181 168 b 269 30 218 111 241 68 b 283 25 272 27 279 25 b 304 38 283 34 298 34 b 376 102 327 62 354 79 b 412 165 379 126 412 151 b 394 209 412 184 397 193 l 394 219 b 368 254 390 226 373 236 b 365 273 366 256 365 270 l 354 283 b 315 351 340 302 325 330 l 315 365 b 318 372 315 365 318 370 b 304 377 318 377 306 376 b 290 412 295 381 290 405 b 312 450 290 425 305 440 l 359 508 b 402 562 373 525 384 550 b 423 575 408 568 418 570 b 429 598 437 586 423 583 b 458 627 433 608 452 620 b 469 651 463 633 463 644 b 502 706 484 666 502 681 b 497 741 502 709 497 737 b 481 751 494 747 484 747 b 415 823 463 776 445 823 b 333 791 398 823 350 800 b 277 720 319 783 286 731 l 251 686 b 133 534 212 634 172 586 b 65 455 111 505 83 486 b 62 450 65 455 62 451 b 43 430 59 447 45 431 b 41 425 43 429 41 426 m 266 75 b 211 161 258 86 218 148 b 176 226 198 181 187 208 l 168 234 b 105 351 137 268 122 309 b 69 419 97 373 69 391 b 94 461 69 431 87 452 b 129 497 98 466 123 490 b 144 516 131 504 140 512 b 216 609 166 548 195 579 b 263 670 231 631 245 650 b 272 683 268 677 270 676 l 330 758 b 348 766 334 763 341 766 b 333 737 348 752 333 751 b 336 734 333 736 334 734 l 344 734 b 365 741 354 734 356 741 b 381 726 369 738 380 727 b 404 702 387 720 404 711 b 379 659 404 687 387 672 b 291 548 355 619 319 586 b 277 525 290 545 280 527 b 261 508 275 523 263 511 b 208 452 241 490 223 473 b 168 387 201 431 168 413 b 193 359 168 373 187 372 l 193 344 b 226 318 193 343 220 325 l 243 293 b 333 152 270 244 305 201 b 354 115 340 140 354 130 b 283 52 354 95 295 66 b 266 75 281 62 275 70 m 270 404 b 226 368 270 391 237 368 b 270 404 227 372 263 404 m 408 781 b 415 800 408 784 412 795 b 423 775 419 797 423 779 b 418 769 423 770 418 769 b 408 781 411 772 408 776 m 323 500 b 291 466 320 484 306 466 b 306 480 290 466 302 475 b 323 500 309 486 316 500 m 479 702 b 465 687 479 693 473 687 b 479 702 465 694 472 701 m 259 308 b 277 318 259 313 275 318 l 263 301 l 259 308 m 325 211 b 333 218 325 216 325 218 b 326 205 333 209 331 208 b 325 211 325 206 325 209 m 415 673 b 402 659 418 665 408 661 b 415 673 406 662 409 673 m 355 165 b 365 161 359 165 362 163 l 359 155 b 355 165 358 159 355 161 m 318 245 b 308 234 319 241 315 234 b 318 245 308 238 315 243 m 318 300 l 318 293 l 309 293 b 318 300 311 294 315 300 m 379 616 l 368 606 b 379 616 369 612 373 616 m 359 218 b 359 211 362 218 362 211 b 359 218 356 211 356 218 m 344 579 b 350 586 344 581 348 584 b 344 579 350 579 350 577 m 348 184 b 348 176 350 184 350 177 b 348 184 345 176 345 186 m 240 463 b 240 458 243 463 243 458 b 240 463 236 458 236 463 m 251 473 l 245 463 b 251 473 245 470 247 473 m 348 243 b 348 237 350 243 350 237 b 348 243 344 237 344 243 m 269 344 b 266 341 270 343 268 341 b 269 344 265 343 268 347 m 261 338 l 248 330 b 261 338 251 333 255 337 m 219 436 l 219 430 b 219 436 216 431 218 434 m 277 283 b 277 281 280 283 280 281 b 277 283 275 280 275 283 m 369 430 b 422 330 369 420 415 338 b 425 323 422 330 425 326 b 443 280 430 311 436 294 b 488 215 455 258 473 234 b 520 156 501 195 509 173 b 597 36 545 116 569 73 b 611 30 600 33 606 30 b 631 44 611 40 626 40 b 704 108 655 68 681 84 b 740 170 706 131 740 156 b 722 215 740 190 725 198 l 722 225 b 695 259 718 231 701 241 b 693 279 694 262 693 276 l 681 288 b 643 356 668 308 652 336 l 643 370 b 645 377 643 370 645 376 b 631 383 645 383 634 381 b 618 418 623 387 618 411 b 640 455 618 430 633 445 l 687 513 b 730 568 701 530 712 555 b 751 580 736 573 745 576 b 756 604 765 591 751 588 b 786 633 761 613 780 626 b 797 656 791 638 791 650 b 830 712 812 672 830 687 b 825 747 830 715 825 743 b 809 756 822 752 812 752 b 743 829 791 781 773 829 b 661 797 726 829 677 805 b 605 726 647 788 613 737 l 579 691 b 461 540 540 640 500 591 b 393 461 438 511 411 491 b 390 455 393 461 390 456 b 370 436 387 452 373 437 b 369 430 370 434 369 431 m 594 80 b 538 166 586 91 545 154 b 504 231 526 187 515 213 l 495 240 b 433 356 465 273 450 315 b 397 425 425 379 397 397 b 422 466 397 437 415 458 b 456 502 426 472 451 495 b 472 522 459 509 468 518 b 544 615 494 554 523 584 b 591 676 559 637 573 655 b 600 688 595 683 598 681 l 658 763 b 676 772 662 769 669 772 b 661 743 676 758 661 756 b 663 740 661 741 662 740 l 672 740 b 693 747 681 740 684 747 b 709 731 697 744 708 733 b 731 708 715 726 731 716 b 706 665 731 693 715 677 b 619 554 683 625 647 591 b 605 530 618 551 608 533 b 588 513 602 529 591 516 b 536 458 569 495 551 479 b 495 393 529 437 495 419 b 520 365 495 379 515 377 l 520 350 b 554 323 520 348 548 330 l 570 298 b 661 158 598 250 633 206 b 681 120 668 145 681 136 b 611 58 681 101 623 72 b 594 80 609 68 602 76 m 598 409 b 554 373 598 397 565 373 b 598 409 555 377 591 409 m 736 787 b 743 805 736 790 740 801 b 751 780 747 802 751 784 b 745 775 751 776 745 775 b 736 787 738 777 736 781 m 651 505 b 619 472 648 490 634 472 b 634 486 618 472 630 480 b 651 505 637 491 644 505 m 806 708 b 793 693 806 698 801 693 b 806 708 793 700 800 706 m 587 313 b 605 323 587 319 602 323 l 591 306 l 587 313 m 652 216 b 661 223 652 222 652 223 b 654 211 661 215 659 213 b 652 216 652 212 652 215 m 743 679 b 730 665 745 670 736 666 b 743 679 734 668 737 679 m 683 170 b 693 166 687 170 690 169 l 687 161 b 683 170 686 165 683 166 m 645 251 b 636 240 647 247 643 240 b 645 251 636 244 643 248 m 645 305 l 645 298 l 637 298 b 645 305 638 300 643 305 m 706 622 l 695 612 b 706 622 697 618 701 622 m 687 223 b 687 216 690 223 690 216 b 687 223 684 216 684 223 m 672 584 b 677 591 672 587 676 590 b 672 584 677 584 677 583 m 676 190 b 676 181 677 190 677 183 b 676 190 673 181 673 191 m 568 469 b 568 463 570 469 570 463 b 568 469 563 463 563 469 m 579 479 l 573 469 b 579 479 573 476 575 479 m 676 248 b 676 243 677 248 677 243 b 676 248 672 243 672 248 m 597 350 b 594 347 598 348 595 347 b 597 350 593 348 595 352 m 588 344 l 576 336 b 588 344 579 338 583 343 m 547 441 l 547 436 b 547 441 544 437 545 440 m 605 288 b 605 287 608 288 608 287 b 605 288 602 286 602 288 "},"D":{"x_min":41.671875,"x_max":733.328125,"ha":775,"o":"m 48 65 b 58 45 48 58 51 50 b 277 20 111 19 222 25 l 288 20 b 376 30 319 20 344 25 b 487 61 405 36 459 45 b 706 336 590 118 676 220 b 733 552 725 405 733 481 b 726 640 733 581 722 612 b 644 879 712 711 680 813 b 630 895 643 881 631 893 b 608 955 620 911 618 941 b 504 1061 581 997 544 1034 b 461 1088 490 1069 476 1084 b 448 1093 459 1088 450 1091 l 447 1101 b 434 1101 445 1102 434 1101 b 379 1118 413 1105 397 1113 b 281 1140 347 1123 316 1140 b 175 1120 245 1140 209 1136 b 147 1105 166 1116 158 1109 b 45 1045 125 1095 45 1070 b 48 1031 45 1040 47 1036 l 48 961 b 45 933 48 959 45 936 b 48 901 45 930 48 904 l 48 829 b 45 444 48 700 44 575 b 41 361 41 412 41 391 b 48 87 41 269 48 179 l 48 65 m 70 72 b 63 220 63 122 72 172 b 63 576 65 275 65 525 b 61 656 63 586 61 648 b 68 761 61 666 66 751 l 68 784 b 63 793 68 786 63 793 b 68 798 63 794 66 798 b 70 866 69 809 70 856 b 68 908 70 870 68 904 l 68 937 b 70 1025 68 968 72 995 b 136 1036 77 1036 122 1036 b 150 1012 147 1036 137 1012 b 172 1029 159 1012 165 1029 b 238 1019 200 1020 209 1023 b 273 1006 250 1018 263 1009 l 319 997 b 316 988 313 994 316 994 b 370 981 337 988 347 988 b 384 972 372 980 384 973 b 477 920 418 954 447 943 b 490 908 480 918 490 909 b 490 898 491 906 490 898 b 497 895 491 898 497 895 b 519 866 505 888 513 875 b 554 812 525 859 548 820 b 595 686 566 770 587 729 l 605 618 l 623 533 l 623 522 b 615 400 623 480 620 438 b 290 43 584 183 547 43 b 131 50 237 43 184 44 b 70 72 118 50 77 61 m 225 166 b 266 154 238 166 254 154 b 277 161 272 154 275 154 b 466 252 345 163 451 169 b 484 323 470 279 473 300 b 491 480 488 375 491 427 b 481 615 491 525 487 570 b 413 861 472 684 470 815 b 334 891 397 873 356 886 b 315 898 330 893 320 898 b 184 886 273 898 226 897 l 184 856 b 188 812 184 852 188 816 b 186 681 188 793 187 701 l 186 548 l 183 538 b 184 452 186 506 184 484 l 184 412 b 183 383 184 409 183 386 b 184 338 183 379 184 343 l 184 287 b 181 198 184 256 181 227 b 212 162 181 179 191 162 b 225 166 218 162 220 166 m 322 281 b 312 412 318 286 312 375 l 312 666 b 319 726 322 686 309 708 b 331 745 322 736 331 736 l 319 738 l 319 754 b 322 809 319 772 320 790 b 329 841 322 822 329 830 b 323 873 329 852 323 859 b 384 850 348 873 365 862 b 443 748 426 825 434 795 b 448 716 445 737 444 726 l 466 586 l 466 575 b 472 494 468 562 472 506 l 472 472 b 469 427 472 468 469 431 b 469 375 468 422 469 379 b 459 319 468 356 465 336 b 448 297 456 312 450 297 l 418 281 b 397 277 408 283 405 277 b 322 281 372 277 348 283 m 204 506 b 208 583 204 534 204 556 l 225 583 b 234 558 225 572 234 568 b 218 516 234 543 218 533 l 233 516 b 287 598 244 537 269 586 b 290 588 291 598 290 591 b 284 576 290 580 291 586 b 248 533 280 573 252 537 b 208 475 236 516 225 488 l 204 481 l 204 506 m 700 477 l 697 481 b 669 469 688 477 675 475 l 662 459 l 658 462 b 669 475 658 462 665 472 b 693 500 672 479 688 497 l 684 504 b 645 469 676 494 659 476 b 643 481 641 469 643 480 b 658 498 643 494 645 495 b 684 523 662 501 680 519 b 704 544 691 529 704 533 b 697 558 702 547 697 556 b 706 568 697 559 702 568 b 709 563 708 568 709 565 l 709 534 b 706 452 709 502 709 487 b 681 447 698 451 688 447 b 700 477 681 455 693 475 m 208 725 b 223 743 208 752 219 730 b 268 822 233 770 247 800 b 298 856 276 830 298 843 b 300 844 301 855 300 847 l 300 833 b 280 806 300 820 288 816 b 261 773 279 802 263 777 b 213 698 244 747 229 725 b 209 695 213 698 211 695 b 208 725 209 698 208 719 m 208 623 b 255 701 216 623 247 688 l 284 736 l 284 748 b 297 745 287 748 295 747 b 294 716 297 738 294 720 b 255 662 287 709 261 672 b 208 598 250 655 216 598 l 208 623 m 443 966 b 505 1022 443 987 505 995 b 422 977 463 1022 436 977 b 413 981 420 977 415 976 b 493 1037 420 987 481 1037 b 509 1029 500 1037 505 1034 b 525 1009 513 1023 525 1011 b 497 997 525 998 501 998 b 494 990 497 997 494 991 b 490 987 494 990 491 987 b 481 981 490 986 483 981 l 455 961 b 443 966 448 961 443 962 m 668 748 b 615 711 645 748 631 722 b 611 718 611 711 611 713 b 658 772 611 734 658 748 b 656 777 658 773 658 776 b 600 738 630 775 625 738 b 652 793 600 759 636 783 b 662 777 658 790 661 779 l 679 738 b 644 708 679 734 645 709 b 668 748 644 723 668 723 m 268 506 b 287 534 276 512 287 523 b 255 506 287 541 262 515 b 230 469 245 497 243 477 l 245 500 b 290 562 254 515 277 552 l 290 538 b 287 500 290 533 291 508 b 265 475 284 498 266 477 b 236 437 259 469 240 441 b 222 420 231 430 231 420 b 268 506 222 441 268 477 m 291 480 b 287 456 291 473 290 462 b 280 450 286 455 281 450 b 208 341 252 418 233 376 b 204 338 208 341 205 338 b 233 412 204 351 227 401 b 238 415 234 412 238 413 b 291 480 251 425 279 480 m 658 284 b 654 287 658 286 656 287 b 636 281 650 287 641 281 b 658 308 636 291 658 295 l 656 312 b 620 297 641 312 634 297 b 640 312 620 309 627 315 b 675 348 645 318 670 343 b 694 375 681 355 686 368 l 684 341 b 656 272 680 325 670 279 l 658 284 m 316 1109 b 358 1098 329 1109 345 1102 b 337 1086 354 1094 344 1086 b 325 1098 334 1086 330 1097 b 225 1036 288 1098 254 1036 b 316 1109 225 1052 301 1109 m 144 1058 b 237 1111 155 1073 212 1111 l 248 1111 b 223 1095 245 1104 230 1101 b 166 1051 209 1084 184 1059 b 144 1058 156 1050 150 1054 m 294 361 l 294 351 b 290 336 294 344 295 341 b 259 297 280 323 266 312 b 209 218 243 269 226 244 b 204 212 209 216 205 212 l 204 223 b 233 265 204 241 223 250 l 252 304 b 294 361 261 320 275 354 m 236 188 b 238 195 236 188 238 194 l 287 269 l 300 262 b 252 188 300 255 263 202 b 245 183 250 187 247 183 b 236 188 245 183 241 186 m 645 388 b 700 434 661 404 680 426 b 701 427 700 433 701 429 b 697 409 701 422 700 412 b 669 393 694 404 673 398 b 633 358 663 387 638 362 b 645 388 630 362 631 398 m 386 1088 b 393 1084 388 1088 393 1087 b 341 1051 393 1076 348 1058 b 301 1022 329 1041 319 1022 b 294 1023 300 1022 295 1022 b 331 1061 298 1029 325 1055 b 366 1083 333 1061 358 1076 b 386 1088 372 1086 379 1088 m 377 1001 b 469 1054 394 1001 447 1054 b 475 1051 472 1054 473 1054 b 430 1019 466 1037 443 1030 l 401 990 b 395 987 400 988 397 987 b 377 1001 393 987 377 997 m 630 608 b 675 652 650 608 665 643 b 691 669 680 658 690 669 b 701 648 695 661 701 655 b 670 627 701 631 679 634 b 633 590 659 618 644 601 b 630 608 633 591 631 602 m 472 950 b 538 1000 483 959 530 1001 b 548 984 543 998 548 988 b 483 943 526 984 497 943 b 472 950 479 943 472 947 m 344 259 b 347 255 345 259 347 256 b 286 181 340 250 297 181 b 325 255 286 181 318 254 b 337 255 326 256 336 255 b 344 259 338 255 344 259 m 675 575 l 694 598 b 669 593 683 601 677 593 l 697 625 b 709 580 715 625 709 591 l 709 575 b 697 580 708 575 698 579 b 679 570 691 579 680 573 l 675 575 m 408 1083 b 447 1065 415 1081 447 1075 b 430 1056 447 1059 434 1056 b 413 1070 422 1056 423 1070 b 331 1011 379 1070 362 1015 l 331 1016 b 350 1036 331 1018 345 1030 b 391 1063 352 1036 383 1056 b 408 1083 400 1069 406 1072 m 579 809 b 627 850 579 813 622 850 b 633 837 631 847 633 840 b 586 797 633 834 591 802 b 579 809 579 794 579 804 m 500 929 b 558 977 500 947 556 961 b 563 966 563 975 563 972 b 509 920 563 962 518 930 l 500 929 m 208 323 l 204 329 b 223 333 223 325 212 333 b 213 304 223 323 213 315 b 222 297 213 297 218 297 b 248 331 238 297 234 325 b 208 262 248 319 216 269 l 208 323 m 261 1034 b 297 1066 261 1037 291 1063 b 322 1079 304 1072 322 1080 b 312 1066 322 1073 318 1069 l 277 1031 b 272 1029 276 1030 272 1029 b 261 1034 270 1029 262 1030 m 550 863 l 593 901 l 597 902 b 605 890 604 902 605 897 b 554 856 605 886 559 862 b 550 863 550 858 550 861 m 238 866 b 255 873 245 870 248 873 b 209 806 241 852 231 820 b 238 866 209 829 233 855 m 620 665 b 679 713 626 665 669 705 b 687 708 686 713 687 711 l 665 687 b 658 686 663 687 659 686 b 620 648 643 681 633 648 l 620 665 m 390 252 l 359 191 b 354 188 359 191 355 188 b 344 186 352 187 347 187 b 390 252 344 198 380 252 m 563 837 b 576 850 563 837 572 847 b 615 876 587 861 600 872 l 618 866 b 570 827 600 856 584 843 l 563 837 m 593 779 b 648 820 593 786 641 820 b 595 772 648 806 608 780 b 593 779 591 772 593 776 m 291 401 b 252 338 291 373 272 358 b 265 366 254 343 262 362 b 291 401 269 376 281 401 m 302 876 b 238 811 298 872 241 811 b 272 856 238 819 265 850 b 290 876 276 862 290 876 l 302 876 m 516 906 b 559 940 516 912 555 940 b 563 938 561 940 563 938 b 522 898 559 925 531 905 b 516 906 522 898 516 902 m 588 927 l 588 918 b 545 886 576 911 559 893 l 538 886 b 588 927 552 898 566 927 m 290 640 b 244 575 287 623 251 575 b 290 640 254 598 270 623 m 298 790 b 255 730 298 772 269 741 b 298 790 258 741 290 790 m 241 1086 l 238 1079 l 204 1048 l 194 1048 b 241 1086 194 1056 234 1086 m 136 1080 l 140 1079 b 93 1054 127 1063 113 1054 b 136 1080 93 1061 133 1080 m 411 1048 b 359 1006 409 1038 370 1006 b 411 1048 369 1020 393 1040 m 290 679 l 290 666 b 259 631 281 659 269 638 b 290 679 259 648 281 672 m 290 316 b 294 311 294 315 294 312 l 261 262 b 261 272 259 263 261 270 l 290 316 m 623 634 b 665 666 638 644 652 654 b 640 634 665 661 647 641 l 627 625 l 623 634 m 411 213 b 423 240 411 225 423 230 b 434 240 423 247 430 240 b 411 213 434 231 425 213 m 588 188 b 595 200 590 190 595 198 b 615 195 601 201 611 201 b 598 186 609 187 606 186 b 588 188 597 186 590 184 m 398 220 b 395 212 397 220 395 212 b 401 205 395 209 400 205 b 381 198 398 200 387 198 b 398 229 381 206 395 223 l 398 220 m 215 683 b 220 679 216 683 218 681 b 208 652 220 670 211 659 l 208 675 b 215 683 208 676 211 680 m 697 401 l 697 394 b 686 377 697 386 697 377 b 697 401 686 387 688 397 m 209 790 b 220 786 215 790 220 787 b 209 770 223 781 216 770 l 209 790 m 675 679 b 687 687 675 686 679 686 b 691 687 690 688 691 687 b 681 673 691 681 683 673 b 675 679 676 672 675 676 m 263 1115 b 280 1113 266 1115 279 1115 b 284 1111 281 1113 284 1112 b 272 1105 281 1105 277 1105 b 263 1115 265 1105 263 1111 m 265 401 b 287 430 275 409 277 423 b 265 401 287 420 272 402 m 331 208 b 322 187 331 202 327 187 b 331 208 322 195 325 204 m 245 366 b 233 345 245 359 236 348 b 245 366 233 352 240 362 m 204 450 b 211 441 209 450 211 447 b 208 434 211 438 211 436 b 204 450 205 438 204 445 m 687 552 l 687 545 l 670 536 l 687 552 m 416 256 b 408 243 416 250 412 247 b 416 256 408 250 411 256 m 355 243 l 344 226 b 355 243 343 226 348 243 m 608 230 l 611 226 l 601 218 b 608 230 602 222 604 227 m 640 262 b 640 255 644 262 644 255 b 640 262 636 255 636 262 m 222 459 l 218 447 b 216 451 218 448 216 450 b 222 459 216 455 218 459 m 669 570 l 645 541 b 669 570 645 544 666 568 m 233 598 b 227 588 234 597 233 588 b 233 598 227 591 231 598 m 640 415 b 640 409 644 415 644 409 b 640 415 636 409 636 415 m 233 220 b 233 213 236 220 236 213 b 233 220 230 213 230 220 m 630 336 b 630 329 633 336 633 329 b 630 336 627 329 627 336 m 248 1095 l 255 1095 l 248 1088 l 248 1095 m 645 447 b 645 440 650 447 650 440 b 645 447 644 440 644 447 m 252 252 b 252 247 255 252 255 247 b 252 252 248 247 248 252 m 573 948 b 573 943 576 948 576 943 b 573 948 570 943 570 948 m 652 422 b 650 418 654 419 651 416 b 652 422 647 419 651 423 m 248 622 b 245 618 250 619 247 618 b 248 622 244 619 247 623 m 248 243 b 243 234 247 238 245 236 b 248 243 244 237 245 240 m 218 200 b 218 195 219 198 219 197 b 218 200 215 195 215 200 m 294 1113 b 290 1113 293 1112 291 1112 b 294 1113 290 1116 294 1116 m 255 387 b 255 383 258 386 258 384 b 255 387 254 383 254 387 m 630 218 b 623 208 630 216 625 209 l 630 218 m 670 437 l 666 434 b 670 437 666 436 668 437 "},"ÿ":{"x_min":41.671875,"x_max":744.453125,"ha":786,"o":"m 83 -275 b 108 -297 84 -277 101 -295 b 240 -311 148 -308 198 -311 b 297 -304 254 -311 284 -313 b 337 -301 302 -304 331 -301 l 394 -291 l 404 -291 b 734 209 648 -195 722 -47 l 734 240 b 741 300 734 247 740 294 l 741 325 b 737 405 741 352 737 379 b 741 473 738 413 740 466 b 737 497 741 484 737 488 b 744 520 737 506 744 512 b 737 530 744 526 743 527 l 734 555 l 734 681 b 725 788 734 715 734 756 b 684 833 720 808 704 830 b 630 838 676 834 638 838 b 595 848 623 845 605 848 b 555 829 583 848 565 837 l 511 798 l 486 786 b 479 773 484 784 479 775 b 461 461 481 669 479 562 b 429 388 454 436 444 411 b 348 356 409 377 376 356 b 272 436 287 356 276 381 b 265 491 270 451 265 475 b 272 508 265 500 269 505 l 272 513 b 268 520 272 515 272 520 l 268 556 b 277 681 268 598 277 641 b 275 700 277 688 275 693 l 275 706 b 290 722 276 709 287 720 l 290 729 b 275 737 288 729 275 730 b 284 756 275 744 284 748 b 275 769 283 761 275 768 b 272 786 275 770 272 784 b 237 801 269 794 243 798 b 225 811 231 804 231 809 b 176 813 212 811 190 813 l 170 813 l 138 798 b 113 786 129 798 122 788 l 88 769 b 66 763 87 769 69 763 b 44 597 40 751 45 625 b 41 498 44 577 41 509 b 48 433 41 476 45 454 b 66 256 54 373 51 313 b 305 152 91 165 229 152 b 406 175 338 152 376 159 b 416 180 408 175 415 180 b 470 202 436 187 454 190 l 513 240 b 515 226 513 238 515 229 b 466 -65 515 137 511 15 b 448 -100 462 -72 454 -93 b 347 -130 426 -123 377 -123 l 200 -130 b 88 -177 155 -130 131 -173 b 81 -237 77 -191 81 -225 b 83 -275 81 -243 83 -269 m 202 -197 b 258 -202 219 -201 243 -202 b 334 -200 273 -202 323 -201 b 413 -165 362 -187 386 -186 b 538 262 545 -68 529 118 b 548 413 545 272 548 394 b 541 436 548 416 550 436 b 483 300 520 436 494 323 b 287 175 437 216 386 175 b 173 194 251 175 209 186 b 73 404 75 215 75 320 b 70 413 72 405 70 412 b 66 537 65 454 66 497 l 66 612 l 73 722 b 76 741 73 725 76 738 b 165 726 95 741 161 733 b 168 647 163 698 166 677 l 168 565 b 170 470 168 555 170 480 l 170 413 b 177 341 170 405 176 354 b 312 269 186 258 247 273 b 366 291 329 279 350 280 b 508 756 527 405 493 584 l 513 756 b 568 754 530 756 568 754 l 577 747 b 605 754 581 748 601 754 l 612 754 b 618 719 612 748 616 725 l 618 713 l 630 565 b 637 530 638 558 634 540 b 640 508 637 526 640 511 l 640 394 b 637 376 640 393 637 380 b 623 318 634 365 623 329 b 633 305 623 312 627 305 b 640 245 633 286 640 266 l 640 234 l 633 143 b 625 93 631 126 626 108 b 612 16 622 70 626 36 b 436 -256 586 -90 545 -208 b 426 -259 433 -256 427 -259 b 233 -288 363 -273 297 -288 b 123 -275 197 -288 159 -286 b 105 -262 118 -275 105 -270 l 105 -206 b 118 -197 105 -200 112 -197 l 202 -197 m 681 798 b 673 804 681 802 677 804 b 647 794 666 802 654 794 b 675 808 650 805 662 808 l 687 808 b 700 780 695 802 700 790 b 668 766 700 768 675 769 b 662 761 668 766 663 761 b 655 758 661 759 656 758 b 681 798 655 775 681 781 m 709 627 b 709 609 713 625 711 613 b 659 570 702 594 675 576 l 659 584 l 687 612 b 697 618 688 612 695 618 l 709 627 m 665 518 b 668 527 665 520 665 523 l 697 555 b 702 556 698 555 702 556 b 712 543 712 556 712 554 b 668 511 712 540 676 513 b 665 518 665 512 665 515 m 715 436 l 715 401 b 659 366 695 397 675 377 b 700 413 665 384 688 401 l 706 426 l 715 436 m 715 386 b 716 379 716 384 716 380 b 662 334 716 373 668 338 l 662 341 b 697 376 662 343 686 368 l 715 386 m 675 670 b 706 704 679 681 700 695 b 709 693 709 700 709 697 b 690 666 709 680 698 673 b 675 670 683 666 675 665 m 719 329 l 719 309 l 706 309 b 668 281 698 302 681 286 b 719 329 668 293 709 325 m 202 681 b 195 668 202 676 195 673 b 202 659 197 663 201 659 l 225 659 l 215 650 b 193 634 209 645 193 634 l 190 679 b 202 681 190 679 197 680 m 712 522 l 712 515 b 687 490 712 513 694 497 b 668 473 681 484 669 473 b 712 522 668 490 701 522 m 713 659 b 675 622 713 643 687 629 b 713 659 680 636 695 659 m 702 747 b 706 741 706 747 706 744 b 672 712 706 729 683 712 b 668 713 670 712 669 713 b 702 747 679 727 691 734 m 205 505 b 243 530 212 511 231 530 l 243 518 b 220 505 243 516 227 508 b 208 502 220 505 212 502 b 205 505 208 502 206 501 m 715 448 b 662 401 715 440 665 404 b 715 448 672 418 695 445 m 712 490 l 712 470 l 680 448 b 684 461 680 455 681 458 l 712 490 m 186 713 b 202 726 186 722 197 723 l 230 738 b 191 709 229 731 201 709 b 186 713 188 711 186 712 m 712 266 l 712 259 b 680 233 712 248 693 233 b 702 259 680 238 697 254 l 712 266 m 244 615 b 213 590 244 598 230 590 b 244 615 211 593 240 615 m 183 751 b 206 761 183 758 201 761 l 212 761 b 187 744 206 752 198 744 b 183 751 186 745 183 750 m 716 355 b 687 326 716 340 695 333 b 716 355 687 336 708 355 m 637 725 b 661 738 637 734 651 738 l 640 713 b 637 725 634 713 637 723 m 715 294 l 715 281 b 677 259 701 281 686 266 b 715 294 677 265 708 291 m 302 344 l 302 338 b 281 329 302 336 284 329 l 277 331 b 302 344 277 340 298 344 m 709 587 b 670 552 709 576 673 552 l 677 562 b 709 587 683 565 704 583 m 702 98 b 680 80 712 86 684 83 b 702 98 680 88 697 97 m 712 215 b 709 193 712 205 712 195 b 694 190 706 191 695 188 b 712 215 698 200 709 205 m 240 568 b 218 551 240 555 225 551 b 240 568 218 556 234 568 m 645 634 b 663 644 645 638 659 644 l 650 625 b 645 634 647 629 645 630 m 250 379 b 255 376 254 379 255 376 b 233 363 250 370 241 366 b 250 379 233 370 244 377 m 259 297 b 270 304 261 301 266 304 b 279 293 275 301 279 298 b 259 297 272 293 265 295 m 244 415 b 226 401 244 406 234 401 b 244 415 226 408 237 415 m 672 -16 b 665 -27 679 -26 670 -27 b 659 -26 663 -27 659 -27 b 672 -16 662 -20 665 -16 m 368 -152 b 350 -165 365 -158 358 -165 b 368 -152 351 -155 356 -152 m 215 379 l 200 361 b 198 366 198 361 198 365 b 215 379 198 376 206 377 m 216 783 b 197 775 216 775 202 775 b 216 783 197 783 212 783 m 659 436 b 670 440 659 440 669 440 b 662 426 670 434 668 429 b 659 436 661 427 659 434 m 202 609 b 188 595 201 604 195 595 b 202 609 188 605 193 608 m 694 123 b 706 129 694 129 705 129 b 700 120 706 123 704 120 b 694 123 697 120 694 120 m 545 786 l 545 779 l 530 779 b 545 786 533 784 540 786 m 706 165 b 691 152 705 155 700 152 b 706 165 693 163 701 154 m 518 319 b 511 304 518 309 516 306 b 518 319 511 312 512 315 m 288 -158 b 297 -159 290 -158 295 -159 b 283 -162 291 -162 288 -162 l 277 -162 b 288 -158 279 -156 287 -158 m 376 329 b 362 316 375 322 368 318 b 376 329 362 322 375 327 m 311 300 b 300 291 311 293 305 291 b 311 300 300 297 306 300 m 243 451 b 230 438 251 448 233 438 l 243 451 m 294 -177 b 302 -175 297 -175 300 -175 b 300 -180 305 -176 301 -180 b 294 -177 295 -180 294 -179 m 201 334 l 208 334 l 208 327 b 201 334 205 327 201 331 m 659 158 l 666 158 b 659 151 666 155 662 151 l 659 158 m 706 227 b 712 231 708 230 709 231 l 712 222 l 706 227 m 690 55 b 690 48 694 55 694 48 b 690 55 687 48 687 55 m 302 -155 b 302 -162 306 -155 306 -162 b 302 -155 300 -162 300 -155 m 680 329 b 680 322 684 329 684 322 b 680 329 677 322 677 329 m 341 -165 b 341 -172 344 -165 344 -172 b 341 -165 337 -172 337 -165 m 593 816 b 583 808 591 812 586 808 b 593 816 583 811 587 815 m 334 -168 b 334 -175 337 -168 337 -175 b 334 -168 331 -175 331 -168 m 356 316 b 356 309 359 316 359 309 b 356 316 354 309 354 316 m 240 483 l 230 473 b 240 483 231 479 234 483 m 694 61 b 694 55 697 61 697 55 b 694 61 690 55 690 61 m 668 225 b 668 219 672 225 672 219 b 668 225 665 219 665 225 m 675 227 b 675 222 677 227 677 222 b 675 227 672 222 672 227 m 250 656 b 250 650 251 655 251 651 b 250 656 247 648 247 656 m 630 788 b 625 781 631 786 627 783 b 630 788 625 783 629 787 m 731 227 b 727 225 731 226 730 223 b 731 227 726 226 730 230 m 483 247 b 479 244 483 245 481 243 b 483 247 477 244 481 248 m 647 672 b 643 669 647 670 645 668 b 647 672 641 669 645 673 m 561 798 b 555 794 559 794 558 794 l 561 798 m 655 681 b 655 679 658 681 658 679 b 655 681 654 677 654 681 m 272 356 b 268 351 270 354 269 351 l 272 356 m 419 956 b 497 890 419 923 462 890 b 551 904 516 890 533 898 b 638 991 595 916 638 943 b 601 1070 638 1033 623 1040 b 575 1079 597 1080 580 1069 b 558 1080 572 1079 561 1080 b 444 1026 508 1080 477 1059 b 425 998 436 1019 429 1008 b 419 956 420 986 419 970 m 145 965 b 230 895 162 927 183 895 b 365 998 295 895 365 927 b 340 1056 365 1033 350 1033 b 337 1059 340 1058 338 1059 b 279 1068 319 1062 298 1068 b 218 1061 259 1068 237 1069 b 145 975 184 1047 145 1013 l 145 965 m 436 961 b 441 998 436 973 436 987 b 494 1047 447 1011 477 1047 l 537 1047 b 580 995 562 1047 580 1018 b 522 911 580 958 561 922 b 494 906 513 909 500 911 b 436 961 466 911 436 929 m 162 979 b 234 1043 162 1011 201 1043 b 301 983 276 1043 301 1023 l 301 966 b 298 959 300 965 298 961 b 231 911 291 933 262 911 b 162 979 194 911 162 943 m 595 995 b 609 988 604 995 609 994 b 595 977 609 981 602 977 l 595 995 m 609 1036 b 615 1026 612 1036 615 1029 l 598 1026 b 609 1036 600 1030 605 1036 m 276 1051 b 283 1052 277 1051 281 1052 b 298 1050 290 1052 293 1051 b 291 1047 295 1047 295 1047 b 276 1051 287 1047 279 1047 m 311 934 b 297 923 309 929 304 923 b 311 934 297 929 305 934 m 581 940 b 577 929 588 937 580 930 b 581 940 577 936 579 937 m 319 994 b 325 990 322 993 325 991 l 319 980 l 319 994 m 319 970 b 323 966 323 970 323 969 b 319 961 323 963 322 961 l 319 970 m 619 1012 l 622 1005 l 613 1005 b 619 1012 613 1008 618 1011 m 568 1051 b 577 1056 569 1055 575 1056 b 568 1051 577 1052 572 1050 m 334 1026 l 340 1026 l 340 1020 b 334 1026 337 1020 334 1023 m 313 945 b 311 937 313 941 313 938 b 313 945 311 943 311 944 m 333 956 b 333 951 334 956 334 951 b 333 956 330 951 330 956 m 545 1061 l 555 1063 b 545 1061 552 1059 548 1059 m 606 954 b 606 951 609 954 609 951 b 606 954 604 951 604 954 m 345 990 l 345 984 b 345 990 343 987 343 988 m 595 966 l 593 959 b 595 966 593 963 593 965 m 313 1023 b 313 1019 315 1023 315 1019 b 313 1023 312 1019 312 1025 "},"í":{"x_min":37.5,"x_max":316.703125,"ha":356,"o":"m 184 33 b 206 26 191 30 197 26 b 211 30 209 26 209 26 b 275 95 231 55 248 75 b 279 102 276 97 279 102 b 295 261 302 151 286 211 b 306 276 302 265 304 270 b 294 295 302 279 298 290 b 308 313 294 305 308 304 b 295 330 308 315 302 327 b 298 387 293 352 298 366 l 298 394 b 294 420 298 395 295 418 b 301 436 294 422 301 436 b 294 443 301 437 295 443 b 293 465 294 445 294 461 b 290 720 287 525 298 661 b 286 754 290 726 287 747 b 275 772 281 758 280 768 l 240 780 b 141 797 226 784 158 795 b 41 738 112 784 61 768 b 43 718 41 737 43 720 b 43 655 44 712 43 661 b 52 419 47 602 52 483 l 52 402 b 50 315 55 373 48 345 b 55 188 50 304 52 201 b 58 131 55 186 56 145 b 68 73 58 122 66 83 b 134 33 77 23 118 48 l 184 33 m 88 77 b 83 138 88 87 83 130 b 76 395 73 226 73 309 l 76 405 b 69 723 76 490 58 647 b 73 727 70 726 73 727 b 93 723 79 727 91 723 b 126 720 95 723 123 722 b 181 712 141 719 181 712 l 195 620 b 195 604 195 619 193 608 b 191 594 195 604 191 597 b 197 576 191 587 197 581 l 197 569 b 193 405 197 530 187 434 l 191 275 b 190 65 175 209 184 131 l 183 58 b 162 56 183 58 168 56 b 88 77 145 56 101 54 m 241 291 b 226 266 241 279 226 276 b 241 252 226 265 237 247 b 218 226 236 243 226 234 b 222 212 218 218 222 216 b 211 202 218 208 216 202 b 222 290 209 209 211 287 b 241 291 225 290 237 291 m 268 630 l 268 622 b 233 606 268 605 244 606 l 233 612 b 248 620 233 612 243 616 l 268 630 m 269 459 b 234 436 269 440 252 436 b 269 459 233 443 266 459 m 231 111 b 261 134 240 118 248 129 b 248 113 259 127 251 113 l 236 105 l 231 111 m 213 697 b 234 680 219 691 225 675 b 216 666 231 675 225 666 l 213 697 m 268 583 b 243 566 268 568 261 566 b 268 583 243 569 258 579 m 248 656 b 262 673 248 665 258 666 l 268 679 b 248 656 268 665 261 656 m 266 412 l 269 408 b 259 397 269 400 263 397 b 254 398 258 397 254 398 b 266 412 254 402 259 412 m 255 201 b 266 215 254 205 259 215 b 261 195 266 209 268 197 b 255 201 258 195 258 197 m 244 165 b 266 181 244 172 262 179 b 244 165 266 170 254 165 m 219 330 l 231 330 b 219 315 231 323 226 316 l 219 330 m 263 368 b 252 356 263 358 261 356 l 245 356 b 263 368 252 365 255 368 m 255 320 l 269 330 l 269 325 b 255 315 269 316 263 315 l 255 320 m 216 462 l 229 462 l 218 452 l 216 462 m 206 740 b 197 734 206 736 202 734 l 190 734 b 200 738 190 736 198 738 b 206 740 202 740 205 740 m 141 751 b 144 743 147 751 148 743 b 141 751 140 743 138 751 m 200 680 b 200 673 205 680 205 673 b 200 680 197 673 197 680 m 93 754 b 93 745 95 754 95 745 b 93 754 88 745 88 754 m 213 169 b 213 162 216 169 216 162 b 213 169 209 162 209 169 m 219 87 b 223 83 219 87 223 86 b 219 77 223 81 219 77 l 219 87 m 152 772 b 152 766 156 772 156 766 b 152 772 148 766 148 772 m 134 743 b 130 743 134 740 131 740 b 134 743 129 745 134 745 m 219 408 l 226 408 b 219 408 225 405 223 404 m 218 709 b 215 705 219 706 218 704 b 218 709 213 706 218 711 m 145 769 b 137 769 144 768 138 768 b 145 769 137 770 145 770 m 37 930 b 47 920 37 922 44 926 l 45 915 b 119 895 55 906 102 895 b 158 912 136 895 144 904 b 204 934 173 920 193 920 l 298 1030 b 316 1062 304 1033 315 1052 b 233 1109 318 1075 243 1109 b 165 1073 227 1109 173 1080 b 148 1061 159 1070 150 1062 b 100 1008 133 1048 112 1023 b 38 934 90 997 45 945 l 37 930 m 63 938 b 79 959 63 947 75 951 l 106 994 l 134 1023 b 184 1062 147 1036 159 1062 b 216 1052 197 1062 205 1050 l 233 1043 b 113 909 231 1023 126 909 b 63 938 94 909 63 918 m 225 995 b 187 952 223 979 198 966 b 159 926 180 944 173 929 l 166 937 b 225 995 181 954 220 995 m 254 1041 b 247 1055 255 1047 255 1051 b 252 1056 248 1056 251 1056 l 268 1047 b 263 1038 268 1045 265 1040 l 247 1023 b 254 1041 248 1030 254 1034 m 200 1077 l 215 1081 b 208 1073 213 1077 208 1073 b 200 1077 208 1073 204 1075 m 265 1073 l 268 1077 l 273 1073 b 265 1073 272 1073 269 1072 m 215 1072 b 213 1068 216 1072 215 1068 b 215 1072 209 1068 211 1072 m 238 1016 b 238 1012 240 1016 240 1012 b 238 1016 236 1012 236 1016 "},"w":{"x_min":41.671875,"x_max":1126.453125,"ha":1169,"o":"m 41 477 b 51 295 41 416 47 356 b 108 48 56 208 68 126 b 138 2 113 36 127 11 b 304 -47 187 -30 245 -47 b 413 -27 341 -47 377 -38 b 463 2 431 -20 447 -4 b 504 22 477 8 493 12 b 558 77 525 38 538 61 b 579 29 565 62 569 43 b 756 -29 613 -26 701 -29 l 788 -29 b 822 -20 800 -23 811 -25 b 944 41 863 -2 908 15 b 1041 152 986 72 1004 120 b 1051 191 1045 170 1043 179 b 1059 202 1051 193 1059 201 b 1076 254 1068 218 1065 237 b 1081 261 1076 254 1081 259 b 1081 277 1083 262 1081 276 b 1101 361 1087 312 1098 330 b 1111 386 1104 384 1111 375 b 1106 400 1111 393 1106 393 b 1116 515 1106 441 1119 473 l 1126 527 b 1116 548 1119 533 1116 538 b 1119 561 1116 552 1116 558 l 1126 648 l 1126 698 b 1116 819 1126 737 1127 780 b 1109 829 1116 820 1111 827 b 1023 858 1097 838 1038 855 l 1015 858 b 891 793 980 858 916 811 b 866 783 883 787 875 788 b 863 772 862 780 863 779 b 869 754 863 765 863 761 b 879 480 875 662 879 572 b 856 300 879 418 863 359 b 854 295 856 300 854 297 l 854 280 b 841 227 852 272 844 236 b 816 212 837 215 826 212 b 716 325 751 212 716 255 l 716 508 b 706 527 716 515 713 525 l 698 527 b 604 534 668 527 633 533 b 579 537 591 534 595 533 b 573 541 577 538 573 541 b 491 483 562 538 502 493 l 448 443 b 419 426 437 434 425 441 b 426 386 426 408 426 402 b 423 316 426 362 425 338 b 395 176 420 293 404 179 b 361 172 383 172 373 172 b 341 173 356 172 344 173 b 329 181 338 176 334 180 b 294 205 305 187 319 204 b 313 236 294 218 313 219 b 291 230 305 236 300 230 b 286 304 286 230 286 283 b 288 340 286 318 288 327 b 286 352 288 345 286 348 b 288 495 286 401 288 445 l 298 508 l 291 519 l 291 529 b 298 556 291 540 298 547 b 288 572 298 562 288 563 b 291 594 288 579 291 586 b 288 600 291 597 291 598 l 288 754 b 209 786 288 793 237 786 b 44 711 186 786 44 726 b 48 702 44 706 48 706 b 41 477 48 629 41 552 m 63 501 l 63 566 b 66 684 65 586 65 666 b 73 695 66 684 70 695 l 179 695 b 188 681 180 695 187 686 b 193 593 194 663 193 611 b 188 512 193 562 193 541 l 188 302 b 197 208 188 295 194 230 b 320 90 208 133 250 90 b 419 159 372 90 395 116 b 423 166 420 161 423 165 b 426 198 423 169 425 195 l 438 237 l 438 263 b 445 319 438 269 444 313 b 448 375 445 325 448 365 l 448 381 b 466 411 448 402 444 408 b 561 420 476 412 551 420 b 579 400 562 420 570 400 b 615 422 587 400 601 422 b 647 179 619 418 647 205 b 670 155 651 179 665 162 b 761 106 691 127 723 106 b 800 109 775 106 786 106 b 804 113 801 109 804 112 b 881 325 865 165 866 251 b 897 401 886 345 895 377 l 897 520 b 894 727 897 590 894 658 b 895 754 894 731 895 750 b 961 761 912 761 947 761 b 986 756 970 761 977 756 b 998 761 987 756 994 761 b 1008 737 1006 761 1008 738 b 1001 727 1008 736 1001 729 l 997 720 b 1008 706 1001 713 1004 711 l 1008 630 b 1004 611 1005 622 1004 619 b 1009 590 1004 602 1008 598 b 1013 483 1013 551 1013 522 l 1013 426 b 1009 411 1012 425 1009 413 b 913 83 995 301 986 172 b 759 -6 869 30 830 -6 b 586 72 694 -6 612 1 b 554 198 570 109 576 161 l 544 266 b 536 280 544 273 543 280 b 516 270 529 280 520 277 b 497 152 522 230 508 190 b 372 -13 480 79 454 4 l 322 -20 b 311 -23 320 -20 311 -23 l 300 -23 b 72 295 115 -23 83 130 b 63 501 68 365 63 431 m 779 140 b 772 137 779 140 773 137 b 768 136 772 137 769 136 b 791 169 768 148 784 162 b 783 179 787 173 786 179 b 734 150 772 188 748 150 b 768 195 713 150 768 177 b 826 184 786 195 809 188 b 786 133 826 168 804 133 b 779 140 784 133 781 140 m 1070 770 b 1072 776 1070 770 1072 775 b 1076 786 1073 777 1075 784 b 1066 793 1076 794 1070 793 b 1036 786 1056 793 1044 790 b 1038 793 1036 787 1038 791 l 1059 815 l 1066 815 b 1098 786 1087 815 1098 806 b 1076 766 1098 775 1087 766 b 1070 770 1073 766 1070 766 m 1038 631 b 1066 662 1041 637 1062 658 b 1104 688 1072 666 1095 688 l 1104 666 b 1043 630 1104 662 1048 630 b 1038 631 1041 630 1040 631 m 641 472 l 641 479 l 648 479 b 670 495 648 479 663 491 b 693 508 681 505 675 508 b 691 490 693 505 691 493 b 615 445 690 486 618 445 b 623 456 615 451 619 452 b 641 472 625 458 638 470 m 738 205 b 754 202 745 205 751 202 b 701 165 751 186 713 165 b 738 205 701 165 720 205 m 138 726 b 213 756 161 740 188 756 b 145 720 193 743 168 720 b 138 726 141 720 138 722 m 690 466 b 694 462 691 465 694 463 b 691 443 695 459 693 445 b 644 418 690 440 650 419 b 690 466 656 426 676 466 m 1094 495 b 1056 461 1094 477 1076 461 l 1056 466 b 1072 483 1056 466 1068 479 b 1094 495 1081 491 1084 495 m 715 234 b 726 219 719 234 726 222 b 688 201 726 213 694 201 b 704 225 688 205 700 218 l 715 234 m 694 415 b 663 375 694 388 686 387 l 663 381 b 679 404 663 381 673 397 b 694 415 684 411 687 415 m 225 580 l 256 613 b 263 600 261 613 262 604 b 225 580 263 586 233 581 m 254 476 b 266 469 262 476 268 476 b 225 447 263 458 236 447 b 254 476 223 447 243 466 m 259 231 b 263 219 263 227 263 223 b 234 190 263 211 241 190 b 259 231 234 205 251 222 m 620 497 b 616 508 620 501 620 504 l 644 508 l 648 505 b 609 483 641 494 623 486 b 620 497 609 490 620 490 m 244 152 b 251 159 244 156 245 159 b 262 140 251 150 252 140 b 279 144 263 140 275 141 b 268 123 279 140 275 123 b 244 152 266 123 244 141 m 225 537 b 256 566 234 550 248 556 b 263 561 258 566 262 562 b 229 534 263 547 236 540 l 225 537 m 248 512 b 263 526 255 506 259 522 b 266 519 263 525 266 519 b 227 490 266 502 238 490 b 248 512 226 490 226 490 m 368 145 b 380 141 375 145 380 145 b 340 119 380 134 344 119 b 348 130 340 125 344 126 l 368 145 m 259 354 b 222 322 259 340 233 322 b 236 338 220 322 229 334 b 254 354 241 344 254 354 l 259 354 m 1031 695 l 1029 720 b 1054 737 1027 726 1052 736 b 1038 713 1054 726 1040 723 b 1036 691 1036 705 1041 698 l 1031 695 m 262 313 b 231 286 262 301 241 287 b 256 315 238 290 243 315 b 262 313 258 315 261 313 m 688 309 b 694 298 694 309 694 301 b 672 280 694 287 680 280 b 688 309 670 280 680 301 m 265 434 b 229 408 265 418 241 411 b 265 434 237 416 251 434 m 266 701 l 266 688 b 238 677 263 687 245 677 b 266 701 236 677 254 701 m 1101 636 b 1102 631 1101 634 1102 631 b 1076 613 1102 620 1084 615 b 1101 636 1076 626 1093 633 m 261 272 b 234 248 261 261 244 248 l 229 248 b 261 272 236 255 252 272 m 1020 212 l 1041 234 b 1020 212 1044 218 1034 208 m 698 263 b 704 256 702 263 704 262 b 684 250 704 250 688 250 b 698 263 684 256 691 263 m 1068 313 b 1048 295 1068 305 1054 298 b 1047 300 1048 297 1047 298 b 1068 313 1047 308 1059 313 m 1051 577 b 1034 556 1051 569 1043 556 b 1051 577 1034 566 1040 577 m 251 651 b 265 665 251 656 258 665 b 254 645 265 658 263 645 b 251 651 254 645 251 650 m 1094 541 b 1075 525 1094 527 1083 525 b 1094 541 1075 533 1088 538 m 991 184 b 1001 179 993 184 1000 179 b 988 166 1001 173 991 166 b 991 184 986 163 990 181 m 1081 577 l 1098 594 l 1098 587 b 1081 577 1098 577 1090 573 m 670 313 l 659 300 l 654 300 b 670 313 654 308 661 316 m 509 94 l 516 87 b 504 79 513 81 509 79 l 504 84 b 509 94 505 86 506 93 m 1083 401 b 1070 387 1083 394 1075 388 b 1083 401 1063 394 1077 401 m 216 655 b 229 652 223 655 226 652 l 216 638 l 216 655 m 262 394 b 241 379 259 384 251 381 b 262 394 244 381 254 394 m 979 809 b 959 797 979 801 965 797 b 979 809 958 797 970 809 m 691 354 b 677 341 691 343 684 341 b 691 354 677 348 686 352 m 322 152 b 311 140 325 144 318 143 b 309 144 311 140 309 143 b 322 152 309 148 318 152 m 225 516 b 213 501 225 509 218 505 b 212 505 213 502 212 504 b 225 516 212 511 219 516 m 236 616 l 216 597 b 236 616 216 609 229 615 m 947 793 b 929 781 944 786 938 781 b 947 793 929 787 940 791 m 227 698 b 215 686 226 691 223 686 b 227 698 215 693 220 695 m 1048 530 b 1036 518 1045 523 1043 518 b 1048 530 1036 525 1040 529 m 1104 720 b 1094 708 1104 712 1101 708 b 1104 720 1094 716 1098 719 m 225 750 b 237 754 226 755 236 754 l 244 754 l 231 747 b 225 750 227 747 226 750 m 1041 770 b 1030 759 1041 765 1036 759 b 1041 770 1030 768 1036 770 m 1091 447 l 1079 433 b 1077 437 1079 433 1077 436 b 1091 447 1077 443 1086 445 m 588 452 b 598 458 588 456 595 458 b 593 447 598 452 594 450 b 588 452 591 447 588 450 m 1076 355 b 1062 348 1076 348 1069 348 b 1076 355 1062 354 1072 355 m 650 451 b 638 440 650 445 641 441 b 650 451 640 448 644 451 m 586 505 l 601 505 b 586 498 595 502 591 500 l 586 505 m 263 740 l 268 736 b 259 730 268 731 263 730 b 263 740 259 730 256 731 m 1009 234 b 1004 225 1009 230 1006 225 b 1008 238 1000 220 1006 236 b 1009 234 1008 237 1009 236 m 676 225 b 670 212 676 216 673 213 b 676 225 670 218 672 222 m 991 786 l 1004 790 b 991 786 1001 784 997 781 m 1041 483 b 1034 475 1041 477 1038 475 b 1041 483 1034 480 1037 481 m 1036 394 b 1029 384 1036 394 1038 394 b 1036 394 1029 391 1031 394 m 1015 263 b 1009 255 1016 259 1013 255 b 1015 263 1009 259 1011 263 m 216 263 b 216 256 220 263 220 256 b 216 263 213 256 213 263 m 1044 829 b 1044 822 1048 829 1048 822 b 1044 829 1041 822 1041 829 m 681 447 b 681 440 679 447 679 440 b 681 447 686 440 686 447 m 631 490 b 631 483 636 490 636 483 b 631 490 629 483 629 490 m 997 822 b 997 815 1001 822 1001 815 b 997 822 994 815 994 822 m 213 420 b 213 413 216 420 216 413 b 213 420 209 413 209 420 m 663 466 b 663 459 666 466 666 459 b 663 466 659 459 659 466 m 1063 522 b 1063 515 1066 522 1066 515 b 1063 522 1059 515 1059 522 m 986 815 b 986 808 988 815 988 808 b 986 815 981 808 981 815 m 305 140 b 298 130 304 136 301 130 b 305 140 295 133 304 140 m 547 123 l 547 116 l 538 116 l 547 123 m 581 498 b 566 488 577 493 573 488 l 581 498 m 491 44 b 484 36 493 41 487 36 b 491 44 484 40 490 44 m 1070 526 b 1070 519 1072 526 1072 519 b 1070 526 1066 519 1066 526 m 1102 751 b 1094 743 1108 750 1097 744 b 1102 751 1095 744 1100 750 m 179 202 b 179 195 176 202 176 195 b 179 202 181 195 181 202 m 541 454 b 541 447 544 454 544 447 b 541 454 538 447 538 454 m 1038 829 b 1038 822 1041 829 1041 822 b 1038 829 1036 822 1036 829 m 1056 350 b 1056 343 1059 350 1059 343 b 1056 350 1054 343 1054 350 m 1072 437 b 1072 430 1076 437 1076 430 b 1072 437 1070 430 1070 437 m 231 566 b 231 561 236 566 236 561 b 231 566 229 561 229 566 m 306 116 b 313 119 308 116 312 119 b 311 113 315 119 316 119 l 306 116 m 466 -23 b 466 -29 463 -23 463 -29 b 466 -23 469 -29 469 -23 m 538 25 b 538 19 536 25 536 19 b 538 25 541 19 541 25 m 218 727 b 209 720 218 725 213 722 b 218 727 211 722 215 727 m 536 450 l 536 443 b 536 450 531 445 533 448 m 651 397 b 648 390 651 393 648 391 b 651 397 647 393 645 391 m 284 166 b 281 162 286 165 283 162 b 284 166 279 162 281 165 m 526 133 b 523 126 526 129 523 127 b 526 133 522 126 520 126 m 1041 437 l 1041 430 b 1041 437 1038 433 1040 436 m 531 184 b 531 181 534 184 534 181 b 531 184 530 181 530 186 m 220 555 b 216 551 219 554 218 551 b 220 555 215 551 213 551 m 679 29 b 679 25 677 29 677 25 b 679 29 680 26 680 29 m 616 472 b 611 469 612 469 612 469 b 616 472 611 469 609 469 m 538 166 b 538 162 540 165 540 163 b 538 166 537 162 537 166 m 1056 384 b 1059 390 1056 386 1059 390 l 1056 384 "},"$":{"x_min":41.671875,"x_max":776.390625,"ha":818,"o":"m 291 55 l 295 52 b 298 -5 295 52 298 12 b 319 -54 300 -19 294 -54 l 418 -54 b 433 -47 419 -54 429 -50 b 488 -12 451 -38 475 -20 b 526 44 522 8 526 1 b 522 68 526 52 522 59 l 556 88 b 565 94 556 88 563 94 b 677 159 601 111 650 125 b 725 215 684 168 716 208 b 743 251 727 230 738 238 b 769 340 755 281 759 302 b 773 387 768 351 773 377 b 769 431 773 404 769 415 b 776 456 769 441 776 447 b 769 465 776 459 770 465 b 720 631 759 537 759 573 b 677 675 706 652 687 661 b 668 693 670 686 679 691 b 594 719 640 697 623 708 b 473 750 556 731 515 743 b 351 776 462 751 351 762 b 356 788 351 779 355 787 b 345 797 355 793 348 797 b 331 788 344 797 333 788 b 320 801 325 788 320 798 b 352 886 320 827 329 868 b 395 888 369 887 381 888 b 462 797 476 888 436 818 b 604 779 488 775 573 779 b 615 768 604 769 601 768 b 677 811 626 768 673 804 b 684 863 677 818 683 855 b 701 890 686 870 701 887 b 680 913 701 900 683 901 b 675 956 680 918 675 952 b 622 1041 668 983 645 1029 b 575 1055 609 1048 590 1051 b 500 1077 548 1065 527 1075 b 473 1080 498 1077 477 1075 b 454 1169 456 1105 488 1166 b 423 1175 447 1172 426 1173 b 352 1191 397 1179 377 1187 b 269 1130 330 1191 281 1141 b 240 1041 233 1104 248 1044 b 137 970 231 1025 159 998 b 104 925 133 963 109 930 l 90 911 b 41 748 72 881 41 784 b 58 658 41 727 48 673 b 390 554 118 558 295 575 b 420 544 400 552 411 545 b 509 490 456 534 486 525 b 552 354 541 444 552 408 b 445 244 552 258 534 244 b 334 290 400 244 359 248 b 325 301 334 291 325 300 l 325 306 b 329 323 325 313 329 316 b 319 333 329 329 326 330 l 319 408 l 315 411 b 233 430 287 415 261 430 b 101 362 213 430 123 381 b 75 202 77 343 75 236 b 79 151 75 187 73 166 b 277 55 102 73 211 55 l 291 55 m 304 84 l 298 84 b 269 81 295 84 272 81 b 104 159 220 81 120 97 b 101 209 100 175 101 194 b 118 337 101 225 105 337 b 130 329 122 337 127 331 l 150 344 b 158 345 150 344 156 345 b 206 340 172 345 194 347 b 209 333 206 340 209 334 b 213 323 211 330 213 323 b 226 255 215 316 223 261 b 276 169 231 227 247 179 b 334 151 290 165 331 151 l 355 151 b 502 187 409 151 456 159 b 522 209 516 197 513 201 b 579 377 573 252 579 311 b 543 486 579 415 559 456 b 375 583 501 556 445 570 b 255 597 337 588 294 600 b 166 615 243 598 180 612 b 108 644 150 619 119 634 b 68 748 75 663 68 705 b 234 977 68 840 136 977 b 251 973 243 977 247 973 b 295 1106 286 973 243 1106 b 370 1077 309 1106 370 1109 b 363 1041 370 1065 363 1054 b 397 995 363 1030 384 995 b 413 1002 402 995 412 1002 b 423 1000 415 1002 422 1000 b 543 970 463 995 505 994 b 598 893 568 955 590 922 b 605 859 598 890 604 868 b 615 813 606 851 604 818 b 570 806 615 811 576 806 b 487 813 541 806 520 809 b 433 913 466 826 479 881 b 405 915 429 913 409 915 b 188 797 336 915 188 898 b 206 731 188 779 194 745 l 247 697 b 305 683 265 701 286 686 b 440 665 351 676 395 675 b 550 629 477 655 513 641 b 581 608 561 625 569 613 b 658 391 647 550 658 480 b 623 205 658 330 641 262 b 502 95 586 130 575 122 b 438 76 480 87 463 76 l 430 76 l 420 69 l 420 20 b 404 -9 420 8 404 4 b 411 -25 404 -16 405 -20 b 356 -29 388 -29 377 -29 l 334 -29 b 304 84 302 -26 336 84 m 219 765 b 244 806 219 779 244 787 l 251 806 l 251 818 b 276 856 251 819 269 847 b 316 877 286 870 301 877 b 308 859 316 870 313 865 l 236 781 l 226 768 b 238 758 230 761 233 758 b 280 786 259 758 262 786 b 243 731 272 769 256 744 b 219 765 237 737 219 752 m 233 405 b 279 394 250 405 265 402 b 252 390 269 390 263 390 b 236 394 247 390 243 394 b 194 383 222 394 208 383 b 233 405 201 395 220 405 m 643 854 b 655 829 648 854 655 834 l 637 806 l 630 806 l 630 845 b 643 854 630 848 641 852 m 269 212 b 280 219 269 219 276 219 b 295 201 284 213 287 201 b 315 209 301 202 313 208 b 315 205 315 208 316 208 b 305 187 315 204 306 191 b 302 183 305 186 302 183 b 269 212 290 183 269 202 m 331 195 b 354 219 334 198 352 215 b 361 230 355 220 359 230 b 377 222 368 230 375 227 b 334 191 379 216 341 191 b 331 195 333 191 331 194 m 250 855 l 250 850 b 229 820 250 848 236 829 b 216 806 227 818 218 809 b 250 855 216 825 234 855 m 680 433 b 687 433 681 436 686 433 b 693 436 688 433 691 434 b 687 419 691 430 687 427 b 700 404 687 409 700 411 b 686 387 700 398 690 387 b 680 433 683 394 681 426 m 747 345 b 713 315 747 325 729 315 b 747 345 716 323 737 345 m 594 631 b 623 654 604 636 620 651 b 608 625 623 647 608 633 b 612 622 608 625 611 622 b 622 615 612 620 620 615 b 622 608 623 615 625 608 b 594 631 612 608 595 623 m 302 779 b 308 775 302 779 306 776 b 276 743 308 763 283 743 b 291 768 276 747 288 765 l 302 779 m 704 490 b 676 458 704 476 688 458 b 704 490 676 472 691 486 m 705 613 b 679 586 705 600 691 586 b 705 613 683 597 691 613 m 748 418 b 720 397 748 404 729 397 b 748 418 720 408 737 418 m 473 215 b 441 201 469 208 450 201 l 437 202 b 444 212 437 204 443 211 b 473 215 444 213 447 215 m 513 716 b 488 693 513 706 498 693 b 513 716 488 705 501 716 m 684 273 b 687 269 686 273 687 270 b 662 247 681 265 666 247 b 684 273 662 258 673 273 m 677 638 b 684 631 679 638 683 633 b 658 618 686 630 663 618 b 677 638 659 626 670 634 m 706 365 l 680 333 b 706 365 676 354 693 356 m 654 555 b 676 561 654 562 673 561 b 661 544 676 554 662 545 l 654 555 m 700 563 l 718 583 b 720 576 720 581 720 579 b 700 563 720 566 708 559 m 412 729 l 420 729 l 401 713 b 395 712 400 713 395 712 b 412 729 395 726 402 729 m 726 540 l 736 540 b 713 522 736 529 722 522 l 726 540 m 565 986 b 584 1000 569 990 577 1000 b 570 980 584 993 576 980 b 565 986 568 983 565 984 m 565 651 l 575 665 b 581 661 579 663 581 662 b 572 647 580 655 573 647 b 565 651 570 647 566 650 m 634 908 b 623 888 634 898 631 888 b 634 908 623 895 625 908 m 461 726 b 469 722 463 726 469 726 b 454 713 463 716 459 713 b 461 726 452 722 455 726 m 411 1052 b 397 1034 409 1045 402 1038 b 395 1040 397 1036 395 1040 b 411 1052 395 1047 401 1051 m 708 234 b 691 222 708 226 698 222 b 708 234 691 230 701 234 m 312 711 b 326 722 315 715 320 722 l 320 706 b 312 711 318 706 313 709 m 641 586 l 658 597 b 641 579 655 588 650 581 l 641 586 m 740 498 b 729 484 740 488 737 484 b 740 498 729 491 733 498 m 363 705 l 368 711 b 376 700 375 711 376 704 b 363 705 372 700 363 700 m 684 309 b 672 295 680 298 677 295 b 684 309 672 305 676 309 m 588 1026 l 588 1020 l 572 1016 b 588 1026 575 1025 583 1026 m 476 55 l 493 55 b 476 48 490 50 481 48 l 476 55 m 619 1002 b 623 1000 623 1002 623 1000 b 611 991 622 994 616 991 b 619 1002 611 997 615 1000 m 483 219 b 495 222 486 219 494 222 l 502 222 b 493 215 500 216 497 215 b 483 219 488 215 487 216 m 686 522 b 675 511 686 516 677 512 b 673 515 675 512 673 513 b 686 522 673 520 680 522 m 575 693 b 580 694 576 693 580 694 b 588 690 583 694 588 694 l 575 686 l 575 693 m 648 950 l 651 943 b 644 937 651 938 648 937 b 648 950 643 941 644 947 m 375 738 b 377 736 376 738 377 737 b 368 731 376 734 369 733 l 362 731 b 375 738 362 737 372 738 m 658 895 b 650 884 658 887 655 884 b 658 895 650 890 654 893 m 747 376 l 726 362 b 747 376 726 366 738 373 m 279 719 l 283 722 b 286 713 286 720 286 716 b 279 719 283 713 280 713 m 447 1102 b 447 1094 451 1102 451 1094 b 447 1102 444 1094 444 1102 m 186 383 b 177 376 188 380 179 376 b 186 383 177 381 184 383 m 413 700 b 413 693 418 700 418 693 b 413 700 411 693 411 700 m 483 1055 b 483 1048 487 1055 487 1048 b 483 1055 480 1048 480 1055 m 502 37 b 502 30 506 37 506 30 b 502 37 500 30 500 37 m 630 661 b 630 654 634 661 634 654 b 630 661 627 654 627 661 m 295 825 b 295 818 298 825 298 818 b 295 825 291 818 291 825 m 233 358 b 233 351 236 358 236 351 b 233 358 229 351 229 358 m 691 533 b 691 525 693 533 693 525 b 691 533 687 525 687 533 m 319 1141 b 312 1134 319 1140 315 1134 b 319 1141 309 1136 319 1144 m 691 280 b 691 273 693 280 693 273 b 691 280 687 273 687 280 m 700 329 b 700 323 704 329 704 323 b 700 329 697 323 697 329 m 440 1034 b 433 1025 440 1030 434 1025 b 440 1034 434 1029 438 1034 m 440 1123 b 444 1127 440 1125 443 1126 l 444 1120 l 440 1123 m 295 287 b 291 283 297 283 294 283 b 295 287 288 284 294 287 m 447 -5 b 447 -12 450 -5 450 -11 b 447 -5 445 -12 445 -4 m 247 273 l 251 277 l 250 269 l 247 273 m 545 700 b 543 697 547 698 544 695 b 545 700 540 698 544 702 m 255 241 b 255 237 256 240 256 238 b 255 241 252 237 252 241 m 444 1063 b 441 1059 444 1061 443 1059 b 444 1063 440 1061 443 1063 m 236 1011 l 229 1006 b 236 1011 230 1009 233 1011 m 531 665 b 529 665 531 662 529 662 b 531 665 529 666 533 666 m 287 390 l 291 383 b 287 390 288 384 287 387 m 594 963 b 594 959 595 961 594 959 b 594 963 591 961 594 963 "},"Ì":{"x_min":42.90625,"x_max":345.828125,"ha":388,"o":"m 43 13 b 116 2 61 -1 94 2 l 138 2 l 144 8 l 208 8 b 243 44 213 8 240 38 l 279 119 b 311 179 288 138 304 156 b 318 206 311 181 316 204 b 327 231 322 222 327 212 b 319 233 327 237 320 233 b 318 262 319 238 316 258 b 323 276 318 265 323 276 b 318 287 323 281 318 280 b 320 305 318 293 319 304 b 318 334 320 316 318 323 b 320 509 318 393 322 450 b 327 587 330 525 326 569 l 327 627 b 334 675 327 636 333 668 l 334 801 b 338 804 334 802 337 804 b 345 808 338 804 345 806 b 343 830 345 815 343 829 b 338 833 341 830 338 833 l 338 1011 b 320 1072 338 1033 331 1054 b 230 1095 290 1083 261 1093 b 208 1100 225 1097 209 1100 b 198 1111 206 1100 200 1109 b 151 1079 193 1111 156 1081 b 79 1033 126 1062 102 1051 b 63 1011 72 1029 63 1020 b 70 895 63 975 70 934 b 56 691 70 827 62 759 b 54 354 48 581 56 461 b 47 252 54 344 47 262 b 47 83 45 226 45 108 b 43 40 41 70 43 54 l 43 13 m 63 55 b 75 390 63 166 73 277 b 81 706 76 495 73 600 b 91 830 83 718 91 816 b 91 983 93 852 93 961 b 125 998 91 1002 115 998 l 144 998 b 226 980 144 994 218 986 b 227 955 226 977 227 959 b 218 911 227 934 218 926 b 223 893 218 904 223 900 b 206 856 223 879 206 872 b 219 836 206 847 208 843 l 219 758 l 211 709 l 204 558 b 201 498 202 533 206 520 l 201 298 b 190 276 200 295 193 279 b 198 256 190 266 198 265 b 194 161 198 225 194 193 b 202 56 194 127 202 91 b 201 44 202 54 201 44 b 198 38 201 43 198 38 l 166 30 l 70 30 b 68 34 70 30 68 33 b 63 55 66 38 63 52 m 113 1022 b 159 1054 115 1037 148 1045 b 198 1075 175 1066 176 1075 l 198 1068 b 166 1043 198 1066 175 1050 l 138 1026 b 123 1019 134 1023 125 1019 b 113 1022 122 1018 115 1020 m 311 830 b 263 755 311 804 261 759 l 240 730 b 263 766 240 769 255 748 b 311 830 270 779 291 830 m 306 738 b 311 734 308 737 309 734 b 261 677 311 708 276 695 b 306 738 261 702 291 726 m 313 938 l 313 911 b 254 881 290 906 275 881 b 313 938 265 898 301 920 m 302 566 b 261 515 301 534 286 536 b 258 519 256 516 258 519 l 268 534 b 302 566 276 543 298 566 m 311 886 l 311 876 b 302 861 311 866 311 866 b 279 843 295 855 279 843 l 270 843 b 311 886 280 861 294 875 m 302 615 b 304 606 302 613 304 608 b 266 565 304 591 281 565 b 302 615 266 583 298 597 m 295 450 l 295 440 b 291 427 295 431 297 431 b 263 406 284 422 263 406 l 258 406 b 295 450 269 422 283 437 m 300 977 b 311 973 305 977 309 977 b 270 941 300 962 287 947 b 300 977 277 956 290 969 m 268 191 b 263 181 268 188 265 183 b 240 158 258 175 240 158 l 234 158 b 268 191 234 163 261 190 m 286 223 b 290 218 290 222 290 219 b 279 200 287 209 280 200 l 272 200 b 286 223 272 209 276 219 m 286 675 l 306 691 b 308 686 306 690 308 686 b 286 669 308 673 295 669 l 286 675 m 243 101 b 226 66 234 94 237 72 l 226 75 b 243 101 226 84 230 101 m 302 643 b 304 638 302 643 304 640 b 286 618 304 630 294 618 b 302 643 288 627 294 636 m 279 294 l 290 294 b 268 273 284 286 277 276 l 279 294 m 251 1065 b 231 1047 251 1052 240 1050 b 251 1065 233 1058 240 1061 m 162 1022 b 180 1030 165 1029 175 1026 l 180 1018 b 162 1022 173 1018 168 1018 m 259 808 b 245 788 258 804 252 788 b 259 808 245 798 247 808 m 268 319 b 291 336 283 330 270 327 l 275 315 b 268 319 270 316 268 318 m 251 668 b 234 650 248 661 244 650 b 251 668 234 656 241 666 m 291 363 l 291 358 l 275 347 b 291 363 275 355 287 363 m 295 401 b 283 386 295 394 290 388 b 295 401 283 394 287 401 m 234 443 b 222 423 230 437 229 429 b 234 443 222 433 225 443 m 231 697 b 240 708 231 701 234 708 l 240 702 b 236 691 238 701 237 693 b 231 697 234 691 233 694 m 311 775 b 300 762 311 768 305 762 b 311 775 298 766 304 775 m 286 505 l 295 519 l 295 513 b 290 502 295 509 295 505 b 286 505 288 502 286 505 m 255 858 b 245 850 255 852 251 850 b 255 858 245 855 250 858 m 306 1015 b 309 1011 308 1015 309 1012 b 311 1005 313 1011 313 1005 b 308 1008 308 1005 308 1006 b 306 1015 302 1008 302 1015 m 226 404 b 226 395 230 404 230 395 b 226 404 222 395 222 404 m 286 262 b 286 255 290 262 290 255 b 286 262 281 255 281 262 m 247 509 b 247 502 251 509 251 502 b 247 509 243 502 243 509 m 251 587 b 251 579 254 587 254 579 b 251 587 247 579 247 587 m 281 466 b 281 459 286 466 286 459 b 281 466 279 459 279 466 m 240 498 b 240 491 243 498 243 491 b 240 498 236 491 236 498 m 279 663 b 279 656 281 663 281 656 b 279 663 275 656 275 663 m 275 163 b 275 158 279 163 279 158 b 275 163 270 158 270 163 m 231 234 b 231 227 236 234 236 227 b 231 234 230 227 230 234 m 258 266 l 261 270 l 263 266 l 261 262 l 258 266 m 263 600 b 263 594 268 600 268 594 b 263 600 261 594 261 600 m 270 379 b 263 368 273 377 266 369 l 270 379 m 230 569 b 230 558 233 566 233 559 l 230 569 m 231 487 b 231 481 236 487 236 481 b 231 487 230 481 230 487 m 263 477 l 254 466 b 263 477 255 472 262 477 m 247 351 b 247 347 250 351 250 348 b 247 351 244 347 244 351 m 236 530 b 231 526 237 527 234 526 b 236 530 231 527 234 533 m 268 638 b 263 636 269 637 266 634 b 268 638 262 636 266 641 m 263 870 b 261 868 265 869 262 866 b 263 870 259 869 262 873 m 236 1015 b 231 1008 236 1011 233 1008 l 236 1015 m 69 1372 b 188 1209 108 1316 152 1265 b 194 1200 190 1206 194 1200 b 212 1195 194 1200 208 1197 b 276 1233 238 1208 254 1220 b 293 1238 280 1237 288 1234 b 319 1284 297 1244 319 1275 b 313 1297 319 1284 319 1286 b 275 1338 306 1302 280 1331 b 211 1416 254 1352 222 1394 b 195 1425 208 1419 200 1423 b 180 1426 193 1425 183 1426 b 72 1380 145 1426 106 1391 b 69 1372 68 1380 69 1377 m 93 1366 b 141 1384 94 1370 137 1384 b 179 1352 165 1384 163 1358 b 261 1248 201 1313 226 1280 b 256 1243 261 1244 261 1244 l 222 1219 b 211 1211 219 1216 215 1212 b 93 1366 180 1268 122 1312 m 237 1298 l 247 1298 l 248 1291 b 266 1280 248 1287 262 1280 b 287 1266 266 1269 276 1266 b 280 1256 287 1263 281 1258 b 237 1298 275 1256 244 1286 m 222 1323 b 230 1316 227 1323 230 1319 b 229 1309 230 1313 234 1309 b 222 1323 225 1313 222 1318 m 233 1326 b 234 1320 236 1326 237 1320 b 233 1326 230 1320 229 1326 m 236 1302 b 236 1298 238 1302 238 1298 b 236 1302 233 1298 233 1302 m 208 1384 l 209 1380 l 202 1380 l 208 1384 m 222 1366 b 223 1363 225 1366 226 1363 b 222 1366 220 1363 219 1366 m 238 1345 b 244 1343 243 1345 244 1344 l 238 1345 "},"Ç":{"x_min":41.671875,"x_max":747.390625,"ha":790,"o":"m 250 -172 b 330 -206 250 -195 313 -206 b 369 -201 344 -206 358 -205 b 511 -105 390 -190 505 -130 b 536 40 522 -58 529 -5 b 583 56 551 50 568 51 b 625 81 598 63 611 73 b 665 100 637 90 652 91 b 747 318 733 141 747 241 b 718 405 747 368 751 380 l 627 416 b 565 354 600 416 580 370 b 545 336 563 351 547 338 b 526 287 541 329 538 295 b 420 262 495 266 455 262 b 297 444 311 262 297 337 l 297 483 b 312 658 298 508 309 630 b 408 855 329 726 318 855 b 420 850 413 855 418 856 b 484 751 433 806 433 751 b 598 779 501 751 590 768 b 605 797 600 780 605 795 b 662 884 647 818 648 840 b 658 966 661 900 659 955 b 595 1058 641 1005 630 1031 b 565 1070 586 1065 573 1065 l 473 1079 l 411 1070 b 404 1068 409 1070 405 1068 b 227 977 333 1048 293 1022 b 187 943 218 962 198 955 b 130 855 169 923 144 879 b 105 804 125 847 106 808 b 41 475 66 700 41 587 b 43 434 41 465 43 436 b 48 379 43 429 48 383 b 58 245 52 333 51 290 b 316 33 80 113 206 43 b 250 -165 316 -30 286 -122 l 250 -172 m 279 -165 b 319 -70 293 -131 309 -105 b 338 19 325 -50 338 13 l 338 56 b 331 65 338 58 334 63 b 306 61 326 65 308 61 b 127 152 238 65 177 104 b 108 179 125 161 112 173 b 79 256 94 202 88 231 b 68 486 73 333 68 406 b 98 716 68 569 79 633 b 102 722 100 718 101 722 b 300 980 147 858 177 927 b 372 995 325 991 348 995 l 404 995 b 431 991 406 995 427 993 b 540 945 448 990 540 976 b 590 833 540 944 590 868 b 583 800 590 825 586 805 b 491 779 577 788 501 779 l 470 779 b 461 786 466 780 462 783 b 411 881 454 820 452 881 b 358 866 390 881 375 870 b 302 850 338 861 319 861 b 240 775 273 823 255 812 b 225 733 234 762 231 747 l 187 518 b 184 466 186 513 184 477 b 184 402 183 455 183 412 b 180 395 180 401 180 398 b 187 373 180 388 186 381 b 197 315 191 355 193 334 b 193 293 197 304 193 313 b 237 227 209 293 219 243 b 434 181 288 188 375 181 b 513 208 462 181 493 197 b 545 256 526 218 540 241 l 558 298 b 569 312 559 298 565 312 b 615 298 583 312 602 301 b 648 280 627 294 648 300 b 631 134 648 229 644 183 b 533 75 604 87 577 87 b 484 65 516 70 502 65 b 463 68 476 65 472 68 b 438 -12 434 68 440 8 b 398 -151 433 -72 426 -98 b 341 -183 377 -161 363 -183 b 279 -165 322 -183 293 -177 m 481 -68 b 450 -86 466 -68 466 -86 b 502 -18 450 -66 491 -33 l 502 -27 b 490 -88 502 -50 495 -62 b 433 -137 486 -104 448 -137 b 481 -68 438 -102 481 -109 m 595 1006 b 541 983 590 1019 554 983 b 598 1020 541 998 584 1020 b 627 977 618 1005 620 997 b 618 975 626 976 619 975 b 615 980 618 975 615 976 b 618 991 615 981 618 991 b 615 995 618 993 616 994 l 573 975 b 595 1006 573 991 595 988 m 212 347 l 225 365 l 272 416 b 272 395 276 408 277 401 b 247 373 265 384 254 384 b 219 336 244 370 219 336 b 212 347 213 336 212 340 m 276 556 l 281 538 b 259 525 281 538 280 536 b 250 511 258 523 251 511 b 230 508 240 504 236 512 b 276 556 233 522 266 556 m 287 629 l 287 609 b 230 568 265 609 241 577 l 227 576 b 259 612 227 577 250 601 b 287 629 265 616 284 627 m 713 215 b 697 173 713 209 708 173 l 675 173 b 713 215 676 180 704 215 m 615 326 b 626 338 615 327 622 338 b 640 336 631 338 634 336 b 659 340 647 336 651 340 b 645 318 659 333 655 318 l 615 326 m 608 866 l 615 866 b 631 859 618 866 631 865 b 612 823 631 848 619 831 l 612 831 b 608 866 611 836 609 861 m 556 1041 b 541 1036 551 1041 548 1036 b 530 1047 536 1036 530 1036 b 540 1051 530 1051 537 1051 b 576 1041 554 1051 562 1047 l 580 1036 b 573 1030 579 1033 575 1030 b 568 1033 570 1030 569 1033 l 556 1041 m 500 37 b 504 36 500 37 502 37 b 462 4 495 22 479 4 b 500 37 462 16 491 37 m 634 958 l 634 947 b 591 927 615 947 604 927 b 634 958 591 944 625 958 m 722 356 l 722 351 b 694 319 722 334 704 327 b 722 356 694 337 711 352 m 300 230 l 322 256 b 329 259 323 258 327 259 b 334 256 330 259 334 258 l 309 225 b 300 230 304 225 300 226 m 287 666 b 290 663 288 666 290 665 b 288 658 290 659 288 658 l 262 643 b 256 631 262 643 256 633 l 243 622 b 287 666 245 634 275 666 m 605 890 b 634 902 612 895 626 902 l 634 887 b 615 884 634 887 620 884 b 605 890 608 884 605 884 m 638 934 b 602 908 638 913 616 912 b 638 934 602 913 634 934 m 709 386 l 709 373 b 687 354 709 369 695 355 b 709 386 691 363 695 386 m 504 12 b 506 5 505 12 506 5 b 475 -13 506 -4 483 -13 b 504 12 475 -9 501 12 m 379 213 b 402 231 381 225 393 231 b 383 211 402 223 393 211 l 379 213 m 326 831 b 298 809 326 813 308 809 b 326 831 304 820 315 826 m 300 740 b 272 709 300 727 280 709 b 300 740 272 722 291 730 m 322 222 b 341 234 322 231 334 225 l 348 243 l 348 234 l 343 234 b 338 218 343 227 348 218 b 322 222 333 218 325 220 m 441 1047 l 448 1047 b 444 1044 447 1047 445 1044 b 408 1023 434 1038 408 1023 l 398 1023 b 420 1036 398 1029 418 1036 b 441 1047 426 1038 440 1047 m 413 211 b 437 231 419 220 426 231 b 423 208 431 227 429 208 b 413 211 422 208 415 209 m 437 211 b 473 234 437 219 463 225 l 454 211 l 437 211 m 722 263 b 704 234 719 251 708 234 l 697 234 b 722 263 705 243 712 261 m 669 141 b 651 119 669 133 659 119 b 669 141 651 130 656 141 m 276 356 b 281 344 279 352 281 345 l 281 338 b 269 344 276 343 273 344 b 258 338 265 344 262 338 b 269 354 258 343 266 351 b 276 356 270 354 275 356 m 372 1033 b 344 1020 368 1020 358 1020 b 372 1033 347 1029 363 1033 m 281 591 b 283 586 281 590 283 587 b 266 573 283 576 273 573 b 281 591 268 580 275 587 m 247 483 b 233 465 247 473 240 465 b 247 483 233 472 244 481 m 718 305 b 725 301 720 305 723 305 b 715 294 722 297 718 294 b 718 305 712 302 715 305 m 237 554 l 227 538 l 226 543 b 237 554 226 551 230 554 m 595 963 b 583 954 595 958 590 954 b 595 963 583 959 588 963 m 220 501 l 225 495 b 215 486 225 490 218 486 l 220 501 m 511 250 b 504 234 512 244 508 238 l 504 241 b 511 250 504 245 505 250 m 276 506 b 266 495 276 498 270 495 b 276 506 266 502 273 505 m 266 705 b 252 693 266 701 256 694 b 266 705 254 697 259 704 m 677 243 l 681 238 b 675 231 680 234 676 231 b 677 243 675 238 675 241 m 293 283 l 276 263 b 293 283 280 272 286 281 m 461 -22 b 470 -18 462 -20 469 -19 b 466 -26 473 -19 468 -26 l 461 -22 m 250 455 l 240 440 b 250 455 241 448 243 455 m 622 365 b 615 355 622 361 619 355 b 622 365 615 362 618 365 m 230 640 b 230 631 234 640 234 631 b 230 640 227 631 227 640 m 266 291 b 266 283 269 291 269 283 b 266 291 262 283 262 291 m 263 759 b 256 751 263 754 261 751 b 263 759 256 755 259 759 m 608 356 b 612 350 609 355 612 351 b 605 344 611 350 606 345 l 608 356 m 458 1012 b 461 1015 458 1013 459 1015 b 466 1012 465 1015 466 1013 b 463 1009 466 1011 465 1009 b 458 1012 462 1009 458 1011 m 354 218 b 354 211 358 218 358 211 b 354 218 351 211 351 218 m 272 326 b 272 319 276 326 276 319 b 272 326 269 319 269 326 m 240 291 b 240 283 243 291 243 283 b 240 291 237 283 237 291 m 513 1023 b 513 1015 516 1023 516 1015 b 513 1023 511 1015 511 1023 m 286 245 b 286 238 288 245 288 238 b 286 245 281 238 281 245 m 694 231 b 694 225 697 231 697 225 b 694 231 690 225 690 231 m 681 281 b 675 275 681 277 679 275 b 681 281 675 280 679 281 m 220 536 b 220 527 225 536 225 527 b 220 536 219 527 219 536 m 481 1026 b 472 1020 480 1023 476 1020 b 481 1026 472 1023 477 1026 m 684 388 b 684 381 687 388 687 381 b 684 388 681 381 681 388 m 269 684 b 269 677 272 684 272 677 b 269 684 266 677 266 684 m 677 350 b 677 344 681 350 681 344 b 677 350 675 344 675 350 m 286 698 b 286 693 288 698 288 693 b 286 698 281 693 281 698 m 302 768 b 302 762 306 768 306 762 b 302 768 300 762 300 768 m 216 384 b 216 379 219 384 219 379 b 216 384 212 379 212 384 m 288 640 b 288 631 290 640 290 631 b 288 640 286 631 286 640 m 715 225 b 715 218 718 225 718 218 b 715 225 713 218 713 225 m 219 562 b 219 556 220 562 220 556 b 219 562 216 556 216 562 m 276 768 b 272 765 276 766 275 763 b 276 768 270 766 275 770 m 234 434 b 230 430 234 431 233 430 b 234 434 229 431 233 436 m 530 1030 b 526 1026 530 1027 529 1026 b 530 1030 525 1027 529 1031 m 297 762 b 293 759 297 759 295 756 b 297 762 291 759 295 763 m 631 370 b 627 370 630 369 629 369 b 631 370 627 373 631 373 m 312 800 b 309 797 313 798 311 795 b 312 800 308 798 312 802 m 266 315 b 262 315 265 313 263 313 b 266 315 262 318 266 318 m 227 612 l 225 601 b 227 612 225 606 226 611 m 220 451 b 219 448 222 450 219 447 b 220 451 218 450 220 454 m 495 1009 l 490 1006 b 495 1009 491 1009 493 1009 m 644 381 b 640 381 644 380 641 380 b 644 381 640 383 644 383 "},"’":{"x_min":41.671875,"x_max":233.328125,"ha":275,"o":"m 41 936 b 47 793 41 888 44 840 b 52 745 48 776 45 761 b 72 730 55 737 62 730 l 129 730 b 145 726 131 730 143 727 l 168 745 l 179 761 b 208 809 195 779 205 784 b 215 911 208 820 215 901 l 225 976 b 227 980 226 976 227 980 b 233 1047 230 1001 233 1027 b 225 1080 233 1051 231 1077 b 143 1093 198 1083 170 1093 b 119 1090 131 1093 129 1093 b 43 1043 112 1087 43 1052 b 44 1030 43 1041 44 1031 l 44 1022 b 43 990 44 1011 44 1004 b 41 936 43 983 41 944 m 65 765 b 56 911 62 811 56 863 b 59 1037 56 954 61 995 l 72 1040 l 154 1040 b 161 1033 154 1038 159 1033 b 166 1030 161 1033 165 1030 b 145 834 159 963 151 898 b 129 748 145 822 144 748 l 79 748 b 65 765 66 748 65 754 m 186 961 b 208 983 194 966 197 983 b 201 944 208 970 202 956 b 186 961 200 951 193 958 m 183 843 b 188 856 183 847 188 851 b 186 869 188 861 186 865 b 193 876 186 873 187 875 b 195 865 194 875 195 866 b 193 840 195 858 194 843 b 183 843 188 840 183 838 m 170 923 b 176 918 176 923 176 920 b 170 904 176 912 175 909 l 170 923 m 170 1059 b 159 1054 169 1055 165 1054 b 170 1059 159 1059 166 1059 m 183 812 b 188 815 183 812 184 815 l 188 802 l 183 812 m 183 983 b 177 977 183 979 180 977 b 183 983 177 981 180 983 m 180 1068 b 180 1062 183 1068 183 1062 b 180 1068 179 1062 179 1068 m 168 879 b 168 875 170 879 170 875 b 168 879 166 875 166 879 m 186 795 b 183 793 186 794 184 791 b 186 795 181 793 184 797 "},"-":{"x_min":41.671875,"x_max":712.71875,"ha":756,"o":"m 554 347 b 626 338 579 340 604 345 b 631 334 627 337 631 334 b 709 373 643 336 704 361 b 712 395 713 381 712 386 b 704 508 712 405 711 506 b 679 512 701 509 683 511 l 668 512 b 637 508 665 511 641 508 b 587 512 630 508 593 511 b 558 508 581 511 559 508 l 493 508 b 483 506 491 508 484 506 l 475 508 l 456 508 b 345 502 419 508 381 502 b 280 506 323 502 302 506 b 188 500 250 506 219 500 l 175 500 b 166 502 175 500 168 502 b 59 469 136 498 93 469 b 41 444 48 469 41 450 b 47 418 43 441 47 420 b 41 351 47 391 41 372 b 44 338 41 345 41 341 l 52 338 b 222 350 109 338 165 350 b 270 347 237 350 254 347 b 334 354 291 347 312 354 l 350 354 b 363 350 351 354 361 350 b 554 347 422 345 497 345 m 65 443 l 69 445 l 113 445 b 233 443 154 445 194 443 b 375 448 280 443 327 448 b 415 445 379 448 412 445 l 445 445 b 493 448 462 445 477 444 l 595 448 b 600 437 595 445 595 437 b 613 440 602 437 612 440 b 620 437 618 440 620 440 l 620 391 l 618 386 b 620 370 618 379 620 376 l 620 365 b 594 361 609 362 604 361 b 576 365 587 361 584 361 l 552 365 b 325 370 476 365 401 370 b 177 368 276 370 225 368 b 61 358 138 366 100 358 b 65 443 61 387 65 413 m 665 388 b 670 386 666 388 669 387 l 684 401 l 690 404 b 683 409 690 409 686 409 b 643 394 672 409 654 400 l 643 401 l 659 409 b 693 422 669 415 681 422 l 693 388 b 641 361 693 379 644 361 b 665 388 641 375 652 388 m 670 469 b 659 479 670 476 668 477 b 684 491 666 480 680 491 b 690 487 686 491 690 491 l 690 461 b 638 443 690 458 640 443 b 670 469 638 463 670 452 m 684 443 b 687 437 684 443 687 441 b 641 418 675 429 658 418 b 684 443 641 430 675 443 m 430 488 b 441 484 436 488 437 488 b 387 468 429 481 395 480 l 368 468 b 430 488 376 479 422 488 m 522 480 b 490 466 522 470 497 466 b 484 468 490 466 486 468 b 522 480 497 473 509 480 m 652 476 b 627 463 652 468 634 463 b 652 476 627 473 645 476 m 559 476 l 544 468 b 540 466 543 468 541 466 b 559 476 540 475 552 476 m 604 491 b 604 484 606 491 606 484 b 604 491 601 484 601 491 m 294 487 b 294 481 297 487 297 481 b 294 487 291 481 291 487 m 227 481 b 216 481 226 480 218 480 b 227 481 215 483 230 483 m 595 472 b 595 468 600 472 600 468 b 595 472 594 468 594 472 m 597 488 b 595 484 601 487 598 484 b 597 488 594 486 595 487 m 548 487 b 544 487 548 486 544 486 b 548 487 543 490 550 490 m 576 481 b 572 479 576 479 573 479 b 576 481 569 480 575 481 "},"Q":{"x_min":42.28125,"x_max":862.5,"ha":904,"o":"m 402 -205 b 418 -215 406 -211 412 -215 b 440 -213 420 -215 436 -213 b 566 -191 475 -211 536 -206 b 620 -152 586 -183 604 -165 b 658 -98 644 -137 663 -130 b 650 -80 658 -95 650 -83 b 634 -23 647 -72 636 -33 b 625 11 627 -13 626 0 b 623 26 625 12 623 23 b 823 172 704 51 783 97 b 851 254 837 195 838 227 l 858 315 l 862 556 l 847 731 l 843 733 b 837 761 843 734 837 754 b 829 809 837 766 830 804 b 662 1062 809 909 756 1012 b 622 1086 647 1066 636 1080 b 515 1111 593 1098 550 1111 l 505 1111 b 304 1065 436 1105 370 1083 b 255 1033 288 1051 269 1047 b 134 954 222 1001 162 990 l 119 931 b 44 526 33 820 40 661 b 52 309 47 454 47 381 b 141 73 59 233 87 129 b 251 25 168 45 216 33 b 283 20 262 26 272 20 b 369 13 311 18 341 13 b 373 9 373 13 373 12 b 376 -95 377 -26 373 -61 b 402 -205 380 -136 387 -169 m 401 -72 b 400 20 398 -41 402 -11 b 352 40 397 48 370 40 b 331 41 351 40 334 41 l 325 41 b 111 176 219 52 147 68 b 77 323 97 220 81 275 b 69 522 72 387 72 455 b 306 997 63 719 52 975 b 355 997 322 998 341 998 b 365 991 356 997 365 993 b 397 998 379 993 386 997 b 497 988 416 1000 483 1006 b 594 973 526 995 565 983 b 623 959 601 972 615 954 b 718 816 683 913 693 886 b 723 809 719 816 723 811 b 731 781 723 806 730 787 b 729 769 731 777 729 769 b 734 762 729 768 733 762 b 747 695 743 741 744 719 b 750 670 747 693 748 675 b 745 663 748 669 745 665 b 756 623 747 650 755 637 b 758 604 756 620 758 606 b 748 577 754 593 748 587 b 761 563 750 568 761 572 b 762 465 761 548 762 479 l 762 454 b 733 140 772 348 761 244 b 700 87 727 126 713 98 b 598 55 680 72 622 56 l 593 55 b 590 63 591 55 588 62 b 583 50 588 61 587 52 b 536 45 575 50 543 47 b 509 23 518 44 520 34 b 512 -1 509 19 511 2 b 543 -152 516 -52 538 -101 b 448 -184 543 -186 472 -183 b 429 -187 443 -186 429 -187 l 422 -184 b 412 -156 420 -183 415 -163 b 401 -72 406 -130 402 -98 m 433 147 b 531 152 469 152 498 150 b 622 284 618 159 615 216 b 620 431 626 333 620 383 b 618 719 622 529 626 623 b 508 862 611 794 587 848 b 476 869 504 863 481 869 b 419 886 454 877 445 888 b 387 884 419 886 395 884 b 315 873 363 881 338 876 b 302 875 312 873 304 876 b 227 758 248 847 231 822 b 226 706 226 747 222 723 l 209 541 b 198 500 208 529 198 511 b 204 476 198 490 204 484 b 204 447 205 465 205 458 b 208 330 204 429 205 348 b 212 309 208 325 212 312 l 223 226 b 305 163 229 180 266 169 b 426 150 347 156 379 151 l 433 147 m 362 336 b 361 348 362 338 361 347 b 366 361 361 350 366 359 b 358 372 366 362 359 370 b 356 377 358 372 356 376 b 369 404 356 388 369 394 b 358 416 369 405 363 415 b 356 431 356 419 356 429 b 356 556 352 472 354 516 b 368 576 356 565 368 569 b 361 584 368 576 368 577 b 358 604 361 587 358 601 b 359 673 355 626 362 652 l 352 701 b 356 745 352 712 355 734 b 362 795 356 752 361 786 b 365 801 363 795 363 801 b 372 809 365 802 372 809 b 366 822 372 811 368 820 b 394 862 363 843 375 861 b 412 858 401 863 408 858 b 429 859 413 856 427 859 b 472 845 433 859 468 847 b 538 830 490 840 520 841 b 572 800 551 823 559 809 b 593 716 584 772 590 747 b 602 491 600 644 601 566 b 600 479 604 490 600 480 b 598 306 597 422 601 363 b 594 275 598 298 598 284 b 545 270 587 275 552 272 b 390 280 494 266 440 263 b 381 298 381 284 390 294 b 372 300 380 298 372 298 b 362 336 370 301 362 331 m 333 518 b 326 479 334 504 336 487 b 245 405 294 454 272 431 l 238 401 b 259 441 238 418 252 430 l 290 479 b 325 513 293 483 322 509 b 329 516 325 513 327 516 b 333 518 329 516 331 518 m 333 441 l 333 427 b 330 423 333 427 330 425 b 294 397 326 422 297 400 b 251 348 280 383 268 362 l 247 345 b 333 441 245 355 311 440 m 822 287 b 795 276 811 286 806 277 b 826 316 804 287 812 315 b 834 318 827 316 833 318 b 829 272 834 311 830 277 b 801 251 827 261 812 252 b 822 287 801 268 822 273 m 334 618 b 331 602 334 613 333 606 l 298 575 b 261 541 288 566 261 541 l 254 540 b 334 618 261 558 315 615 m 522 1019 b 584 1062 537 1020 581 1062 b 615 1058 588 1062 608 1062 b 608 1050 615 1055 609 1051 l 536 1018 b 530 1015 534 1018 531 1015 b 522 1019 527 1015 523 1015 m 330 716 b 333 709 333 715 333 711 b 331 702 333 708 333 704 b 309 686 330 701 313 691 b 255 641 297 676 272 648 b 330 716 258 661 313 709 m 790 843 b 801 823 794 841 800 826 b 763 800 801 811 772 806 l 755 791 b 790 843 755 806 773 843 m 820 636 b 826 647 816 640 820 647 l 830 643 b 836 623 831 640 836 626 b 831 616 836 622 833 616 b 825 619 830 619 827 619 b 783 584 813 618 798 590 b 820 636 783 606 805 625 m 819 719 b 825 708 823 719 825 712 b 786 675 825 687 798 681 l 786 680 b 819 719 786 694 804 718 m 730 868 b 769 906 729 876 762 906 b 776 894 773 904 776 895 l 777 887 b 734 862 763 877 748 872 b 730 868 734 862 731 865 m 331 401 b 306 369 331 387 313 377 b 275 336 304 366 279 338 b 262 320 275 334 263 322 l 255 320 b 284 358 261 326 279 351 b 331 401 294 370 316 400 m 822 511 b 829 509 822 511 827 509 l 834 512 b 838 506 838 512 838 508 b 793 463 838 488 808 465 b 822 511 793 486 820 491 m 726 966 b 740 955 733 966 736 962 b 694 933 733 941 708 934 b 726 966 694 947 715 965 m 331 369 b 333 363 331 368 333 365 b 270 298 333 356 281 298 b 318 356 275 306 311 348 b 331 369 319 359 329 368 m 280 631 b 331 680 287 641 320 679 b 284 630 333 668 293 630 b 280 631 283 629 280 631 m 258 768 b 276 745 255 759 265 738 b 252 720 270 736 262 726 b 250 729 252 722 251 727 b 258 768 250 740 247 761 m 350 858 b 354 856 350 858 354 858 b 345 831 352 851 348 837 b 311 822 325 834 330 823 b 340 852 319 836 331 836 b 350 858 341 855 347 858 m 533 1048 b 486 1018 533 1027 500 1019 b 533 1048 484 1026 527 1047 m 827 686 b 795 647 827 666 809 654 b 794 651 795 647 794 650 b 827 686 793 659 820 686 m 809 769 b 787 743 812 750 802 755 b 777 731 786 743 779 731 l 770 731 b 809 769 787 747 784 768 m 311 284 l 333 311 l 340 311 b 305 270 337 294 319 279 b 311 284 304 275 308 288 m 668 1022 b 676 1016 672 1022 676 1022 b 677 1012 677 1015 677 1013 l 640 998 l 633 998 b 668 1022 640 1004 656 1020 m 836 386 b 804 348 836 370 815 354 b 836 386 804 366 825 377 m 258 795 b 265 806 258 795 263 804 b 283 829 266 811 280 826 b 281 819 283 827 281 820 b 284 808 281 815 284 809 b 262 793 277 801 262 793 l 258 795 m 833 602 b 834 597 833 601 834 597 b 809 573 834 583 820 573 b 805 572 808 573 805 572 b 833 602 808 587 826 594 m 838 423 b 808 390 838 406 822 397 b 838 423 808 404 834 422 m 520 240 b 534 238 526 241 530 240 b 500 211 529 227 512 215 l 516 233 b 520 240 519 240 515 240 m 813 740 b 783 708 813 723 794 713 b 813 740 783 716 806 738 m 715 895 l 727 913 b 741 911 730 911 736 909 b 719 888 737 900 727 893 b 715 895 719 890 715 894 m 376 255 b 383 252 377 255 381 254 b 352 226 383 241 358 226 b 376 255 362 236 361 243 m 588 -137 b 568 -162 588 -151 579 -161 b 588 -137 568 -147 577 -138 m 605 -22 b 584 -44 605 -37 595 -43 b 605 -22 584 -33 595 -22 m 333 772 b 334 766 333 770 334 768 b 316 750 334 752 326 751 b 333 772 316 761 326 766 m 818 552 b 795 527 818 548 802 533 l 786 519 b 818 552 787 533 808 547 m 626 -83 b 627 -90 626 -84 627 -90 b 627 -97 629 -93 627 -97 b 609 -105 625 -100 613 -105 b 626 -83 609 -94 620 -87 m 618 -51 b 595 -76 618 -63 604 -70 b 594 -72 593 -73 594 -72 b 618 -51 600 -65 609 -52 m 538 1069 b 544 1079 536 1070 540 1077 b 561 1073 545 1080 559 1079 l 541 1065 l 538 1069 m 469 219 l 437 179 b 469 219 438 188 458 218 m 305 552 b 279 526 300 541 291 531 b 305 552 279 534 300 551 m 311 559 b 313 563 311 561 313 562 b 333 583 316 566 330 579 l 333 577 b 315 556 333 576 323 559 b 311 559 313 556 311 558 m 580 19 b 590 16 583 19 587 20 b 565 8 579 11 573 8 b 559 6 563 8 559 6 b 580 19 563 15 572 18 m 613 1011 b 593 994 611 1000 602 995 b 613 1011 593 1006 604 1009 m 818 238 b 798 220 818 225 808 222 b 818 238 798 236 809 231 m 273 522 l 245 486 l 241 484 l 244 495 l 273 522 m 318 1022 l 351 1041 l 331 1020 l 318 1022 m 475 230 b 483 241 473 236 479 241 b 490 238 484 241 490 240 l 477 223 b 475 230 475 225 475 227 m 761 141 b 769 131 763 140 769 134 b 765 129 769 131 766 129 l 755 120 b 761 141 755 130 758 134 m 230 387 l 238 388 b 231 368 240 380 237 372 l 230 387 m 445 1036 b 431 1025 444 1027 438 1025 l 425 1025 b 445 1036 427 1030 440 1036 m 329 544 b 316 525 334 534 326 526 l 329 544 m 588 -11 b 598 -2 590 -8 595 -2 b 601 -6 600 -2 601 -5 b 597 -13 604 -12 600 -13 b 588 -11 594 -15 591 -15 m 831 565 b 837 558 836 563 837 558 b 829 554 837 554 830 554 b 831 565 825 556 827 565 m 736 934 l 744 943 b 748 940 745 943 747 941 b 750 936 748 940 750 938 b 743 933 750 936 744 933 b 736 934 738 931 736 934 m 815 454 b 820 452 816 454 819 452 b 805 441 816 450 811 441 b 815 454 806 448 811 452 m 833 348 b 822 336 834 344 829 336 b 833 348 822 341 827 347 m 266 780 l 280 791 b 266 780 280 780 273 777 m 330 641 l 331 637 l 319 630 b 330 641 312 634 329 640 m 765 173 b 770 165 769 172 770 168 b 766 156 770 162 770 156 l 765 173 m 512 1062 l 525 1063 b 520 1056 525 1062 523 1056 b 512 1062 518 1056 512 1059 m 561 186 b 576 206 565 190 573 198 b 561 186 576 195 568 187 m 700 994 b 709 988 704 993 709 990 l 701 983 l 700 994 m 797 790 b 791 781 798 787 793 781 b 787 781 791 781 790 780 b 797 790 788 786 791 788 m 648 983 b 641 973 650 979 647 975 b 648 983 641 979 643 981 m 556 -44 b 550 -52 558 -48 555 -52 b 556 -44 550 -48 551 -44 m 601 -119 b 602 -126 605 -119 606 -126 b 601 -119 598 -126 598 -120 m 251 575 b 252 568 255 575 255 569 b 251 575 248 568 247 575 m 356 1048 b 358 1041 361 1048 361 1043 b 356 1048 354 1041 352 1048 m 411 1065 b 411 1058 415 1065 415 1058 b 411 1065 408 1058 408 1065 m 463 1051 b 463 1044 468 1051 468 1044 b 463 1051 461 1044 461 1051 m 238 595 b 238 588 243 595 243 588 b 238 595 236 587 236 594 m 768 762 b 768 755 772 762 772 755 b 768 762 765 754 765 761 m 479 1026 b 480 1019 483 1026 484 1019 b 479 1026 477 1019 476 1026 m 402 1043 b 402 1036 405 1043 405 1036 b 402 1043 398 1036 398 1043 m 302 820 b 302 813 305 820 305 813 b 302 820 298 813 298 820 m 563 -113 b 563 -120 566 -113 566 -120 b 563 -113 559 -120 559 -113 m 573 245 b 573 238 576 245 576 238 b 573 245 569 238 569 245 m 434 1076 b 434 1069 437 1077 437 1070 b 434 1076 430 1069 430 1076 m 762 152 b 763 145 766 152 768 145 b 762 152 761 144 761 151 m 679 958 l 680 951 l 676 950 b 679 958 675 952 676 955 m 545 -19 b 545 -25 548 -19 548 -23 b 545 -19 541 -25 541 -19 m 805 800 b 806 793 808 800 809 793 b 805 800 804 793 802 800 m 794 193 l 798 190 l 793 183 l 794 193 m 669 997 b 669 991 672 997 672 991 b 669 997 665 991 665 997 m 793 340 b 793 334 795 340 795 334 b 793 340 788 334 788 340 m 797 347 b 798 340 798 347 801 341 b 797 347 795 340 794 347 m 812 331 b 813 325 813 331 816 326 b 812 331 811 325 809 331 m 265 293 b 265 287 269 294 269 288 b 265 293 262 287 262 293 m 443 248 b 443 241 445 248 445 241 b 443 248 441 241 440 247 m 298 265 b 298 258 300 265 301 259 b 298 265 295 258 295 265 m 313 250 b 313 243 315 250 316 244 b 313 250 311 243 311 250 m 644 1044 b 644 1037 647 1044 647 1037 b 644 1044 643 1037 641 1043 m 809 202 l 811 198 l 805 197 b 809 202 805 200 806 202 m 250 700 b 251 693 252 698 254 694 b 250 700 250 691 248 701 m 248 244 b 250 237 251 243 252 238 b 248 244 248 236 247 245 m 565 1008 b 558 1008 563 1006 558 1006 b 565 1008 555 1011 563 1011 m 801 383 l 794 375 b 801 383 794 380 798 383 m 393 181 b 390 177 394 179 391 176 b 393 181 387 179 390 183 m 801 434 l 794 426 b 801 434 793 430 797 433 m 797 561 b 793 558 798 559 795 556 b 797 561 791 559 794 563 m 415 1051 l 416 1047 l 409 1047 l 415 1051 m 337 269 b 333 266 337 268 336 265 b 337 269 331 268 336 272 m 687 968 l 694 969 l 691 965 l 687 968 m 409 204 l 402 193 b 409 204 402 197 406 202 m 829 465 b 826 461 830 462 827 461 b 829 465 823 461 827 466 m 427 1073 b 427 1069 429 1072 429 1070 b 427 1073 425 1069 425 1073 m 420 215 b 420 211 423 215 423 212 b 420 215 419 211 419 215 m 277 1018 b 273 1015 277 1016 276 1013 b 277 1018 272 1015 276 1019 m 627 1020 b 627 1018 630 1022 630 1019 b 627 1020 626 1018 626 1022 m 533 180 b 531 187 530 183 530 186 l 533 180 m 273 626 l 268 613 b 273 626 269 618 272 625 m 831 533 b 827 530 831 533 831 530 l 831 533 m 325 190 l 320 186 b 325 190 320 187 322 188 m 419 229 b 416 225 419 227 416 225 l 419 229 "},"M":{"x_min":41.671875,"x_max":897.21875,"ha":939,"o":"m 41 27 b 181 0 41 6 165 0 l 205 0 b 227 22 208 4 223 18 b 234 25 227 22 233 25 b 265 43 241 29 263 43 b 277 56 268 44 276 55 b 313 72 288 62 309 61 b 327 388 309 177 318 284 b 336 497 329 426 338 459 l 340 502 b 377 365 355 454 366 413 b 390 295 388 350 394 315 b 409 283 394 290 405 283 b 416 288 409 283 415 286 l 425 305 l 500 375 b 509 383 505 370 506 381 b 547 436 543 409 534 391 b 569 493 552 454 563 476 b 593 531 575 505 586 518 b 627 609 604 556 608 588 b 630 600 627 608 630 601 b 640 527 633 588 638 538 l 643 522 l 659 393 b 665 354 661 386 668 365 l 691 77 b 694 8 690 55 694 31 b 777 25 711 8 776 18 b 823 27 784 25 816 27 b 841 37 826 27 840 30 b 838 50 841 38 838 48 b 897 195 838 84 873 165 l 897 213 b 887 341 897 255 890 300 b 875 391 886 354 875 379 b 880 405 875 393 877 402 b 870 418 879 409 872 416 b 861 493 863 433 861 473 b 869 519 861 505 869 504 b 854 515 863 519 859 519 b 848 681 850 572 850 625 b 837 783 847 715 837 750 b 838 788 837 784 838 788 b 841 795 838 790 841 794 b 838 802 841 797 838 801 b 833 977 836 859 834 918 b 787 1122 822 1012 838 1122 l 665 1122 b 650 1105 658 1122 654 1112 b 627 1079 648 1104 629 1081 b 601 1037 625 1076 608 1048 b 598 1030 601 1037 598 1031 b 573 1004 595 1027 576 1013 b 502 808 569 987 509 808 b 493 826 500 808 494 820 b 470 912 486 855 473 881 l 470 930 b 463 937 470 931 463 937 b 458 969 459 944 466 966 b 445 1034 451 993 454 1013 b 437 1072 440 1045 437 1061 b 445 1086 437 1080 445 1080 b 404 1109 423 1095 429 1106 b 323 1116 395 1111 330 1115 b 311 1119 322 1116 312 1119 b 176 1044 252 1119 216 1079 l 172 1040 b 137 823 144 986 145 886 b 112 629 129 758 118 694 b 105 562 111 609 102 581 l 75 298 l 75 288 l 45 50 b 41 27 43 41 41 37 m 63 44 b 75 122 63 69 68 98 b 88 261 84 166 86 215 b 93 286 90 263 93 283 l 141 698 b 144 733 140 709 145 720 l 169 920 b 172 934 169 923 172 931 l 180 1000 b 198 1025 180 1008 188 1025 l 259 1025 b 277 1015 266 1025 270 1015 b 294 1022 283 1015 293 1020 b 340 1012 300 1022 338 1013 b 358 930 352 987 352 958 b 383 833 366 898 376 865 b 406 729 387 820 402 747 b 450 625 409 709 422 625 b 454 629 451 625 454 627 b 468 672 456 634 465 666 b 505 734 470 683 495 734 b 502 747 505 737 502 745 b 529 811 502 758 525 801 b 586 969 548 863 565 916 l 595 987 b 725 1006 600 993 709 1006 b 716 983 725 998 716 993 b 730 969 718 979 729 970 b 733 926 734 959 731 937 b 736 886 733 923 736 891 b 727 845 736 869 730 858 b 736 833 727 840 733 836 l 736 808 b 743 795 737 806 743 797 b 745 675 750 756 745 713 b 743 654 745 666 743 661 b 748 622 743 641 748 640 b 762 423 752 555 755 490 b 770 319 765 390 773 355 l 787 161 l 787 152 b 809 54 787 118 809 87 b 787 50 805 45 793 51 b 769 40 784 50 770 41 b 758 37 766 38 759 37 b 752 40 758 37 754 40 b 720 34 743 40 730 34 b 713 37 719 34 715 37 b 698 238 709 105 702 172 b 691 318 695 268 690 288 l 665 519 b 663 533 665 520 663 531 l 652 588 b 647 651 651 594 648 644 b 622 773 645 658 623 770 l 613 773 b 573 694 587 773 580 716 b 537 641 568 677 537 659 b 538 634 537 640 538 634 l 541 629 b 505 550 537 601 516 575 l 493 512 b 454 440 483 487 463 465 l 438 395 b 412 340 436 387 418 347 b 397 376 409 343 400 368 b 390 402 395 383 395 395 l 358 527 b 336 631 347 533 340 620 b 327 651 336 634 327 648 b 329 663 326 652 329 662 b 316 681 329 679 323 675 b 304 741 305 698 306 723 l 294 804 b 272 795 287 804 275 801 b 256 669 272 752 259 712 b 252 654 250 663 254 661 b 240 544 248 616 245 580 l 230 490 b 227 455 230 488 227 465 b 222 440 226 451 222 441 b 227 427 222 437 225 429 b 222 398 226 423 222 404 b 211 326 219 386 211 334 l 211 295 l 201 241 b 195 179 201 237 195 193 b 181 30 191 129 187 80 b 180 25 181 29 180 26 l 166 25 b 63 44 161 25 63 27 m 436 706 b 448 736 436 718 448 723 b 445 745 448 738 445 744 b 480 791 445 748 476 791 l 480 768 b 445 716 465 755 454 731 b 444 712 445 715 444 712 b 451 695 444 705 451 701 l 448 691 b 447 673 448 690 447 676 b 436 706 436 673 436 700 m 800 959 b 797 976 800 966 797 970 b 806 983 798 979 805 983 b 809 975 808 981 809 976 b 811 937 809 963 811 937 l 800 937 l 762 900 b 800 959 766 919 786 943 m 850 411 b 809 341 850 387 825 361 l 809 348 b 829 395 809 365 819 381 b 850 411 833 400 844 411 m 305 405 l 304 380 b 297 381 301 381 298 381 b 247 336 276 381 261 341 l 247 341 b 305 405 247 352 291 405 m 806 836 b 813 830 811 836 813 834 b 769 763 813 815 776 784 b 768 768 769 763 768 766 b 783 798 768 781 780 788 b 806 836 787 806 790 836 m 809 922 l 809 908 b 783 883 806 904 787 887 b 758 855 780 879 769 856 b 809 922 758 869 800 922 m 827 688 b 794 637 827 676 808 637 b 800 663 794 645 795 656 b 819 688 805 670 819 688 l 827 688 m 875 216 b 836 147 873 193 854 162 b 875 216 836 162 863 208 m 829 544 l 829 536 b 787 483 829 529 794 483 b 791 497 787 488 790 495 b 819 537 797 508 818 536 l 829 544 m 311 470 l 311 462 b 277 430 311 461 288 440 b 256 415 275 426 262 416 b 311 470 262 436 293 458 m 809 883 l 809 875 b 777 833 809 858 787 841 l 777 838 b 809 883 777 856 800 875 m 819 726 b 823 719 820 725 823 722 b 819 712 823 719 820 713 b 770 651 795 687 781 684 b 819 726 770 677 802 712 m 838 475 b 841 461 843 470 841 465 l 841 455 l 816 430 l 811 430 b 838 475 811 444 827 465 m 301 368 b 302 363 301 366 302 363 b 281 336 302 351 288 343 l 262 313 l 259 318 b 277 348 259 318 273 340 b 281 352 279 348 280 351 l 301 368 m 826 615 l 826 606 b 794 566 826 606 804 577 b 787 559 793 565 788 559 b 783 559 784 558 784 559 b 826 615 787 566 815 615 m 534 505 b 541 515 534 506 538 512 b 573 547 545 520 568 543 b 556 515 573 543 562 522 b 538 502 555 511 541 502 l 534 505 m 758 1091 b 752 1100 758 1093 754 1098 b 759 1101 754 1100 758 1101 b 787 1097 770 1101 776 1100 b 751 1075 783 1093 755 1075 l 756 1084 b 758 1091 756 1086 758 1090 m 298 283 l 298 270 l 256 230 b 298 283 255 241 297 283 m 833 502 l 833 497 b 787 436 816 477 804 455 b 833 502 787 448 826 502 m 294 241 l 294 236 b 261 200 294 223 268 200 b 294 241 263 216 281 230 m 816 763 l 816 756 b 787 719 816 734 797 733 b 816 763 787 734 808 756 m 819 318 l 851 370 b 851 358 855 365 854 363 l 823 313 b 819 311 823 313 820 311 l 819 318 m 611 706 b 615 704 612 706 613 704 b 618 686 615 701 618 688 b 588 672 606 690 595 679 l 588 679 b 611 706 588 679 602 697 m 768 595 b 777 616 768 601 768 616 b 777 590 781 611 779 594 b 770 577 777 588 776 580 b 768 595 766 583 768 590 m 441 930 b 443 925 441 929 443 926 b 416 900 443 912 426 904 b 441 930 416 913 434 926 m 797 308 b 812 298 798 306 809 302 b 797 273 809 291 805 277 l 797 308 m 826 577 l 826 566 l 797 537 b 826 577 797 551 818 570 m 704 1097 b 727 1100 706 1097 723 1100 b 701 1081 727 1088 709 1081 b 704 1097 701 1086 701 1093 m 522 436 b 516 418 526 431 519 422 b 500 402 512 412 501 402 b 522 436 495 412 513 430 m 448 900 b 450 894 448 898 450 894 b 423 873 450 884 431 873 b 448 900 427 881 437 895 m 454 873 b 455 869 455 873 455 869 b 431 845 455 865 436 845 b 454 873 431 856 444 869 m 430 965 b 436 955 436 965 436 959 b 422 941 436 948 427 941 b 430 965 422 945 422 965 m 284 308 b 301 326 284 318 294 325 b 291 305 301 318 297 305 b 284 308 290 305 286 306 m 312 437 b 293 418 312 429 302 418 b 312 437 293 429 304 437 m 812 795 b 813 791 812 794 813 793 b 795 769 813 786 801 769 b 812 795 797 780 804 788 m 611 637 b 577 608 609 630 587 609 b 611 637 584 612 598 636 m 475 380 l 448 354 b 475 380 448 375 462 373 m 573 568 b 586 584 573 572 583 581 b 576 554 586 575 581 561 l 576 562 b 573 568 576 563 573 568 m 870 250 l 870 238 l 854 226 b 870 250 856 233 863 250 m 800 1047 b 777 1025 800 1036 783 1025 b 800 1047 777 1031 797 1044 m 365 1009 l 380 1009 b 369 995 380 1004 376 995 b 365 1009 368 997 366 1004 m 281 711 b 288 694 286 711 288 700 b 281 679 288 690 283 680 l 281 711 m 269 181 l 291 204 l 291 195 l 269 176 l 269 181 m 419 769 l 433 768 b 425 754 433 761 429 756 b 419 769 420 756 419 765 m 394 1081 l 404 1081 b 376 1062 400 1077 381 1062 l 394 1081 m 288 162 l 288 144 l 281 140 l 281 145 b 288 162 281 152 283 156 m 640 1034 l 630 1018 l 623 1018 b 640 1034 623 1026 637 1033 m 529 500 b 512 480 526 490 519 484 b 529 500 513 487 525 497 m 234 238 b 223 222 233 236 229 226 l 223 227 b 234 238 223 234 227 236 m 216 65 b 208 50 216 62 212 52 b 216 65 208 59 209 65 m 858 333 b 851 319 859 327 855 323 b 858 333 851 327 851 333 m 315 581 b 320 575 318 581 320 577 l 306 575 l 315 581 m 416 1056 b 400 1044 416 1047 405 1045 b 404 1047 400 1044 402 1047 l 416 1056 m 538 477 b 529 465 538 469 534 466 b 538 477 529 469 536 476 m 551 575 l 541 562 b 551 575 537 573 543 570 m 419 937 b 406 920 413 933 412 925 b 419 937 406 930 413 936 m 313 1091 b 301 1081 313 1087 304 1083 b 313 1091 301 1086 306 1091 m 258 480 b 248 472 258 475 252 472 b 258 480 248 477 252 480 m 730 1044 b 720 1034 730 1037 723 1036 b 730 1044 720 1038 725 1043 m 863 305 b 856 291 863 300 861 291 b 863 305 856 297 861 301 m 488 397 l 480 383 l 476 387 b 488 397 477 387 486 394 m 243 1056 b 243 1050 247 1056 247 1050 b 243 1056 240 1050 240 1056 m 365 1091 b 365 1084 369 1091 369 1084 b 365 1091 362 1084 362 1091 m 509 477 b 509 470 512 477 512 470 b 509 477 505 470 505 477 m 791 768 b 791 761 794 768 794 761 b 791 768 787 761 787 768 m 765 734 l 772 734 b 765 729 772 731 768 729 l 765 734 m 275 409 b 275 402 277 409 277 402 b 275 409 272 402 272 409 m 259 273 b 259 266 262 273 262 266 b 259 273 256 266 256 273 m 259 169 b 259 162 262 169 262 162 b 259 169 256 162 256 169 m 269 286 b 265 276 269 281 266 276 b 269 286 265 281 265 284 m 288 91 b 281 81 288 86 283 81 b 288 91 281 86 287 90 m 845 433 b 845 427 848 433 848 427 b 845 433 841 427 841 433 m 390 905 b 390 900 394 905 394 900 b 390 905 387 900 387 905 m 358 1087 b 358 1081 362 1087 362 1081 b 358 1087 355 1081 355 1087 m 284 118 b 284 112 288 118 288 112 b 284 118 281 112 281 118 m 781 555 b 781 550 783 555 783 550 b 781 555 777 550 777 555 m 369 943 b 369 937 370 943 370 937 b 369 943 365 937 365 943 m 461 813 b 461 808 463 813 463 808 b 461 813 458 808 458 813 m 409 891 b 409 886 412 891 412 886 b 409 891 406 886 406 891 m 383 1015 b 383 1009 387 1015 387 1009 b 383 1015 381 1009 381 1015 m 783 625 b 783 619 787 625 787 619 b 783 625 781 619 781 625 m 783 477 b 783 470 787 476 786 472 l 783 477 m 281 298 b 277 295 283 297 280 294 b 281 298 276 297 280 300 m 573 600 l 566 590 b 573 600 568 595 570 600 m 829 251 b 826 248 830 250 827 247 b 829 251 823 250 827 252 m 284 475 b 281 470 286 472 283 470 b 284 475 279 472 284 476 m 566 562 b 563 559 568 561 565 558 b 566 562 561 559 566 565 m 243 151 b 243 147 245 151 245 148 b 243 151 241 147 241 151 m 272 631 b 272 629 275 631 275 629 b 272 631 270 627 270 633 m 806 423 l 804 418 b 806 423 802 420 804 420 m 309 602 l 313 597 b 309 602 311 598 309 600 m 811 227 l 809 222 b 811 227 809 225 809 226 m 306 497 b 304 490 306 495 305 491 l 306 497 m 250 187 b 247 181 250 187 248 183 l 250 187 "}}}
